SplineFontDB: 3.0
FontName: DejaVuSerifCondensed-BoldItalic
FullName: DejaVu Serif Condensed Bold Italic
FamilyName: DejaVu Serif Condensed
Weight: Bold
Copyright: Copyright (c) 2003 by Bitstream, Inc. All Rights Reserved.\nDejaVu changes are in public domain\n
Version: 2.37
ItalicAngle: -11
UnderlinePosition: -85
UnderlineWidth: 90
Ascent: 1556
Descent: 492
InvalidEm: 0
LayerCount: 2
Layer: 0 1 "Back" 1
Layer: 1 1 "Fore" 0
FSType: 0
OS2Version: 0
OS2_WeightWidthSlopeOnly: 0
OS2_UseTypoMetrics: 0
PfmFamily: 17
TTFWeight: 700
TTFWidth: 4
LineGap: 0
VLineGap: 0
Panose: 2 6 8 6 5 3 5 11 2 4
OS2TypoAscent: 1556
OS2TypoAOffset: 0
OS2TypoDescent: -492
OS2TypoDOffset: 0
OS2TypoLinegap: 410
OS2WinAscent: 1923
OS2WinAOffset: 0
OS2WinDescent: 483
OS2WinDOffset: 0
HheadAscent: 1923
HheadAOffset: 0
HheadDescent: -483
HheadDOffset: 0
OS2CapHeight: 0
OS2XHeight: 0
OS2Vendor: 'PfEd'
Lookup: 6 0 0 "'ccmp' Contextual Chaining Substitution" { "'ccmp' Contextual Chaining Substitution"  } ['ccmp' ('DFLT' <'dflt' > 'cyrl' <'MKD ' 'SRB ' 'dflt' > 'grek' <'dflt' > 'latn' <'AZE ' 'CRT ' 'GAG ' 'ISM ' 'KAZ ' 'KRK ' 'KSM ' 'LSM ' 'MOL ' 'NSM ' 'ROM ' 'SKS ' 'SSM ' 'TAT ' 'TRK ' 'dflt' > ) ]
Lookup: 1 0 0 "'locl' Localized Forms in Cyrillic - Serbian" { "'locl' Localized Forms in Cyrillic - Serbian"  } ['locl' ('cyrl' <'MKD ' 'SRB ' > ) ]
Lookup: 1 0 0 "'locl' Localized Forms in Latin - Sami" { "'locl' Localized Forms in Latin - Sami"  } ['locl' ('latn' <'ISM ' 'KSM ' 'LSM ' 'NSM ' 'SKS ' 'SSM ' > ) ]
Lookup: 4 0 1 "'liga' Standard Ligatures" { "'liga' Standard Ligatures"  } ['liga' ('DFLT' <'dflt' > 'cyrl' <'MKD ' 'SRB ' 'dflt' > 'grek' <'dflt' > 'latn' <'AZE ' 'CRT ' 'GAG ' 'ISM ' 'KAZ ' 'KRK ' 'KSM ' 'LSM ' 'MOL ' 'NSM ' 'ROM ' 'SKS ' 'SSM ' 'TAT ' 'TRK ' 'dflt' > ) ]

StartChar: .notdef
Encoding: 0 -1 0
Width: 1106
Flags: W
LayerCount: 2
Back
Fore
SplineSet
91.7998046875 -362 m 1,0,-1
 91.7998046875 1444 l 1,1,-1
 1013.40039062 1444 l 1,2,-1
 1013.40039062 -362 l 1,3,-1
 91.7998046875 -362 l 1,0,-1
195.299804688 -248 m 1,4,-1
 910.799804688 -248 l 1,5,-1
 910.799804688 1329 l 1,6,-1
 195.299804688 1329 l 1,7,-1
 195.299804688 -248 l 1,4,-1
EndSplineSet
EndChar
StartChar: exclam
Encoding: 33 33 33
Width: 809
Flags: W
LayerCount: 2
Back
Fore
SplineSet
134.282226562 162 m 0,0,1
 147.928710938 240 147.928710938 240 207.674804688 296 c 128,-1,2
 267.422851562 352 267.422851562 352 337.622070312 352 c 0,3,4
 407.822265625 352 407.822265625 352 448.424804688 296 c 128,-1,5
 489.028320312 240 489.028320312 240 475.3828125 162 c 0,6,7
 461.563476562 83 461.563476562 83 401.366210938 27 c 128,-1,8
 341.16796875 -29 341.16796875 -29 270.96875 -29 c 0,9,10
 200.768554688 -29 200.768554688 -29 160.616210938 27 c 128,-1,11
 120.462890625 83 120.462890625 83 134.282226562 162 c 0,0,1
368.931640625 1493 m 1,12,-1
 706.431640625 1493 l 1,13,-1
 452.029296875 651 l 1,14,-1
 418.791015625 461 l 1,15,-1
 293.690429688 461 l 1,16,-1
 326.9296875 651 l 1,17,-1
 368.931640625 1493 l 1,12,-1
EndSplineSet
EndChar
StartChar: quotedbl
Encoding: 34 34 34
Width: 960
Flags: W
LayerCount: 2
Back
Fore
SplineSet
388.799804688 1493 m 1,0,-1
 388.799804688 938 l 1,1,-1
 175.5 938 l 1,2,-1
 175.5 1493 l 1,3,-1
 388.799804688 1493 l 1,0,-1
784.799804688 1493 m 1,4,-1
 784.799804688 938 l 1,5,-1
 571.5 938 l 1,6,-1
 571.5 1493 l 1,7,-1
 784.799804688 1493 l 1,4,-1
EndSplineSet
EndChar
StartChar: numbersign
Encoding: 35 35 35
Width: 1544
Flags: W
LayerCount: 2
Back
Fore
SplineSet
921.599609375 872 m 1,0,-1
 684 872 l 1,1,-1
 621 598 l 1,2,-1
 858.599609375 598 l 1,3,-1
 921.599609375 872 l 1,0,-1
819.900390625 1470 m 1,4,-1
 733.5 1085 l 1,5,-1
 971.099609375 1085 l 1,6,-1
 1058.40039062 1470 l 1,7,-1
 1257.29980469 1470 l 1,8,-1
 1170 1085 l 1,9,-1
 1419.29980469 1085 l 1,10,-1
 1419.29980469 872 l 1,11,-1
 1122.29980469 872 l 1,12,-1
 1060.20019531 598 l 1,13,-1
 1315.79980469 598 l 1,14,-1
 1315.79980469 383 l 1,15,-1
 1013.40039062 383 l 1,16,-1
 927 0 l 1,17,-1
 728.099609375 0 l 1,18,-1
 814.5 383 l 1,19,-1
 576.900390625 383 l 1,20,-1
 490.5 0 l 1,21,-1
 289.799804688 0 l 1,22,-1
 376.200195312 383 l 1,23,-1
 125.099609375 383 l 1,24,-1
 125.099609375 598 l 1,25,-1
 420.299804688 598 l 1,26,-1
 483.299804688 872 l 1,27,-1
 228.599609375 872 l 1,28,-1
 228.599609375 1085 l 1,29,-1
 532.799804688 1085 l 1,30,-1
 619.200195312 1470 l 1,31,-1
 819.900390625 1470 l 1,4,-1
EndSplineSet
EndChar
StartChar: dollar
Encoding: 36 36 36
Width: 1282
Flags: W
LayerCount: 2
Back
Fore
SplineSet
75.6083984375 59 m 1,0,-1
 126.515625 350 l 1,1,-1
 234.515625 350 l 1,2,3
 226.373046875 216 226.373046875 216 285.477539062 150 c 128,-1,4
 344.581054688 84 344.581054688 84 474.181640625 84 c 2,5,-1
 486.78125 84 l 1,6,-1
 557.633789062 489 l 1,7,8
 343.154296875 544 343.154296875 544 262.57421875 639 c 128,-1,9
 181.994140625 734 181.994140625 734 210.508789062 897 c 0,10,11
 241.999023438 1077 241.999023438 1077 370.356445312 1180.5 c 128,-1,12
 498.712890625 1284 498.712890625 1284 697.76171875 1290 c 1,13,-1
 744.821289062 1559 l 1,14,-1
 853.720703125 1559 l 1,15,-1
 806.662109375 1290 l 1,16,17
 906.408203125 1284 906.408203125 1284 994.905273438 1262.5 c 128,-1,18
 1083.39257812 1241 1083.39257812 1241 1163.87109375 1202 c 1,19,-1
 1116.27929688 930 l 1,20,-1
 1007.37890625 930 l 1,21,22
 1013.27441406 1046 1013.27441406 1046 955.709960938 1110.5 c 128,-1,23
 898.14453125 1175 898.14453125 1175 786.893554688 1177 c 1,24,-1
 721.815429688 805 l 1,25,26
 953.594726562 746 953.594726562 746 1034.2890625 646.5 c 128,-1,27
 1114.98339844 547 1114.98339844 547 1083.4921875 367 c 0,28,29
 1051.12792969 182 1051.12792969 182 919.340820312 79.5 c 128,-1,30
 787.5625 -23 787.5625 -23 575.913085938 -29 c 1,31,-1
 528.678710938 -299 l 1,32,-1
 419.779296875 -299 l 1,33,-1
 467.012695312 -29 l 1,34,35
 368.36328125 -27 368.36328125 -27 270.510742188 -5 c 128,-1,36
 172.66015625 17 172.66015625 17 75.6083984375 59 c 1,0,-1
678.168945312 1178 m 1,37,38
 599.744140625 1167 599.744140625 1167 547.846679688 1125 c 128,-1,39
 495.94921875 1083 495.94921875 1083 485.27734375 1022 c 0,40,41
 473.032226562 952 473.032226562 952 503.758789062 909 c 128,-1,42
 534.486328125 866 534.486328125 866 618.6875 838 c 1,43,-1
 678.168945312 1178 l 1,37,38
595.681640625 84 m 1,44,45
 688.505859375 95 688.505859375 95 742.916015625 138.5 c 128,-1,46
 797.326171875 182 797.326171875 182 810.271484375 256 c 0,47,48
 823.217773438 330 823.217773438 330 787.96484375 378 c 128,-1,49
 752.711914062 426 752.711914062 426 660.934570312 457 c 1,50,-1
 595.681640625 84 l 1,44,45
EndSplineSet
EndChar
StartChar: percent
Encoding: 37 37 37
Width: 1751
Flags: W
LayerCount: 2
Back
Fore
SplineSet
515.623046875 1419 m 0,0,1
 458.0234375 1419 458.0234375 1419 420.6640625 1349.5 c 128,-1,2
 383.306640625 1280 383.306640625 1280 354.265625 1114 c 0,3,4
 325.05078125 947 325.05078125 947 338.004882812 877 c 128,-1,5
 350.958984375 807 350.958984375 807 408.55859375 807 c 0,6,7
 467.05859375 807 467.05859375 807 504.504882812 877 c 128,-1,8
 541.951171875 947 541.951171875 947 571.166015625 1114 c 0,9,10
 600.206054688 1280 600.206054688 1280 587.1640625 1349.5 c 128,-1,11
 574.123046875 1419 574.123046875 1419 515.623046875 1419 c 0,0,1
533.29296875 1520 m 0,12,13
 705.193359375 1520 705.193359375 1520 778.260742188 1415.5 c 128,-1,14
 851.330078125 1311 851.330078125 1311 816.866210938 1114 c 0,15,16
 782.40234375 917 782.40234375 917 672.684570312 812 c 128,-1,17
 562.96484375 707 562.96484375 707 391.065429688 707 c 0,18,19
 220.065429688 707 220.065429688 707 147.083984375 812 c 128,-1,20
 74.1025390625 917 74.1025390625 917 108.56640625 1114 c 0,21,22
 143.030273438 1311 143.030273438 1311 252.66015625 1415.5 c 128,-1,23
 362.29296875 1520 362.29296875 1520 533.29296875 1520 c 0,12,13
1354.09472656 1520 m 1,24,-1
 1508.89453125 1520 l 1,25,-1
 397.306640625 -29 l 1,26,-1
 242.506835938 -29 l 1,27,-1
 1354.09472656 1520 l 1,24,-1
1359.43164062 784 m 0,28,29
 1531.33203125 784 1531.33203125 784 1603.953125 679.5 c 128,-1,30
 1676.57421875 575 1676.57421875 575 1642.28417969 379 c 0,31,32
 1607.82324219 182 1607.82324219 182 1498.46386719 76.5 c 128,-1,33
 1389.10546875 -29 1389.10546875 -29 1217.20507812 -29 c 0,34,35
 1046.20507812 -29 1046.20507812 -29 973.314453125 76.5 c 128,-1,36
 900.422851562 182 900.422851562 182 934.883789062 379 c 0,37,38
 969.173828125 575 969.173828125 575 1078.80273438 679.5 c 128,-1,39
 1188.43164062 784 1188.43164062 784 1359.43164062 784 c 0,28,29
1341.9453125 684 m 0,40,41
 1283.4453125 684 1283.4453125 684 1246.0859375 614.5 c 128,-1,42
 1208.7265625 545 1208.7265625 545 1179.68359375 379 c 0,43,44
 1150.46972656 212 1150.46972656 212 1163.87109375 142 c 128,-1,45
 1177.27246094 72 1177.27246094 72 1234.87207031 72 c 0,46,47
 1293.37207031 72 1293.37207031 72 1330.82128906 142 c 128,-1,48
 1368.26953125 212 1368.26953125 212 1397.484375 379 c 0,49,50
 1426.52734375 545 1426.52734375 545 1413.48632812 614.5 c 128,-1,51
 1400.4453125 684 1400.4453125 684 1341.9453125 684 c 0,40,41
EndSplineSet
EndChar
StartChar: ampersand
Encoding: 38 38 38
Width: 1664
Flags: W
LayerCount: 2
Back
Fore
SplineSet
1500.38085938 0 m 1,0,-1
 1069.28125 0 l 1,1,-1
 977.89453125 131 l 1,2,3
 873.900390625 51 873.900390625 51 758.006835938 11 c 128,-1,5
 642.10546875 -29 642.10546875 -29 513.405273438 -29 c 0,6,7
 243.405273438 -29 243.405273438 -29 113.247070312 99 c 0,8,9
 13.2119140625 197.379882812 13.2119140625 197.379882812 13.2119140625 352.469726562 c 0,10,11
 13.2119140625 399.169921875 13.2119140625 399.169921875 22.275390625 451 c 0,12,13
 50.7958984375 614 50.7958984375 614 148.850585938 729.5 c 128,-1,15
 246.90625 845 246.90625 845 427.931640625 928 c 1,16,17
 393.75 995 393.75 995 381.473632812 1056 c 0,18,19
 374.697265625 1089.66015625 374.697265625 1089.66015625 374.697265625 1122.11035156 c 0,20,21
 374.697265625 1148.45019531 374.697265625 1148.45019531 379.161132812 1174 c 0,22,23
 407.852539062 1338 407.852539062 1338 547.524414062 1429 c 128,-1,25
 687.1953125 1520 687.1953125 1520 911.294921875 1520 c 0,26,27
 977.89453125 1520 977.89453125 1520 1064.43945312 1508 c 128,-1,29
 1150.9921875 1496 1150.9921875 1496 1258.56933594 1473 c 1,30,-1
 1203.984375 1161 l 1,31,-1
 1087.88378906 1161 l 1,32,33
 1088.51367188 1175.29003906 1088.51367188 1175.29003906 1088.51367188 1188.6796875 c 0,34,35
 1088.51367188 1291.5703125 1088.51367188 1291.5703125 1051.15527344 1342 c 0,36,37
 1008.92675781 1399 1008.92675781 1399 912.626953125 1399 c 0,38,39
 821.7265625 1399 821.7265625 1399 761.129882812 1351 c 128,-1,40
 700.533203125 1303 700.533203125 1303 686.186523438 1221 c 0,41,42
 684.296875 1210.21972656 684.296875 1210.21972656 684.296875 1198.34960938 c 0,43,44
 684.296875 1105.6796875 684.296875 1105.6796875 799.352539062 947 c 0,45,46
 813.8515625 927 813.8515625 927 821.27734375 918 c 1,47,-1
 1150.95605469 436 l 1,48,49
 1216.85351562 504 1216.85351562 504 1263.02441406 593 c 128,-1,51
 1309.19433594 682 1309.19433594 682 1337.05761719 795 c 1,52,-1
 1358.0546875 915 l 1,53,-1
 1644.25488281 915 l 1,54,-1
 1623.2578125 795 l 1,55,-1
 1464.85839844 795 l 1,56,57
 1424.015625 649 1424.015625 649 1363.30175781 536 c 128,-1,59
 1302.57910156 423 1302.57910156 423 1220.75976562 336 c 1,60,-1
 1368.54882812 121 l 1,61,-1
 1521.54882812 121 l 1,62,-1
 1500.38085938 0 l 1,0,-1
910.440429688 229 m 1,63,-1
 504.809570312 817 l 1,64,65
 443.591796875 750 443.591796875 750 405.1796875 674.5 c 128,-1,67
 366.767578125 599 366.767578125 599 352.250976562 516 c 0,68,69
 344.034179688 469.01953125 344.034179688 469.01953125 344.034179688 426.669921875 c 0,70,71
 344.034179688 316.700195312 344.034179688 316.700195312 399.46484375 238 c 0,72,73
 476.244140625 129 476.244140625 129 623.84375 129 c 0,74,75
 694.043945312 129 694.043945312 129 764.487304688 153.5 c 128,-1,77
 834.920898438 178 834.920898438 178 910.440429688 229 c 1,63,-1
EndSplineSet
EndChar
StartChar: quotesingle
Encoding: 39 39 39
Width: 564
Flags: W
LayerCount: 2
Back
Fore
SplineSet
388.799804688 1493 m 1,0,-1
 388.799804688 938 l 1,1,-1
 175.5 938 l 1,2,-1
 175.5 1493 l 1,3,-1
 388.799804688 1493 l 1,0,-1
EndSplineSet
EndChar
StartChar: parenleft
Encoding: 40 40 40
Width: 872
Flags: W
LayerCount: 2
Back
Fore
SplineSet
611.791992188 -319 m 1,0,1
 330.359375 -194 330.359375 -194 221.720703125 39 c 128,-1,2
 113.08203125 272 113.08203125 272 173.611328125 618 c 0,3,4
 234.142578125 964 234.142578125 964 421.979492188 1194 c 128,-1,5
 609.815429688 1424 609.815429688 1424 939.806640625 1556 c 1,6,-1
 918.819335938 1436 l 1,7,8
 759.8203125 1340 759.8203125 1340 664.293945312 1151.5 c 128,-1,9
 568.767578125 963 568.767578125 963 508.412109375 618 c 0,10,11
 448.232421875 274 448.232421875 274 477.806640625 85.5 c 128,-1,12
 507.379882812 -103 507.379882812 -103 632.784179688 -199 c 1,13,-1
 611.791992188 -319 l 1,0,1
EndSplineSet
EndChar
StartChar: parenright
Encoding: 41 41 41
Width: 872
Flags: W
LayerCount: 2
Back
Fore
SplineSet
-70.408203125 -319 m 1,0,-1
 -49.416015625 -199 l 1,1,2
 109.579101562 -103 109.579101562 -103 205.106445312 85.5 c 128,-1,3
 300.6328125 274 300.6328125 274 360.811523438 618 c 0,4,5
 421.16796875 963 421.16796875 963 391.59375 1151.5 c 128,-1,6
 362.020507812 1340 362.020507812 1340 236.615234375 1436 c 1,7,-1
 257.607421875 1556 l 1,8,9
 541.416015625 1424 541.416015625 1424 649.229492188 1194 c 128,-1,10
 757.041992188 964 757.041992188 964 696.51171875 618 c 0,11,12
 635.982421875 272 635.982421875 272 445.370117188 39 c 128,-1,13
 254.759765625 -194 254.759765625 -194 -70.408203125 -319 c 1,0,-1
EndSplineSet
EndChar
StartChar: asterisk
Encoding: 42 42 42
Width: 963
Flags: W
LayerCount: 2
Back
Fore
SplineSet
923.400390625 1212 m 1,0,-1
 599.400390625 1044 l 1,1,-1
 923.400390625 874 l 1,2,-1
 835.200195312 719 l 1,3,-1
 540 958 l 1,4,-1
 564.299804688 569 l 1,5,-1
 399.599609375 569 l 1,6,-1
 423.900390625 958 l 1,7,-1
 128.700195312 719 l 1,8,-1
 40.5 874 l 1,9,-1
 365.400390625 1044 l 1,10,-1
 40.5 1212 l 1,11,-1
 128.700195312 1370 l 1,12,-1
 423.900390625 1128 l 1,13,-1
 399.599609375 1520 l 1,14,-1
 564.299804688 1520 l 1,15,-1
 540 1128 l 1,16,-1
 835.200195312 1370 l 1,17,-1
 923.400390625 1212 l 1,0,-1
EndSplineSet
EndChar
StartChar: plus
Encoding: 43 43 43
Width: 1544
Flags: W
LayerCount: 2
Back
Fore
SplineSet
875.700195312 1284 m 1,0,-1
 875.700195312 758 l 1,1,-1
 1349.09960938 758 l 1,2,-1
 1349.09960938 528 l 1,3,-1
 875.700195312 528 l 1,4,-1
 875.700195312 2 l 1,5,-1
 668.700195312 2 l 1,6,-1
 668.700195312 528 l 1,7,-1
 195.299804688 528 l 1,8,-1
 195.299804688 758 l 1,9,-1
 668.700195312 758 l 1,10,-1
 668.700195312 1284 l 1,11,-1
 875.700195312 1284 l 1,0,-1
EndSplineSet
EndChar
StartChar: comma
Encoding: 44 44 44
Width: 641
Flags: W
LayerCount: 2
Back
Fore
SplineSet
-8.501953125 -197 m 1,0,1
 99.7939453125 -113 99.7939453125 -113 162.087890625 -9 c 128,-1,2
 224.380859375 95 224.380859375 95 248.524414062 233 c 2,3,-1
 263.568359375 319 l 1,4,-1
 520.068359375 319 l 1,5,-1
 518.668945312 311 l 2,6,7
 480.006835938 90 480.006835938 90 368.853515625 -69.5 c 128,-1,8
 257.700195312 -229 257.700195312 -229 65.83203125 -338 c 1,9,-1
 -8.501953125 -197 l 1,0,1
EndSplineSet
EndChar
StartChar: hyphen
Encoding: 45 45 45
Width: 765
Flags: W
LayerCount: 2
Back
Fore
SplineSet
123.516601562 684 m 1,0,-1
 688.716796875 684 l 1,1,-1
 641.483398438 414 l 1,2,-1
 76.283203125 414 l 1,3,-1
 123.516601562 684 l 1,0,-1
EndSplineSet
EndChar
StartChar: period
Encoding: 46 46 46
Width: 641
Flags: W
LayerCount: 2
Back
Fore
SplineSet
149.48828125 162 m 0,0,1
 163.1328125 240 163.1328125 240 223.330078125 296 c 128,-1,2
 283.526367188 352 283.526367188 352 353.7265625 352 c 0,3,4
 424.826171875 352 424.826171875 352 465.430664062 296 c 128,-1,5
 506.033203125 240 506.033203125 240 492.388671875 162 c 0,6,7
 478.567382812 83 478.567382812 83 418.369140625 27 c 128,-1,8
 358.173828125 -29 358.173828125 -29 287.07421875 -29 c 0,9,10
 216.874023438 -29 216.874023438 -29 176.26953125 27 c 128,-1,11
 135.666992188 83 135.666992188 83 149.48828125 162 c 0,0,1
EndSplineSet
EndChar
StartChar: slash
Encoding: 47 47 47
Width: 673
Flags: W
LayerCount: 2
Back
Fore
SplineSet
620.614257812 1493 m 1,0,-1
 820.4140625 1493 l 1,1,-1
 51.685546875 -190 l 1,2,-1
 -147.213867188 -190 l 1,3,-1
 620.614257812 1493 l 1,0,-1
EndSplineSet
EndChar
StartChar: zero
Encoding: 48 48 48
Width: 1282
Flags: W
LayerCount: 2
Back
Fore
SplineSet
526.67578125 88 m 0,0,1
 634.67578125 88 634.67578125 88 693.794921875 197 c 128,-1,2
 752.913085938 306 752.913085938 306 829.711914062 745 c 0,3,4
 905.985351562 1181 905.985351562 1181 885.356445312 1292 c 128,-1,5
 864.724609375 1403 864.724609375 1403 756.724609375 1403 c 0,6,7
 648.724609375 1403 648.724609375 1403 589.60546875 1294 c 128,-1,8
 530.487304688 1185 530.487304688 1185 453.51171875 745 c 0,9,10
 376.712890625 306 376.712890625 306 397.694335938 197 c 128,-1,11
 418.67578125 88 418.67578125 88 526.67578125 88 c 0,0,1
506.20703125 -29 m 0,12,13
 237.106445312 -29 237.106445312 -29 128.908203125 170.5 c 128,-1,14
 20.708984375 370 20.708984375 370 86.3125 745 c 0,15,16
 151.916015625 1120 151.916015625 1120 330.004882812 1320 c 128,-1,17
 508.092773438 1520 508.092773438 1520 777.193359375 1520 c 0,18,19
 1045.39453125 1520 1045.39453125 1520 1153.50292969 1320 c 128,-1,20
 1261.62011719 1120 1261.62011719 1120 1196.00976562 745 c 0,21,22
 1130.40917969 370 1130.40917969 370 952.407226562 170.5 c 128,-1,23
 774.407226562 -29 774.407226562 -29 506.20703125 -29 c 0,12,13
EndSplineSet
EndChar
StartChar: one
Encoding: 49 49 49
Width: 1282
Flags: W
LayerCount: 2
Back
Fore
SplineSet
119.944335938 0 m 1,0,-1
 141.112304688 121 l 1,1,-1
 393.112304688 121 l 1,2,-1
 604.442382812 1329 l 1,3,-1
 292.352539062 1145 l 1,4,-1
 318.418945312 1294 l 1,5,-1
 695.456054688 1520 l 1,6,-1
 978.95703125 1520 l 1,7,-1
 734.211914062 121 l 1,8,-1
 987.111328125 121 l 1,9,-1
 965.943359375 0 l 1,10,-1
 119.944335938 0 l 1,0,-1
EndSplineSet
EndChar
StartChar: two
Encoding: 50 50 50
Width: 1282
Flags: W
LayerCount: 2
Back
Fore
SplineSet
306.6796875 1124 m 1,0,-1
 198.6796875 1124 l 1,1,-1
 255.010742188 1446 l 1,2,3
 371.283203125 1483 371.283203125 1483 482.069335938 1501.5 c 128,-1,4
 592.856445312 1520 592.856445312 1520 702.65625 1520 c 0,5,6
 959.157226562 1520 959.157226562 1520 1082.32226562 1403.5 c 128,-1,7
 1205.49609375 1287 1205.49609375 1287 1169.109375 1079 c 0,8,9
 1143.21582031 931 1143.21582031 931 1043.45996094 813.5 c 128,-1,10
 943.704101562 696 943.704101562 696 692.338867188 535 c 1,11,-1
 270.177734375 262 l 1,12,-1
 906.48046875 262 l 1,13,-1
 937.268554688 438 l 1,14,-1
 1060.56933594 438 l 1,15,-1
 983.943359375 0 l 1,16,-1
 -9.65625 0 l 1,17,-1
 33.0302734375 244 l 1,18,-1
 258.696289062 397 l 2,19,20
 547.509765625 592 547.509765625 592 656.077148438 729 c 128,-1,21
 764.643554688 866 764.643554688 866 796.658203125 1049 c 0,22,23
 826.923828125 1222 826.923828125 1222 778.40625 1312.5 c 128,-1,24
 729.887695312 1403 729.887695312 1403 606.586914062 1403 c 0,25,26
 500.387695312 1403 500.387695312 1403 423.979492188 1331.5 c 128,-1,27
 347.571289062 1260 347.571289062 1260 306.6796875 1124 c 1,0,-1
EndSplineSet
EndChar
StartChar: three
Encoding: 51 51 51
Width: 1282
Flags: W
LayerCount: 2
Back
Fore
SplineSet
281.646484375 1450 m 1,0,1
 406.569335938 1485 406.569335938 1485 521.231445312 1502.5 c 128,-1,2
 635.893554688 1520 635.893554688 1520 742.092773438 1520 c 0,3,4
 985.094726562 1520 985.094726562 1520 1098.26074219 1423.5 c 128,-1,5
 1211.42675781 1327 1211.42675781 1327 1179.93554688 1147 c 0,6,7
 1156.3203125 1012 1156.3203125 1012 1066.92285156 928 c 128,-1,8
 977.53515625 844 977.53515625 844 828.458984375 815 c 1,9,10
 998.532226562 784 998.532226562 784 1067.09375 682 c 128,-1,11
 1135.64746094 580 1135.64746094 580 1104.67773438 403 c 0,12,13
 1068.12011719 194 1068.12011719 194 899.663085938 82.5 c 128,-1,14
 731.20703125 -29 731.20703125 -29 448.606445312 -29 c 0,15,16
 342.407226562 -29 342.407226562 -29 232.956054688 -9 c 128,-1,17
 123.504882812 11 123.504882812 11 7.203125 51 c 1,18,-1
 64.583984375 379 l 1,19,-1
 173.484375 379 l 1,20,21
 158.541015625 237 158.541015625 237 215.708984375 162.5 c 128,-1,22
 272.875976562 88 272.875976562 88 397.075195312 88 c 0,23,24
 533.875976562 88 533.875976562 88 623.358398438 172.5 c 128,-1,25
 712.840820312 257 712.840820312 257 739.95703125 412 c 0,26,27
 768.297851562 574 768.297851562 574 705.842773438 662 c 128,-1,28
 643.387695312 750 643.387695312 750 500.287109375 750 c 2,29,-1
 440.887695312 750 l 1,30,-1
 461.879882812 870 l 1,31,-1
 508.6796875 870 l 2,32,33
 640.98046875 870 640.98046875 870 719.4765625 938 c 128,-1,34
 797.97265625 1006 797.97265625 1006 821.588867188 1141 c 0,35,36
 843.806640625 1268 843.806640625 1268 793.06640625 1335.5 c 128,-1,37
 742.32421875 1403 742.32421875 1403 625.32421875 1403 c 0,38,39
 519.124023438 1403 519.124023438 1403 445.741210938 1338.5 c 128,-1,40
 372.357421875 1274 372.357421875 1274 338.239257812 1151 c 1,41,-1
 229.338867188 1151 l 1,42,-1
 281.646484375 1450 l 1,0,1
EndSplineSet
EndChar
StartChar: four
Encoding: 52 52 52
Width: 1282
Flags: W
LayerCount: 2
Back
Fore
SplineSet
1043.34277344 0 m 1,0,-1
 303.543945312 0 l 1,1,-1
 324.711914062 121 l 1,2,-1
 524.51171875 121 l 1,3,-1
 572.095703125 393 l 1,4,-1
 11.3955078125 393 l 1,5,-1
 31.5146484375 508 l 1,6,-1
 771.055664062 1520 l 1,7,-1
 1109.45703125 1520 l 1,8,-1
 934.866210938 522 l 1,9,-1
 1165.265625 522 l 1,10,-1
 1142.69433594 393 l 1,11,-1
 912.293945312 393 l 1,12,-1
 864.711914062 121 l 1,13,-1
 1064.51074219 121 l 1,14,-1
 1043.34277344 0 l 1,0,-1
594.663085938 522 m 1,15,-1
 721.497070312 1247 l 1,16,-1
 194.163085938 522 l 1,17,-1
 594.663085938 522 l 1,15,-1
EndSplineSet
EndChar
StartChar: five
Encoding: 53 53 53
Width: 1282
Flags: W
LayerCount: 2
Back
Fore
SplineSet
1172.62792969 1493 m 1,0,-1
 1126.79980469 1231 l 1,1,-1
 407.696289062 1231 l 1,2,-1
 350.315429688 903 l 1,3,4
 418.63671875 954 418.63671875 954 496.084960938 980 c 128,-1,5
 573.534179688 1006 573.534179688 1006 654.534179688 1006 c 0,6,7
 902.93359375 1006 902.93359375 1006 1022.52636719 866.5 c 128,-1,8
 1142.12695312 727 1142.12695312 727 1100.14160156 487 c 0,9,10
 1057.45507812 243 1057.45507812 243 889.662109375 107 c 128,-1,11
 721.868164062 -29 721.868164062 -29 462.66796875 -29 c 0,12,13
 352.868164062 -29 352.868164062 -29 247.91796875 -9 c 128,-1,14
 142.966796875 11 142.966796875 11 32.4140625 53 c 1,15,-1
 89.4453125 379 l 1,16,-1
 197.4453125 379 l 1,17,18
 177.12890625 232 177.12890625 232 227.982421875 160 c 128,-1,19
 278.836914062 88 278.836914062 88 403.037109375 88 c 0,20,21
 535.336914062 88 535.336914062 88 616.469726562 186.5 c 128,-1,22
 697.600585938 285 697.600585938 285 732.939453125 487 c 0,23,24
 767.752929688 686 767.752929688 686 722.434570312 784.5 c 128,-1,25
 677.1171875 883 677.1171875 883 550.216796875 883 c 0,26,27
 481.81640625 883 481.81640625 883 422.755859375 851.5 c 128,-1,28
 363.694335938 820 363.694335938 820 306.248046875 754 c 1,29,-1
 216.248046875 754 l 1,30,-1
 345.53125 1493 l 1,31,-1
 1172.62792969 1493 l 1,0,-1
EndSplineSet
EndChar
StartChar: six
Encoding: 54 54 54
Width: 1282
Flags: W
LayerCount: 2
Back
Fore
SplineSet
478.004882812 885 m 1,0,1
 545.6015625 937 545.6015625 937 622.599609375 963 c 128,-1,2
 699.598632812 989 699.598632812 989 785.098632812 989 c 0,3,4
 991.197265625 989 991.197265625 989 1085.20214844 855 c 128,-1,5
 1179.21582031 721 1179.21582031 721 1138.27539062 487 c 0,6,7
 1095.06640625 240 1095.06640625 240 939.240234375 105.5 c 128,-1,8
 783.407226562 -29 783.407226562 -29 539.506835938 -29 c 0,9,10
 264.106445312 -29 264.106445312 -29 154.633789062 155.5 c 128,-1,11
 45.1611328125 340 45.1611328125 340 107.790039062 698 c 0,12,13
 178.9921875 1105 178.9921875 1105 372.79296875 1312.5 c 128,-1,14
 566.592773438 1520 566.592773438 1520 876.193359375 1520 c 0,15,16
 957.1953125 1520 957.1953125 1520 1047.26660156 1505 c 128,-1,17
 1137.34765625 1490 1137.34765625 1490 1238.29199219 1460 c 1,18,-1
 1192.11328125 1196 l 1,19,-1
 1083.21289062 1196 l 1,20,21
 1078.55957031 1298 1078.55957031 1298 1025.19042969 1350.5 c 128,-1,22
 971.8203125 1403 971.8203125 1403 872.82421875 1403 c 0,23,24
 712.624023438 1403 712.624023438 1403 619.731445312 1281 c 128,-1,25
 526.838867188 1159 526.838867188 1159 478.004882812 885 c 1,0,1
539.275390625 88 m 0,26,27
 631.975585938 88 631.975585938 88 686.8828125 175.5 c 128,-1,28
 741.791015625 263 741.791015625 263 779.577148438 479 c 0,29,30
 817.365234375 695 817.365234375 695 793.073242188 782.5 c 128,-1,31
 768.780273438 870 768.780273438 870 676.080078125 870 c 0,32,33
 583.379882812 870 583.379882812 870 528.922851562 782.5 c 128,-1,34
 474.465820312 695 474.465820312 695 436.677734375 479 c 0,35,36
 398.890625 263 398.890625 263 422.732421875 175.5 c 128,-1,37
 446.575195312 88 446.575195312 88 539.275390625 88 c 0,26,27
EndSplineSet
EndChar
StartChar: seven
Encoding: 55 55 55
Width: 1282
Flags: W
LayerCount: 2
Back
Fore
SplineSet
1215.65722656 1239 m 1,0,-1
 444.506835938 0 l 1,1,-1
 261.806640625 0 l 1,2,-1
 1013.49023438 1210 l 1,3,-1
 350.186523438 1210 l 1,4,-1
 314.846679688 1008 l 1,5,-1
 191.546875 1008 l 1,6,-1
 276.393554688 1493 l 1,7,-1
 1260.08984375 1493 l 1,8,-1
 1215.65722656 1239 l 1,0,-1
EndSplineSet
EndChar
StartChar: eight
Encoding: 56 56 56
Width: 1282
Flags: W
LayerCount: 2
Back
Fore
SplineSet
865.459960938 795 m 1,0,1
 1020.58203125 766 1020.58203125 766 1085.99414062 664 c 128,-1,2
 1151.39746094 562 1151.39746094 562 1122.53417969 397 c 0,3,4
 1086.49804688 191 1086.49804688 191 927.296875 81 c 128,-1,5
 768.106445312 -29 768.106445312 -29 504.407226562 -29 c 0,6,7
 240.70703125 -29 240.70703125 -29 119.55078125 81 c 128,-1,8
 -1.60546875 191 -1.60546875 191 34.4326171875 397 c 0,9,10
 63.2978515625 562 63.2978515625 562 164.841796875 664 c 128,-1,11
 266.385742188 766 266.385742188 766 430.759765625 795 c 1,12,13
 295.756835938 831 295.756835938 831 240.340820312 915.5 c 128,-1,14
 184.922851562 1000 184.922851562 1000 207.665039062 1130 c 0,15,16
 240.905273438 1320 240.905273438 1320 386.198242188 1420 c 128,-1,17
 531.493164062 1520 531.493164062 1520 775.393554688 1520 c 0,18,19
 1018.39453125 1520 1018.39453125 1520 1129.14941406 1420 c 128,-1,20
 1239.90332031 1320 1239.90332031 1320 1206.66601562 1130 c 0,21,22
 1183.92285156 1000 1183.92285156 1000 1098.48632812 915.5 c 128,-1,23
 1013.05761719 831 1013.05761719 831 865.459960938 795 c 1,0,1
857.666015625 1126 m 0,24,25
 885.306640625 1284 885.306640625 1284 861.514648438 1343.5 c 128,-1,26
 837.724609375 1403 837.724609375 1403 754.924804688 1403 c 0,27,28
 671.224609375 1403 671.224609375 1403 627.065429688 1343.5 c 128,-1,29
 582.90625 1284 582.90625 1284 555.265625 1126 c 0,30,31
 527.799804688 969 527.799804688 969 551.314453125 910.5 c 128,-1,32
 574.831054688 852 574.831054688 852 658.53125 852 c 0,33,34
 742.23046875 852 742.23046875 852 786.21484375 910.5 c 128,-1,35
 830.19921875 969 830.19921875 969 857.666015625 1126 c 0,24,25
768.206054688 414 m 0,36,37
 800.221679688 597 800.221679688 597 770.442382812 666 c 128,-1,38
 740.663085938 735 740.663085938 735 638.063476562 735 c 0,39,40
 534.563476562 735 534.563476562 735 481.092773438 666 c 128,-1,41
 427.62109375 597 427.62109375 597 395.60546875 414 c 0,42,43
 363.243164062 229 363.243164062 229 392.7578125 158.5 c 128,-1,44
 422.275390625 88 422.275390625 88 524.875976562 88 c 0,45,46
 626.575195312 88 626.575195312 88 681.208007812 158.5 c 128,-1,47
 735.842773438 229 735.842773438 229 768.206054688 414 c 0,36,37
EndSplineSet
EndChar
StartChar: nine
Encoding: 57 57 57
Width: 1282
Flags: W
LayerCount: 2
Back
Fore
SplineSet
743.224609375 1403 m 0,0,1
 650.524414062 1403 650.524414062 1403 596.067382812 1315.5 c 128,-1,2
 541.609375 1228 541.609375 1228 503.822265625 1012 c 0,3,4
 466.034179688 796 466.034179688 796 489.876953125 708.5 c 128,-1,5
 513.719726562 621 513.719726562 621 606.419921875 621 c 0,6,7
 699.120117188 621 699.120117188 621 754.02734375 708.5 c 128,-1,8
 808.934570312 796 808.934570312 796 846.72265625 1012 c 0,9,10
 884.508789062 1228 884.508789062 1228 860.217773438 1315.5 c 128,-1,11
 835.924804688 1403 835.924804688 1403 743.224609375 1403 c 0,0,1
804.844726562 608 m 1,12,13
 736.173828125 555 736.173828125 555 659.086914062 528.5 c 128,-1,14
 582.000976562 502 582.000976562 502 497.401367188 502 c 0,15,16
 292.201171875 502 292.201171875 502 198.106445312 635.5 c 128,-1,17
 104.010742188 769 104.010742188 769 145.122070312 1004 c 0,18,19
 188.508789062 1252 188.508789062 1252 343.350585938 1386 c 128,-1,20
 498.193359375 1520 498.193359375 1520 742.092773438 1520 c 0,21,22
 1017.49511719 1520 1017.49511719 1520 1127.33105469 1335 c 128,-1,23
 1237.16699219 1150 1237.16699219 1150 1174.70703125 793 c 0,24,25
 1103.5078125 386 1103.5078125 386 909.7109375 178.5 c 128,-1,26
 715.907226562 -29 715.907226562 -29 406.306640625 -29 c 0,27,28
 325.306640625 -29 325.306640625 -29 235.231445312 -14 c 128,-1,29
 145.155273438 1 145.155273438 1 44.2041015625 31 c 1,30,-1
 90.388671875 295 l 1,31,-1
 199.2890625 295 l 1,32,33
 203.943359375 193 203.943359375 193 257.309570312 140.5 c 128,-1,34
 310.67578125 88 310.67578125 88 410.575195312 88 c 0,35,36
 568.975585938 88 568.975585938 88 662.40625 210.5 c 128,-1,37
 755.8359375 333 755.8359375 333 804.844726562 608 c 1,12,13
EndSplineSet
EndChar
StartChar: colon
Encoding: 58 58 58
Width: 680
Flags: W
LayerCount: 2
Back
Fore
SplineSet
226.143554688 813 m 0,0,1
 239.963867188 892 239.963867188 892 299.7109375 948 c 128,-1,2
 359.45703125 1004 359.45703125 1004 429.657226562 1004 c 0,3,4
 499.857421875 1004 499.857421875 1004 540.373046875 947.5 c 128,-1,5
 580.889648438 891 580.889648438 891 567.244140625 813 c 0,6,7
 553.59765625 735 553.59765625 735 494.026367188 680 c 128,-1,8
 434.455078125 625 434.455078125 625 363.35546875 625 c 0,9,10
 292.254882812 625 292.254882812 625 252.375976562 680 c 128,-1,11
 212.498046875 735 212.498046875 735 226.143554688 813 c 0,0,1
112.255859375 162 m 0,12,13
 125.90234375 240 125.90234375 240 185.6484375 296 c 128,-1,14
 245.39453125 352 245.39453125 352 315.594726562 352 c 0,15,16
 385.794921875 352 385.794921875 352 426.3984375 296 c 128,-1,17
 467.001953125 240 467.001953125 240 453.356445312 162 c 0,18,19
 439.536132812 83 439.536132812 83 379.338867188 27 c 128,-1,20
 319.142578125 -29 319.142578125 -29 248.942382812 -29 c 0,21,22
 178.743164062 -29 178.743164062 -29 138.588867188 27 c 128,-1,23
 98.435546875 83 98.435546875 83 112.255859375 162 c 0,12,13
EndSplineSet
EndChar
StartChar: semicolon
Encoding: 59 59 59
Width: 680
Flags: W
LayerCount: 2
Back
Fore
SplineSet
252.47265625 813 m 0,0,1
 266.29296875 892 266.29296875 892 326.040039062 948 c 128,-1,2
 385.786132812 1004 385.786132812 1004 455.986328125 1004 c 0,3,4
 526.185546875 1004 526.185546875 1004 566.702148438 947.5 c 128,-1,5
 607.21875 891 607.21875 891 593.572265625 813 c 0,6,7
 579.926757812 735 579.926757812 735 520.35546875 680 c 128,-1,8
 460.783203125 625 460.783203125 625 389.682617188 625 c 0,9,10
 318.583007812 625 318.583007812 625 278.706054688 680 c 128,-1,11
 238.827148438 735 238.827148438 735 252.47265625 813 c 0,0,1
-44.14453125 -188 m 1,12,13
 64.8759765625 -105 64.8759765625 -105 127.08203125 -1.5 c 128,-1,14
 189.288085938 102 189.288085938 102 213.431640625 240 c 2,15,-1
 228.826171875 328 l 1,16,-1
 485.326171875 328 l 1,17,18
 445.963867188 103 445.963867188 103 333.922851562 -59 c 128,-1,19
 221.8828125 -221 221.8828125 -221 30.9140625 -330 c 1,20,-1
 -44.14453125 -188 l 1,12,13
EndSplineSet
EndChar
StartChar: less
Encoding: 60 60 60
Width: 1544
Flags: W
LayerCount: 2
Back
Fore
SplineSet
1349.09960938 979 m 1,0,-1
 468 641 l 1,1,-1
 1349.09960938 305 l 1,2,-1
 1349.09960938 66 l 1,3,-1
 195.299804688 530 l 1,4,-1
 195.299804688 756 l 1,5,-1
 1349.09960938 1219 l 1,6,-1
 1349.09960938 979 l 1,0,-1
EndSplineSet
EndChar
StartChar: equal
Encoding: 61 61 61
Width: 1544
Flags: W
LayerCount: 2
Back
Fore
SplineSet
195.299804688 528 m 1,0,-1
 1349.09960938 528 l 1,1,-1
 1349.09960938 301 l 1,2,-1
 195.299804688 301 l 1,3,-1
 195.299804688 528 l 1,0,-1
195.299804688 983 m 1,4,-1
 1349.09960938 983 l 1,5,-1
 1349.09960938 756 l 1,6,-1
 195.299804688 756 l 1,7,-1
 195.299804688 983 l 1,4,-1
EndSplineSet
EndChar
StartChar: greater
Encoding: 62 62 62
Width: 1544
Flags: W
LayerCount: 2
Back
Fore
SplineSet
195.299804688 979 m 1,0,-1
 195.299804688 1219 l 1,1,-1
 1349.09960938 756 l 1,2,-1
 1349.09960938 530 l 1,3,-1
 195.299804688 66 l 1,4,-1
 195.299804688 305 l 1,5,-1
 1076.40039062 641 l 1,6,-1
 195.299804688 979 l 1,0,-1
EndSplineSet
EndChar
StartChar: question
Encoding: 63 63 63
Width: 1080
Flags: W
LayerCount: 2
Back
Fore
SplineSet
205.720703125 162 m 0,0,1
 219.3671875 240 219.3671875 240 279.563476562 296 c 128,-1,2
 339.760742188 352 339.760742188 352 409.9609375 352 c 0,3,4
 481.060546875 352 481.060546875 352 521.663085938 296 c 128,-1,5
 562.266601562 240 562.266601562 240 548.62109375 162 c 0,6,7
 534.80078125 83 534.80078125 83 474.604492188 27 c 128,-1,8
 414.407226562 -29 414.407226562 -29 343.306640625 -29 c 0,9,10
 273.106445312 -29 273.106445312 -29 232.50390625 27 c 128,-1,11
 191.900390625 83 191.900390625 83 205.720703125 162 c 0,0,1
243.296875 1452 m 1,12,13
 360.84375 1486 360.84375 1486 464.619140625 1503 c 128,-1,14
 568.393554688 1520 568.393554688 1520 662.893554688 1520 c 0,15,16
 889.693359375 1520 889.693359375 1520 991.86328125 1409.5 c 128,-1,17
 1094.03125 1299 1094.03125 1299 1058.16601562 1094 c 0,18,19
 1022.83203125 892 1022.83203125 892 884.998046875 775.5 c 128,-1,20
 747.16796875 659 747.16796875 659 523.51953125 641 c 1,21,-1
 487.655273438 436 l 1,22,-1
 362.5546875 436 l 1,23,-1
 414.86328125 735 l 1,24,25
 548.385742188 778 548.385742188 778 622.98046875 870 c 128,-1,26
 697.57421875 962 697.57421875 962 724.516601562 1116 c 0,27,28
 749.708007812 1260 749.708007812 1260 707.666015625 1333.5 c 128,-1,29
 665.625 1407 665.625 1407 558.524414062 1407 c 0,30,31
 459.524414062 1407 459.524414062 1407 394.428710938 1341 c 128,-1,32
 329.33203125 1275 329.33203125 1275 298.489257812 1145 c 1,33,-1
 189.58984375 1145 l 1,34,-1
 243.296875 1452 l 1,12,13
EndSplineSet
EndChar
StartChar: at
Encoding: 64 64 64
Width: 1843
Flags: W
LayerCount: 2
Back
Fore
SplineSet
1138.14941406 504 m 2,0,-1
 1151.45117188 580 l 2,1,2
 1174.01367188 709 1174.01367188 709 1131.94824219 787.5 c 128,-1,3
 1089.88183594 866 1089.88183594 866 998.982421875 866 c 0,4,5
 909.881835938 866 909.881835938 866 840.124023438 778.5 c 128,-1,6
 770.3671875 691 770.3671875 691 744.474609375 543 c 0,7,8
 718.583007812 395 718.583007812 395 757.637695312 307 c 128,-1,9
 796.693359375 219 796.693359375 219 885.793945312 219 c 0,10,11
 976.689453125 219 976.689453125 219 1046.05175781 296.5 c 128,-1,12
 1115.40625 374 1115.40625 374 1138.14941406 504 c 2,0,-1
1091.96972656 240 m 1,13,14
 1039.76953125 168 1039.76953125 168 968.778320312 130 c 128,-1,15
 897.776367188 92 897.776367188 92 816.776367188 92 c 0,16,17
 644.875976562 92 644.875976562 92 567.768554688 212 c 128,-1,18
 490.662109375 332 490.662109375 332 527.57421875 543 c 0,19,20
 564.48828125 754 564.48828125 754 683.494140625 873.5 c 128,-1,21
 802.499023438 993 802.499023438 993 974.403320312 993 c 0,22,23
 1055.40332031 993 1055.40332031 993 1113.1015625 955 c 128,-1,24
 1170.80078125 917 1170.80078125 917 1197.98144531 846 c 1,25,-1
 1219.85058594 971 l 1,26,-1
 1416.95117188 971 l 1,27,-1
 1287.14355469 229 l 1,28,29
 1422.66601562 268 1422.66601562 268 1513.33203125 385 c 128,-1,30
 1603.99804688 502 1603.99804688 502 1634.79589844 678 c 0,31,32
 1659.80664062 821 1659.80664062 821 1630.7734375 938 c 128,-1,33
 1601.74804688 1055 1601.74804688 1055 1516.84179688 1151 c 0,34,35
 1447.68554688 1229 1447.68554688 1229 1343.4296875 1271 c 128,-1,36
 1239.18261719 1313 1239.18261719 1313 1113.18261719 1313 c 0,37,38
 996.182617188 1313 996.182617188 1313 888.356445312 1278 c 128,-1,39
 780.53515625 1243 780.53515625 1243 683.864257812 1174 c 0,40,41
 537.51953125 1068 537.51953125 1068 439.978515625 904 c 128,-1,42
 342.438476562 740 342.438476562 740 307.974609375 543 c 0,43,44
 280.858398438 388 280.858398438 388 300.454101562 250.5 c 128,-1,45
 320.049804688 113 320.049804688 113 382.481445312 12 c 0,46,47
 457.962890625 -107 457.962890625 -107 572.840820312 -168 c 128,-1,48
 687.719726562 -229 687.719726562 -229 834.419921875 -229 c 0,49,50
 944.216796875 -229 944.216796875 -229 1052.765625 -195 c 128,-1,51
 1161.31542969 -161 1161.31542969 -161 1265.73339844 -94 c 1,52,-1
 1300.58984375 -188 l 1,53,54
 1170.69335938 -272 1170.69335938 -272 1038.69921875 -314 c 128,-1,55
 906.705078125 -356 906.705078125 -356 777.1015625 -356 c 0,56,57
 602.500976562 -356 602.500976562 -356 467.72265625 -293 c 128,-1,58
 332.944335938 -230 332.944335938 -230 240.6875 -104 c 0,59,60
 148.979492188 20 148.979492188 20 118.532226562 185.5 c 128,-1,61
 88.0859375 351 88.0859375 351 121.674804688 543 c 0,62,63
 155.264648438 735 155.264648438 735 243.529296875 900 c 128,-1,64
 331.794921875 1065 331.794921875 1065 467.0625 1190 c 0,65,66
 604.3046875 1316 604.3046875 1316 762.301757812 1378 c 128,-1,67
 920.294921875 1440 920.294921875 1440 1104.79492188 1440 c 0,68,69
 1264.99511719 1440 1264.99511719 1440 1387.91699219 1391.5 c 128,-1,70
 1510.83007812 1343 1510.83007812 1343 1597.18457031 1245 c 1,71,72
 1697.46289062 1134 1697.46289062 1134 1732.0234375 992 c 128,-1,73
 1766.58300781 850 1766.58300781 850 1736.14453125 676 c 0,74,75
 1687.86035156 400 1687.86035156 400 1518.71386719 246 c 128,-1,76
 1349.57714844 92 1349.57714844 92 1093.9765625 92 c 2,77,-1
 1066.07714844 92 l 1,78,-1
 1091.96972656 240 l 1,13,14
EndSplineSet
EndChar
StartChar: A
Encoding: 65 65 65
Width: 1430
Flags: W
AnchorPoint: "below" 564.206 0 basechar 0
AnchorPoint: "above" 838.35 1465 basechar 0
LayerCount: 2
Back
Fore
SplineSet
-144.993164062 0 m 1,0,-1
 -123.826171875 121 l 1,1,-1
 -14.0263671875 121 l 1,2,-1
 731.793945312 1493 l 1,3,-1
 946.889648438 1493 l 1,4,-1
 1213.578125 121 l 1,5,-1
 1341.37792969 121 l 1,6,-1
 1320.20996094 0 l 1,7,-1
 691.106445312 0 l 1,8,-1
 712.2734375 121 l 1,9,-1
 843.673828125 121 l 1,10,-1
 786.331054688 426 l 1,11,-1
 281.430664062 426 l 1,12,-1
 115.573242188 121 l 1,13,-1
 275.7734375 121 l 1,14,-1
 254.606445312 0 l 1,15,-1
 -144.993164062 0 l 1,0,-1
346.69921875 547 m 1,16,-1
 763.3984375 547 l 1,17,-1
 656.291015625 1118 l 1,18,-1
 346.69921875 547 l 1,16,-1
EndSplineSet
EndChar
StartChar: B
Encoding: 66 66 66
Width: 1557
Flags: W
AnchorPoint: "above" 904.194 1465 basechar 0
AnchorPoint: "below" 647.906 0 basechar 0
LayerCount: 2
Back
Fore
SplineSet
-44.1943359375 0 m 1,0,-1
 -23.0263671875 121 l 1,1,-1
 148.873046875 121 l 1,2,-1
 367.7265625 1372 l 1,3,-1
 195.826171875 1372 l 1,4,-1
 216.993164062 1493 l 1,5,-1
 1013.49023438 1493 l 2,6,7
 1259.19042969 1493 1259.19042969 1493 1366.3984375 1401 c 128,-1,8
 1473.60644531 1309 1473.60644531 1309 1441.2421875 1124 c 0,9,10
 1417.9765625 991 1417.9765625 991 1319.27441406 913 c 128,-1,11
 1220.58007812 835 1220.58007812 835 1049.68847656 815 c 1,12,13
 1248.50683594 794 1248.50683594 794 1339.19140625 695 c 128,-1,14
 1429.875 596 1429.875 596 1401.18261719 432 c 0,15,16
 1362.33886719 210 1362.33886719 210 1193.21972656 105 c 128,-1,17
 1024.11035156 0 1024.11035156 0 702.806640625 0 c 2,18,-1
 -44.1943359375 0 l 1,0,-1
626.405273438 870 m 1,19,-1
 744.305664062 870 l 2,20,21
 899.10546875 870 899.10546875 870 984.735351562 932.5 c 128,-1,22
 1070.37011719 995 1070.37011719 995 1092.94238281 1124 c 0,23,24
 1115.68457031 1254 1115.68457031 1254 1053.55761719 1313 c 128,-1,25
 991.421875 1372 991.421875 1372 832.126953125 1372 c 2,26,-1
 714.2265625 1372 l 1,27,-1
 626.405273438 870 l 1,19,-1
495.373046875 121 m 1,28,-1
 624.073242188 121 l 2,29,30
 795.973632812 121 795.973632812 121 892.069335938 197 c 128,-1,31
 988.1640625 273 988.1640625 273 1015.98339844 432 c 0,32,33
 1043.97265625 592 1043.97265625 592 974.087890625 671 c 128,-1,34
 904.211914062 750 904.211914062 750 734.11328125 750 c 2,35,-1
 605.413085938 750 l 1,36,-1
 495.373046875 121 l 1,28,-1
EndSplineSet
EndChar
StartChar: C
Encoding: 67 67 67
Width: 1467
Flags: W
AnchorPoint: "below" 669.681 0 basechar 0
AnchorPoint: "above" 943.65 1465 basechar 0
LayerCount: 2
Back
Fore
SplineSet
1317.50976562 426 m 1,0,1
 1223.99121094 195 1223.99121094 195 1066.69824219 83 c 128,-1,2
 909.405273438 -29 909.405273438 -29 677.20703125 -29 c 0,3,4
 337.006835938 -29 337.006835938 -29 175.931640625 179.5 c 128,-1,5
 14.8583984375 388 14.8583984375 388 77.3125 745 c 0,6,7
 139.942382812 1103 139.942382812 1103 373.967773438 1311.5 c 128,-1,8
 607.993164062 1520 607.993164062 1520 948.1953125 1520 c 0,9,10
 1067.89453125 1520 1067.89453125 1520 1191.89746094 1488 c 128,-1,11
 1315.89941406 1456 1315.89941406 1456 1449.42285156 1391 c 1,12,-1
 1385.21679688 1024 l 1,13,-1
 1270.91699219 1024 l 1,14,15
 1268.71191406 1212 1268.71191406 1212 1192.36523438 1305.5 c 128,-1,16
 1116.02734375 1399 1116.02734375 1399 963.926757812 1399 c 0,17,18
 767.724609375 1399 767.724609375 1399 644.24609375 1238.5 c 128,-1,19
 520.768554688 1078 520.768554688 1078 462.51171875 745 c 128,-1,20
 404.256835938 412 404.256835938 412 471.666015625 252 c 128,-1,21
 539.076171875 92 539.076171875 92 737.076171875 92 c 0,22,23
 871.17578125 92 871.17578125 92 970.749023438 175 c 128,-1,24
 1070.31640625 258 1070.31640625 258 1138.41015625 426 c 1,25,-1
 1317.50976562 426 l 1,0,1
EndSplineSet
EndChar
StartChar: D
Encoding: 68 68 68
Width: 1598
Flags: W
AnchorPoint: "below" 647.906 0 basechar 0
AnchorPoint: "above" 922.05 1465 basechar 0
LayerCount: 2
Back
Fore
SplineSet
495.373046875 121 m 1,0,-1
 620.473632812 121 l 2,1,2
 831.073242188 121 831.073242188 121 954.962890625 271 c 0,3,4
 1078.85742188 421 1078.85742188 421 1136.06054688 748 c 0,5,6
 1192.9140625 1073 1192.9140625 1073 1121.87695312 1222.5 c 0,7,8
 1050.82226562 1372 1050.82226562 1372 839.326171875 1372 c 2,9,-1
 714.2265625 1372 l 1,10,-1
 495.373046875 121 l 1,0,-1
-44.1943359375 0 m 1,11,-1
 -23.0263671875 121 l 1,12,-1
 148.873046875 121 l 1,13,-1
 367.7265625 1372 l 1,14,-1
 195.826171875 1372 l 1,15,-1
 216.993164062 1493 l 1,16,-1
 906.389648438 1493 l 2,17,18
 1268.19042969 1493 1268.19042969 1493 1426.30175781 1301 c 0,19,20
 1584.4140625 1109 1584.4140625 1109 1521.26074219 748 c 0,21,22
 1457.75683594 385 1457.75683594 385 1231.92871094 192.5 c 0,23,24
 1006.11035156 0 1006.11035156 0 645.206054688 0 c 2,25,-1
 -44.1943359375 0 l 1,11,-1
EndSplineSet
EndChar
StartChar: E
Encoding: 69 69 69
Width: 1404
Flags: W
AnchorPoint: "below" 602.906 0 basechar 0
AnchorPoint: "above" 877.05 1465 basechar 0
LayerCount: 2
Back
Fore
SplineSet
-44.1943359375 0 m 1,0,-1
 -23.0263671875 121 l 1,1,-1
 148.873046875 121 l 1,2,-1
 367.7265625 1372 l 1,3,-1
 195.826171875 1372 l 1,4,-1
 216.993164062 1493 l 1,5,-1
 1424.79003906 1493 l 1,6,-1
 1363.21191406 1141 l 1,7,-1
 1239.01171875 1141 l 1,8,-1
 1276.62304688 1356 l 1,9,-1
 711.427734375 1356 l 1,10,-1
 627.629882812 877 l 1,11,-1
 979.533203125 877 l 1,12,-1
 1012.76953125 1067 l 1,13,-1
 1136.0703125 1067 l 1,14,-1
 1045.79980469 551 l 1,15,-1
 922.5 551 l 1,16,-1
 955.737304688 741 l 1,17,-1
 603.837890625 741 l 1,18,-1
 498.172851562 137 l 1,19,-1
 1080.4765625 137 l 1,20,-1
 1118.08789062 352 l 1,21,-1
 1241.38769531 352 l 1,22,-1
 1179.80957031 0 l 1,23,-1
 -44.1943359375 0 l 1,0,-1
EndSplineSet
EndChar
StartChar: F
Encoding: 70 70 70
Width: 1308
Flags: W
AnchorPoint: "above" 850.195 1465 basechar 0
AnchorPoint: "below" 300.507 0 basechar 0
LayerCount: 2
Back
Fore
SplineSet
-44.1943359375 0 m 1,0,-1
 -23.0263671875 121 l 1,1,-1
 148.873046875 121 l 1,2,-1
 367.7265625 1372 l 1,3,-1
 195.826171875 1372 l 1,4,-1
 216.993164062 1493 l 1,5,-1
 1414.88964844 1493 l 1,6,-1
 1353.31152344 1141 l 1,7,-1
 1230.01171875 1141 l 1,8,-1
 1267.62304688 1356 l 1,9,-1
 713.227539062 1356 l 1,10,-1
 629.4296875 877 l 1,11,-1
 970.533203125 877 l 1,12,-1
 1003.76953125 1067 l 1,13,-1
 1127.0703125 1067 l 1,14,-1
 1036.79980469 551 l 1,15,-1
 913.5 551 l 1,16,-1
 946.737304688 741 l 1,17,-1
 605.637695312 741 l 1,18,-1
 497.173828125 121 l 1,19,-1
 708.673828125 121 l 1,20,-1
 687.506835938 0 l 1,21,-1
 -44.1943359375 0 l 1,0,-1
EndSplineSet
EndChar
StartChar: G
Encoding: 71 71 71
Width: 1574
Flags: W
AnchorPoint: "below" 687.681 0 basechar 0
AnchorPoint: "above" 961.65 1465 basechar 0
LayerCount: 2
Back
Fore
SplineSet
1316.81738281 1024 m 1,0,1
 1310.95800781 1222 1310.95800781 1222 1231.94726562 1310.5 c 128,-1,2
 1152.92675781 1399 1152.92675781 1399 981.02734375 1399 c 0,3,4
 772.224609375 1399 772.224609375 1399 647.021484375 1241.5 c 128,-1,5
 521.818359375 1084 521.818359375 1084 462.51171875 745 c 0,6,7
 403.731445312 409 403.731445312 409 469.603515625 250.5 c 128,-1,8
 535.475585938 92 535.475585938 92 733.475585938 92 c 0,9,10
 809.076171875 92 809.076171875 92 877.19921875 111 c 128,-1,11
 945.32421875 130 945.32421875 130 1005.07519531 168 c 1,12,-1
 1076.79589844 578 l 1,13,-1
 914.795898438 578 l 1,14,-1
 935.79296875 698 l 1,15,-1
 1419.99316406 698 l 1,16,-1
 1319.75097656 125 l 1,17,18
 1154.90722656 47 1154.90722656 47 997.505859375 9 c 128,-1,19
 840.106445312 -29 840.106445312 -29 682.606445312 -29 c 0,20,21
 337.006835938 -29 337.006835938 -29 175.669921875 178 c 128,-1,22
 14.3330078125 385 14.3330078125 385 77.3125 745 c 0,23,24
 140.466796875 1106 140.466796875 1106 374.229492188 1313 c 128,-1,25
 607.993164062 1520 607.993164062 1520 953.594726562 1520 c 0,26,27
 1097.59472656 1520 1097.59472656 1520 1231.49707031 1488 c 128,-1,28
 1365.39941406 1456 1365.39941406 1456 1495.32324219 1391 c 1,29,-1
 1431.1171875 1024 l 1,30,-1
 1316.81738281 1024 l 1,0,1
EndSplineSet
EndChar
StartChar: H
Encoding: 72 72 72
Width: 1741
Flags: W
AnchorPoint: "below" 742.5 0 basechar 0
AnchorPoint: "above" 1017 1465 basechar 0
LayerCount: 2
Back
Fore
SplineSet
-44.1943359375 0 m 1,0,-1
 -23.0263671875 121 l 1,1,-1
 148.873046875 121 l 1,2,-1
 367.7265625 1372 l 1,3,-1
 195.826171875 1372 l 1,4,-1
 216.993164062 1493 l 1,5,-1
 908.190429688 1493 l 1,6,-1
 887.026367188 1372 l 1,7,-1
 714.2265625 1372 l 1,8,-1
 626.405273438 870 l 1,9,-1
 1161.00878906 870 l 1,10,-1
 1248.82226562 1372 l 1,11,-1
 1076.921875 1372 l 1,12,-1
 1098.08984375 1493 l 1,13,-1
 1789.29003906 1493 l 1,14,-1
 1768.12207031 1372 l 1,15,-1
 1595.32226562 1372 l 1,16,-1
 1376.47753906 121 l 1,17,-1
 1549.27832031 121 l 1,18,-1
 1528.11035156 0 l 1,19,-1
 836.90625 0 l 1,20,-1
 858.073242188 121 l 1,21,-1
 1029.97753906 121 l 1,22,-1
 1137.04199219 733 l 1,23,-1
 602.438476562 733 l 1,24,-1
 495.373046875 121 l 1,25,-1
 668.173828125 121 l 1,26,-1
 647.006835938 0 l 1,27,-1
 -44.1943359375 0 l 1,0,-1
EndSplineSet
EndChar
StartChar: I
Encoding: 73 73 73
Width: 862
Flags: W
AnchorPoint: "below" 300.507 0 basechar 0
AnchorPoint: "above" 574.65 1465 basechar 0
LayerCount: 2
Back
Fore
SplineSet
-44.1943359375 0 m 1,0,-1
 -23.0263671875 121 l 1,1,-1
 148.873046875 121 l 1,2,-1
 367.7265625 1372 l 1,3,-1
 195.826171875 1372 l 1,4,-1
 216.993164062 1493 l 1,5,-1
 908.190429688 1493 l 1,6,-1
 887.026367188 1372 l 1,7,-1
 714.2265625 1372 l 1,8,-1
 495.373046875 121 l 1,9,-1
 668.173828125 121 l 1,10,-1
 647.006835938 0 l 1,11,-1
 -44.1943359375 0 l 1,0,-1
EndSplineSet
EndChar
StartChar: J
Encoding: 74 74 74
Width: 872
Flags: W
AnchorPoint: "below" 113.144 -430 basechar 0
AnchorPoint: "above" 587.25 1465 basechar 0
LayerCount: 2
Back
Fore
SplineSet
-290.9609375 -358 m 1,0,-1
 -249.848632812 -123 l 1,1,-1
 -132.848632812 -123 l 1,2,3
 -143.89453125 -217 -143.89453125 -217 -116.942382812 -261 c 0,4,5
 -89.9892578125 -305 -89.9892578125 -305 -21.58984375 -305 c 0,6,7
 65.7109375 -305 65.7109375 -305 113.393554688 -230.5 c 0,8,9
 161.077148438 -156 161.077148438 -156 196.939453125 49 c 2,10,-1
 428.389648438 1372 l 1,11,-1
 233.088867188 1372 l 1,12,-1
 254.256835938 1493 l 1,13,-1
 969.758789062 1493 l 1,14,-1
 948.590820312 1372 l 1,15,-1
 776.689453125 1372 l 1,16,-1
 543.840820312 41 l 2,17,18
 501.330078125 -202 501.330078125 -202 371.486328125 -314 c 0,19,20
 241.642578125 -426 241.642578125 -426 1.3427734375 -426 c 0,21,22
 -73.357421875 -426 -73.357421875 -426 -145.982421875 -409 c 0,23,24
 -218.609375 -392 -218.609375 -392 -290.9609375 -358 c 1,0,-1
EndSplineSet
EndChar
StartChar: K
Encoding: 75 75 75
Width: 1602
Flags: W
AnchorPoint: "above" 1046.42 1460 basechar 0
AnchorPoint: "below" 791.007 0 basechar 0
LayerCount: 2
Back
Fore
SplineSet
-44.1943359375 0 m 1,0,-1
 -23.0263671875 121 l 1,1,-1
 148.873046875 121 l 1,2,-1
 367.7265625 1372 l 1,3,-1
 195.826171875 1372 l 1,4,-1
 216.993164062 1493 l 1,5,-1
 908.190429688 1493 l 1,6,-1
 887.026367188 1372 l 1,7,-1
 714.2265625 1372 l 1,8,-1
 618.881835938 827 l 1,9,-1
 1283.921875 1372 l 1,10,-1
 1139.921875 1372 l 1,11,-1
 1161.08984375 1493 l 1,12,-1
 1662.38964844 1493 l 1,13,-1
 1641.22167969 1372 l 1,14,-1
 1462.12207031 1372 l 1,15,-1
 899.078125 911 l 1,16,-1
 1416.97753906 121 l 1,17,-1
 1549.27832031 121 l 1,18,-1
 1528.11035156 0 l 1,19,-1
 1072.70996094 0 l 1,20,-1
 601.0390625 725 l 1,21,-1
 495.373046875 121 l 1,22,-1
 668.173828125 121 l 1,23,-1
 647.006835938 0 l 1,24,-1
 -44.1943359375 0 l 1,0,-1
EndSplineSet
EndChar
StartChar: L
Encoding: 76 76 76
Width: 1296
Flags: W
AnchorPoint: "below" 593.906 0 basechar 0
AnchorPoint: "above" 556.796 1465 basechar 0
LayerCount: 2
Back
Fore
SplineSet
-44.1943359375 0 m 1,0,-1
 -23.0263671875 121 l 1,1,-1
 148.873046875 121 l 1,2,-1
 367.7265625 1372 l 1,3,-1
 195.826171875 1372 l 1,4,-1
 216.993164062 1493 l 1,5,-1
 908.190429688 1493 l 1,6,-1
 887.026367188 1372 l 1,7,-1
 714.2265625 1372 l 1,8,-1
 498.172851562 137 l 1,9,-1
 1027.37695312 137 l 1,10,-1
 1068.66015625 373 l 1,11,-1
 1190.16015625 373 l 1,12,-1
 1124.91015625 0 l 1,13,-1
 -44.1943359375 0 l 1,0,-1
EndSplineSet
EndChar
StartChar: M
Encoding: 77 77 77
Width: 2040
Flags: W
AnchorPoint: "below" 845.007 0 basechar 0
AnchorPoint: "above" 1100.42 1460 basechar 0
LayerCount: 2
Back
Fore
SplineSet
-53.1943359375 0 m 1,0,-1
 -32.0263671875 121 l 1,1,-1
 138.973632812 121 l 1,2,-1
 357.826171875 1372 l 1,3,-1
 186.826171875 1372 l 1,4,-1
 207.993164062 1493 l 1,5,-1
 762.393554688 1493 l 1,6,-1
 978.201171875 535 l 1,7,-1
 1530.99023438 1493 l 1,8,-1
 2084.49023438 1493 l 1,9,-1
 2063.32226562 1372 l 1,10,-1
 1891.421875 1372 l 1,11,-1
 1672.578125 121 l 1,12,-1
 1844.47753906 121 l 1,13,-1
 1823.30957031 0 l 1,14,-1
 1132.11035156 0 l 1,15,-1
 1153.27832031 121 l 1,16,-1
 1324.27832031 121 l 1,17,-1
 1523.52929688 1260 l 1,18,-1
 924.713867188 219 l 1,19,-1
 697.018554688 219 l 1,20,-1
 464.232421875 1260 l 1,21,-1
 264.973632812 121 l 1,22,-1
 435.973632812 121 l 1,23,-1
 414.806640625 0 l 1,24,-1
 -53.1943359375 0 l 1,0,-1
EndSplineSet
EndChar
StartChar: N
Encoding: 78 78 78
Width: 1684
Flags: W
AnchorPoint: "below" 696.507 0 basechar 0
AnchorPoint: "above" 970.65 1465 basechar 0
LayerCount: 2
Back
Fore
SplineSet
-49.59375 0 m 1,0,-1
 -28.4267578125 121 l 1,1,-1
 143.473632812 121 l 1,2,-1
 362.326171875 1372 l 1,3,-1
 190.426757812 1372 l 1,4,-1
 211.59375 1493 l 1,5,-1
 631.893554688 1493 l 1,6,-1
 1257.87597656 436 l 1,7,-1
 1421.62207031 1372 l 1,8,-1
 1250.62207031 1372 l 1,9,-1
 1271.79003906 1493 l 1,10,-1
 1741.58984375 1493 l 1,11,-1
 1720.421875 1372 l 1,12,-1
 1548.52246094 1372 l 1,13,-1
 1308.50976562 0 l 1,14,-1
 1072.70996094 0 l 1,15,-1
 437.96875 1079 l 1,16,-1
 270.373046875 121 l 1,17,-1
 441.373046875 121 l 1,18,-1
 420.206054688 0 l 1,19,-1
 -49.59375 0 l 1,0,-1
EndSplineSet
EndChar
StartChar: O
Encoding: 79 79 79
Width: 1605
Flags: W
AnchorPoint: "below" 673.281 0 basechar 0
AnchorPoint: "above" 947.25 1465 basechar 0
LayerCount: 2
Back
Fore
SplineSet
687.576171875 92 m 0,0,1
 859.475585938 92 859.475585938 92 971.342773438 253 c 0,2,3
 1083.20410156 414 1083.20410156 414 1141.11035156 745 c 0,4,5
 1199.19628906 1077 1199.19628906 1077 1143.65722656 1238 c 0,6,7
 1088.12695312 1399 1088.12695312 1399 916.2265625 1399 c 0,8,9
 745.224609375 1399 745.224609375 1399 632.646484375 1236.5 c 0,10,11
 520.068359375 1074 520.068359375 1074 462.51171875 745 c 0,12,13
 405.131835938 417 405.131835938 417 460.853515625 254.5 c 0,14,15
 516.576171875 92 516.576171875 92 687.576171875 92 c 0,0,1
666.407226562 -29 m 0,16,17
 327.106445312 -29 327.106445312 -29 170.545898438 177 c 0,18,19
 13.9833984375 383 13.9833984375 383 77.3125 745 c 0,20,21
 140.642578125 1107 140.642578125 1107 369.817382812 1313.5 c 0,22,23
 598.993164062 1520 598.993164062 1520 937.39453125 1520 c 0,24,25
 1276.6953125 1520 1276.6953125 1520 1433.25 1314 c 0,26,27
 1589.81445312 1108 1589.81445312 1108 1526.30957031 745 c 0,28,29
 1462.98632812 383 1462.98632812 383 1233.90039062 177 c 0,30,31
 1004.8046875 -29 1004.8046875 -29 666.407226562 -29 c 0,16,17
EndSplineSet
EndChar
StartChar: P
Encoding: 80 80 80
Width: 1386
Flags: W
AnchorPoint: "above" 904.194 1465 basechar 0
AnchorPoint: "below" 300.507 0 basechar 0
LayerCount: 2
Back
Fore
SplineSet
-44.1943359375 0 m 1,0,-1
 -23.0263671875 121 l 1,1,-1
 148.873046875 121 l 1,2,-1
 367.7265625 1372 l 1,3,-1
 195.826171875 1372 l 1,4,-1
 216.993164062 1493 l 1,5,-1
 981.990234375 1493 l 2,6,7
 1206.08984375 1493 1206.08984375 1493 1317.66308594 1374.5 c 0,8,9
 1429.23632812 1256 1429.23632812 1256 1394.42382812 1057 c 0,10,11
 1359.43164062 857 1359.43164062 857 1205.77539062 737.5 c 128,-1,12
 1052.11816406 618 1052.11816406 618 828.919921875 618 c 2,13,-1
 582.319335938 618 l 1,14,-1
 495.373046875 121 l 1,15,-1
 712.2734375 121 l 1,16,-1
 691.106445312 0 l 1,17,-1
 -44.1943359375 0 l 1,0,-1
603.48828125 739 m 1,18,-1
 704.288085938 739 l 2,19,20
 821.288085938 739 821.288085938 739 906.173828125 825.5 c 0,21,22
 991.052734375 912 991.052734375 912 1016.42382812 1057 c 0,23,24
 1041.61523438 1201 1041.61523438 1201 987.2734375 1286.5 c 0,25,26
 932.921875 1372 932.921875 1372 815.026367188 1372 c 2,27,-1
 714.2265625 1372 l 1,28,-1
 603.48828125 739 l 1,18,-1
EndSplineSet
EndChar
StartChar: Q
Encoding: 81 81 81
Width: 1605
Flags: W
AnchorPoint: "below" 641.354 -369 basechar 0
AnchorPoint: "above" 962.199 1465 basechar 0
LayerCount: 2
Back
Fore
SplineSet
693.629882812 -29 m 1,0,1
 354.483398438 -23 354.483398438 -23 200.717773438 181 c 0,2,3
 91.6376953125 325.719726562 91.6376953125 325.719726562 91.6376953125 548.959960938 c 0,4,5
 91.6376953125 640.389648438 91.6376953125 640.389648438 109.934570312 745 c 0,6,7
 173.267578125 1107 173.267578125 1107 402.444335938 1313.5 c 128,-1,8
 631.620117188 1520 631.620117188 1520 970.01953125 1520 c 0,9,10
 1309.3203125 1520 1309.3203125 1520 1465.88378906 1314 c 0,11,12
 1577.25878906 1167.45019531 1577.25878906 1167.45019531 1577.25878906 941.4296875 c 0,13,14
 1577.25878906 849.75 1577.25878906 849.75 1558.93457031 745 c 0,15,16
 1503.30566406 427 1503.30566406 427 1320.61523438 229 c 128,-1,17
 1137.93261719 31 1137.93261719 31 856.107421875 -16 c 1,18,19
 893.834960938 -73 893.834960938 -73 957.861328125 -98 c 0,20,21
 1106.40625 -156 1106.40625 -156 1227.61816406 -156 c 2,22,-1
 1401.31835938 -156 l 1,23,-1
 1358.28027344 -402 l 1,24,-1
 1204.37988281 -402 l 2,25,26
 976.779296875 -402 976.779296875 -402 836.594726562 -287 c 0,27,28
 736.640625 -205 736.640625 -205 693.629882812 -29 c 1,0,1
720.198242188 92 m 0,29,30
 892.09765625 92 892.09765625 92 1003.96777344 253 c 128,-1,31
 1115.82910156 414 1115.82910156 414 1173.73535156 745 c 0,32,33
 1203.42578125 914.719726562 1203.42578125 914.719726562 1203.42578125 1039.75 c 0,34,35
 1203.42578125 1159.29980469 1203.42578125 1159.29980469 1176.28222656 1238 c 0,36,37
 1120.75195312 1399 1120.75195312 1399 948.8515625 1399 c 0,38,39
 777.8515625 1399 777.8515625 1399 665.271484375 1236.5 c 128,-1,40
 552.690429688 1074 552.690429688 1074 495.134765625 745 c 0,41,42
 466.029296875 578.599609375 466.029296875 578.599609375 466.029296875 454.790039062 c 0,43,44
 466.029296875 334.559570312 466.029296875 334.559570312 493.478515625 254.5 c 0,45,46
 549.198242188 92 549.198242188 92 720.198242188 92 c 0,29,30
EndSplineSet
EndChar
StartChar: R
Encoding: 82 82 82
Width: 1531
Flags: W
AnchorPoint: "below" 647.906 0 basechar 0
AnchorPoint: "above" 922.05 1465 basechar 0
LayerCount: 2
Back
Fore
SplineSet
975.240234375 729 m 1,0,1
 1053.06347656 716 1053.06347656 716 1099.91699219 670 c 0,2,3
 1146.77148438 624 1146.77148438 624 1172.05175781 537 c 2,4,-1
 1295.47753906 121 l 1,5,-1
 1433.17773438 121 l 1,6,-1
 1412.00976562 0 l 1,7,-1
 970.110351562 0 l 1,8,-1
 834.8046875 451 l 1,9,10
 797.1953125 591 797.1953125 591 760.282226562 629.5 c 0,11,12
 723.3671875 668 723.3671875 668 645.966796875 668 c 2,13,-1
 591.067382812 668 l 1,14,-1
 495.373046875 121 l 1,15,-1
 668.173828125 121 l 1,16,-1
 647.006835938 0 l 1,17,-1
 -44.1943359375 0 l 1,18,-1
 -23.0263671875 121 l 1,19,-1
 148.873046875 121 l 1,20,-1
 367.7265625 1372 l 1,21,-1
 195.826171875 1372 l 1,22,-1
 216.993164062 1493 l 1,23,-1
 983.790039062 1493 l 2,24,25
 1217.79003906 1493 1217.79003906 1493 1326.86132812 1388.5 c 0,26,27
 1435.93164062 1284 1435.93164062 1284 1402.34375 1092 c 0,28,29
 1375.046875 936 1375.046875 936 1268.765625 845.5 c 128,-1,30
 1162.48535156 755 1162.48535156 755 975.240234375 729 c 1,0,1
612.059570312 788 m 1,31,-1
 729.958984375 788 l 2,32,33
 855.958984375 788 855.958984375 788 937.206054688 864 c 0,34,35
 1018.44921875 940 1018.44921875 940 1043.11816406 1081 c 128,-1,36
 1067.78710938 1222 1067.78710938 1222 1012.95898438 1297 c 0,37,38
 958.122070312 1372 958.122070312 1372 832.126953125 1372 c 2,39,-1
 714.2265625 1372 l 1,40,-1
 612.059570312 788 l 1,31,-1
EndSplineSet
EndChar
StartChar: S
Encoding: 83 83 83
Width: 1331
Flags: W
AnchorPoint: "below" 525.681 0 basechar 0
AnchorPoint: "above" 799.65 1465 basechar 0
LayerCount: 2
Back
Fore
SplineSet
24.376953125 72 m 1,0,-1
 86.3056640625 426 l 1,1,-1
 200.606445312 426 l 1,2,3
 197.315429688 258 197.315429688 258 279.995117188 175 c 128,-1,4
 362.67578125 92 362.67578125 92 534.576171875 92 c 0,5,6
 674.076171875 92 674.076171875 92 757.295898438 151 c 128,-1,7
 840.518554688 210 840.518554688 210 860.4609375 324 c 0,8,9
 876.206054688 414 876.206054688 414 835.454101562 464 c 128,-1,10
 794.701171875 514 794.701171875 514 647.422851562 557 c 2,11,-1
 455.4453125 612 l 1,12,13
 268.142578125 668 268.142578125 668 205.448242188 767.5 c 128,-1,14
 142.754882812 867 142.754882812 867 174.944335938 1051 c 0,15,16
 213.78125 1273 213.78125 1273 368.137695312 1396.5 c 128,-1,17
 522.493164062 1520 522.493164062 1520 761.893554688 1520 c 0,18,19
 879.79296875 1520 879.79296875 1520 1003.29296875 1498 c 128,-1,20
 1126.79980469 1476 1126.79980469 1476 1255.89648438 1432 c 1,21,-1
 1198.16992188 1102 l 1,22,-1
 1083.87011719 1102 l 1,23,24
 1084.70703125 1256 1084.70703125 1256 1009.01660156 1327.5 c 128,-1,25
 933.327148438 1399 933.327148438 1399 770.423828125 1399 c 0,26,27
 637.224609375 1399 637.224609375 1399 560.265625 1347.5 c 128,-1,28
 483.305664062 1296 483.305664062 1296 465.461914062 1194 c 0,29,30
 449.192382812 1101 449.192382812 1101 487.5078125 1052.5 c 128,-1,31
 525.822265625 1004 525.822265625 1004 699.42578125 952 c 1,32,-1
 891.403320312 897 l 2,33,34
 1069.50585938 845 1069.50585938 845 1134.4140625 735 c 128,-1,35
 1199.32226562 625 1199.32226562 625 1165.55371094 432 c 0,36,37
 1126.01660156 206 1126.01660156 206 965.060546875 88.5 c 128,-1,38
 804.106445312 -29 804.106445312 -29 531.407226562 -29 c 0,39,40
 400.006835938 -29 400.006835938 -29 274.78125 -4 c 128,-1,41
 149.5546875 21 149.5546875 21 24.376953125 72 c 1,0,-1
EndSplineSet
EndChar
StartChar: T
Encoding: 84 84 84
Width: 1371
Flags: W
AnchorPoint: "below" 561.507 0 basechar 0
AnchorPoint: "above" 835.65 1465 basechar 0
LayerCount: 2
Back
Fore
SplineSet
203.306640625 0 m 1,0,-1
 224.473632812 121 l 1,1,-1
 402.673828125 121 l 1,2,-1
 618.727539062 1356 l 1,3,-1
 250.627929688 1356 l 1,4,-1
 209.340820312 1120 l 1,5,-1
 86.041015625 1120 l 1,6,-1
 151.293945312 1493 l 1,7,-1
 1483.29003906 1493 l 1,8,-1
 1418.04003906 1120 l 1,9,-1
 1296.54003906 1120 l 1,10,-1
 1337.82324219 1356 l 1,11,-1
 967.0234375 1356 l 1,12,-1
 750.973632812 121 l 1,13,-1
 930.078125 121 l 1,14,-1
 908.91015625 0 l 1,15,-1
 203.306640625 0 l 1,0,-1
EndSplineSet
EndChar
StartChar: U
Encoding: 85 85 85
Width: 1607
Flags: W
AnchorPoint: "below" 721.543 0 basechar 0
AnchorPoint: "above" 993.15 1465 basechar 0
LayerCount: 2
Back
Fore
SplineSet
345.962890625 1372 m 1,0,-1
 174.962890625 1372 l 1,1,-1
 196.131835938 1493 l 1,2,-1
 887.33203125 1493 l 1,3,-1
 866.163085938 1372 l 1,4,-1
 694.262695312 1372 l 1,5,-1
 563.581054688 625 l 2,6,7
 514.772460938 346 514.772460938 346 573.56640625 234.5 c 0,8,9
 632.359375 123 632.359375 123 822.259765625 123 c 0,10,11
 1007.65820312 123 1007.65820312 123 1105.19140625 235.5 c 128,-1,12
 1202.72363281 348 1202.72363281 348 1251.1796875 625 c 2,13,-1
 1381.86035156 1372 l 1,14,-1
 1210.86035156 1372 l 1,15,-1
 1232.02832031 1493 l 1,16,-1
 1700.02832031 1493 l 1,17,-1
 1678.86035156 1372 l 1,18,-1
 1506.95996094 1372 l 1,19,-1
 1372.60839844 604 l 2,20,21
 1312.77636719 262 1312.77636719 262 1154.12402344 116.5 c 128,-1,22
 995.471679688 -29 995.471679688 -29 681.368164062 -29 c 0,23,24
 369.068359375 -29 369.068359375 -29 260.684570312 118 c 0,25,26
 152.302734375 265 152.302734375 265 211.95703125 606 c 2,27,-1
 345.962890625 1372 l 1,0,-1
EndSplineSet
EndChar
StartChar: V
Encoding: 86 86 86
Width: 1430
Flags: W
AnchorPoint: "below" 584.007 0 basechar 0
AnchorPoint: "above" 840.296 1465 basechar 0
LayerCount: 2
Back
Fore
SplineSet
1586.79003906 1493 m 1,0,-1
 1565.62207031 1372 l 1,1,-1
 1453.12207031 1372 l 1,2,-1
 706.40625 0 l 1,3,-1
 492.206054688 0 l 1,4,-1
 225.526367188 1372 l 1,5,-1
 98.626953125 1372 l 1,6,-1
 119.793945312 1493 l 1,7,-1
 749.793945312 1493 l 1,8,-1
 728.626953125 1372 l 1,9,-1
 598.126953125 1372 l 1,10,-1
 787.80859375 383 l 1,11,-1
 1326.22167969 1372 l 1,12,-1
 1166.02246094 1372 l 1,13,-1
 1187.19042969 1493 l 1,14,-1
 1586.79003906 1493 l 1,0,-1
EndSplineSet
EndChar
StartChar: W
Encoding: 87 87 87
Width: 2070
Flags: W
AnchorPoint: "below" 907.983 5 basechar 0
AnchorPoint: "above" 1191.6 1472 basechar 0
LayerCount: 2
Back
Fore
SplineSet
1439.91015625 0 m 1,0,-1
 1207.70996094 0 l 1,1,-1
 1093.67089844 1087 l 1,2,-1
 599.306640625 0 l 1,3,-1
 367.106445312 0 l 1,4,-1
 223.7265625 1372 l 1,5,-1
 93.2265625 1372 l 1,6,-1
 114.393554688 1493 l 1,7,-1
 751.59375 1493 l 1,8,-1
 730.426757812 1372 l 1,9,-1
 586.426757812 1372 l 1,10,-1
 682.50390625 455 l 1,11,-1
 1153.88964844 1493 l 1,12,-1
 1409.49023438 1493 l 1,13,-1
 1520.12695312 438 l 1,14,-1
 1945.421875 1372 l 1,15,-1
 1785.22167969 1372 l 1,16,-1
 1806.38964844 1493 l 1,17,-1
 2222.19042969 1493 l 1,18,-1
 2201.02246094 1372 l 1,19,-1
 2063.32226562 1372 l 1,20,-1
 1439.91015625 0 l 1,0,-1
EndSplineSet
EndChar
StartChar: X
Encoding: 88 88 88
Width: 1430
Flags: W
AnchorPoint: "above" 840.296 1465 basechar 0
AnchorPoint: "below" 584.007 0 basechar 0
LayerCount: 2
Back
Fore
SplineSet
594.59765625 575 m 1,0,-1
 235.2734375 121 l 1,1,-1
 400.873046875 121 l 1,2,-1
 379.706054688 0 l 1,3,-1
 -97.2939453125 0 l 1,4,-1
 -76.126953125 121 l 1,5,-1
 89.4736328125 121 l 1,6,-1
 543.065429688 692 l 1,7,-1
 241.7265625 1372 l 1,8,-1
 118.426757812 1372 l 1,9,-1
 139.59375 1493 l 1,10,-1
 807.393554688 1493 l 1,11,-1
 786.2265625 1372 l 1,12,-1
 638.626953125 1372 l 1,13,-1
 825.250976562 952 l 1,14,-1
 1156.12207031 1372 l 1,15,-1
 999.522460938 1372 l 1,16,-1
 1020.69042969 1493 l 1,17,-1
 1488.69042969 1493 l 1,18,-1
 1467.52246094 1372 l 1,19,-1
 1301.921875 1372 l 1,20,-1
 876.057617188 836 l 1,21,-1
 1191.97753906 121 l 1,22,-1
 1318.87792969 121 l 1,23,-1
 1297.70996094 0 l 1,24,-1
 627.206054688 0 l 1,25,-1
 648.373046875 121 l 1,26,-1
 797.7734375 121 l 1,27,-1
 594.59765625 575 l 1,0,-1
EndSplineSet
EndChar
StartChar: Y
Encoding: 89 89 89
Width: 1315
Flags: W
AnchorPoint: "below" 527.307 0 basechar 0
AnchorPoint: "above" 808.2 1472 basechar 0
LayerCount: 2
Back
Fore
SplineSet
186.206054688 0 m 1,0,-1
 207.373046875 121 l 1,1,-1
 388.2734375 121 l 1,2,-1
 475.219726562 618 l 1,3,-1
 207.526367188 1372 l 1,4,-1
 93.2265625 1372 l 1,5,-1
 114.393554688 1493 l 1,6,-1
 758.793945312 1493 l 1,7,-1
 737.626953125 1372 l 1,8,-1
 588.2265625 1372 l 1,9,-1
 791.083984375 803 l 1,10,-1
 1191.22167969 1372 l 1,11,-1
 1057.12207031 1372 l 1,12,-1
 1078.29003906 1493 l 1,13,-1
 1463.49023438 1493 l 1,14,-1
 1442.32226562 1372 l 1,15,-1
 1328.02246094 1372 l 1,16,-1
 832.6171875 670 l 1,17,-1
 736.573242188 121 l 1,18,-1
 917.477539062 121 l 1,19,-1
 896.306640625 0 l 1,20,-1
 186.206054688 0 l 1,0,-1
EndSplineSet
EndChar
StartChar: Z
Encoding: 90 90 90
Width: 1345
Flags: W
AnchorPoint: "below" 542.606 0 basechar 0
AnchorPoint: "above" 816.75 1465 basechar 0
LayerCount: 2
Back
Fore
SplineSet
-62.1943359375 0 m 1,0,-1
 -37.52734375 141 l 1,1,-1
 976.922851562 1356 l 1,2,-1
 333.427734375 1356 l 1,3,-1
 294.415039062 1133 l 1,4,-1
 171.115234375 1133 l 1,5,-1
 234.09375 1493 l 1,6,-1
 1400.49023438 1493 l 1,7,-1
 1375.83007812 1352 l 1,8,-1
 370.372070312 137 l 1,9,-1
 1048.9765625 137 l 1,10,-1
 1085.53515625 346 l 1,11,-1
 1208.83496094 346 l 1,12,-1
 1148.30957031 0 l 1,13,-1
 -62.1943359375 0 l 1,0,-1
EndSplineSet
EndChar
StartChar: bracketleft
Encoding: 91 91 91
Width: 872
Flags: W
LayerCount: 2
Back
Fore
SplineSet
390.122070312 1556 m 1,0,-1
 900.422851562 1556 l 1,1,-1
 879.4296875 1436 l 1,2,-1
 687.729492188 1436 l 1,3,-1
 410.270507812 -150 l 1,4,-1
 601.970703125 -150 l 1,5,-1
 580.977539062 -270 l 1,6,-1
 70.677734375 -270 l 1,7,-1
 390.122070312 1556 l 1,0,-1
EndSplineSet
EndChar
StartChar: backslash
Encoding: 92 92 92
Width: 673
Flags: W
LayerCount: 2
Back
Fore
SplineSet
346.114257812 1493 m 1,0,-1
 525.986328125 -190 l 1,1,-1
 326.186523438 -190 l 1,2,-1
 147.213867188 1493 l 1,3,-1
 346.114257812 1493 l 1,0,-1
EndSplineSet
EndChar
StartChar: bracketright
Encoding: 93 93 93
Width: 872
Flags: W
LayerCount: 2
Back
Fore
SplineSet
801.421875 1556 m 1,0,-1
 481.977539062 -270 l 1,1,-1
 -29.2216796875 -270 l 1,2,-1
 -8.2294921875 -150 l 1,3,-1
 183.470703125 -150 l 1,4,-1
 460.9296875 1436 l 1,5,-1
 269.229492188 1436 l 1,6,-1
 290.221679688 1556 l 1,7,-1
 801.421875 1556 l 1,0,-1
EndSplineSet
EndChar
StartChar: asciicircum
Encoding: 94 94 94
Width: 1544
Flags: W
LayerCount: 2
Back
Fore
SplineSet
875.700195312 1493 m 1,0,-1
 1358.09960938 936 l 1,1,-1
 1166.40039062 936 l 1,2,-1
 772.200195312 1251 l 1,3,-1
 378 936 l 1,4,-1
 186.299804688 936 l 1,5,-1
 675 1493 l 1,6,-1
 875.700195312 1493 l 1,0,-1
EndSplineSet
EndChar
StartChar: underscore
Encoding: 95 95 95
Width: 921
Flags: W
LayerCount: 2
Back
Fore
SplineSet
921.599609375 -293 m 1,0,-1
 921.599609375 -483 l 1,1,-1
 0 -483 l 1,2,-1
 0 -293 l 1,3,-1
 921.599609375 -293 l 1,0,-1
EndSplineSet
EndChar
StartChar: grave
Encoding: 96 96 96
Width: 921
Flags: W
LayerCount: 2
Back
Fore
SplineSet
487.799804688 1638 m 1,0,-1
 653.400390625 1262 l 1,1,-1
 505.799804688 1262 l 1,2,-1
 236.700195312 1638 l 1,3,-1
 487.799804688 1638 l 1,0,-1
EndSplineSet
EndChar
StartChar: a
Encoding: 97 97 97
Width: 1194
Flags: W
AnchorPoint: "below" 447.019 0 basechar 0
AnchorPoint: "above" 637.2 1092 basechar 0
LayerCount: 2
Back
Fore
SplineSet
756.873046875 876 m 17,0,1
 753.864257812 936 753.864257812 936 702.564453125 936 c 0,2,3
 581.892578125 936 581.892578125 936 463.973632812 776 c 0,4,5
 409.55078125 701.544921875 409.55078125 701.544921875 366.431640625 455.049804688 c 0,6,7
 333.982421875 269.561523438 333.982421875 269.561523438 357.150390625 198.280273438 c 128,-1,8
 380.315429688 127 380.315429688 127 466.64453125 127 c 0,9,10
 549.8125 127 549.8125 127 602.345703125 210 c 128,-1,11
 654.881835938 293.005859375 654.881835938 293.005859375 687.420898438 479 c 2,12,-1
 756.873046875 876 l 17,0,1
1062.98144531 1031 m 9,13,-1
 905.157226562 121 l 1,14,-1
 1025.14453125 123.264648438 l 1,15,-1
 1003.58105469 0 l 1,16,-1
 603.62109375 0 l 1,17,-1
 627.2421875 135 l 1,18,19
 528.115234375 -29 528.115234375 -29 353.02734375 -29 c 0,20,21
 179.2578125 -29 179.2578125 -29 101.985351562 98.5 c 128,-1,22
 24.71875 226 24.71875 226 63.5302734375 447.849609375 c 0,23,24
 102.65234375 671.478515625 102.65234375 671.478515625 275.250976562 864 c 0,25,26
 479.655273438 1092 479.655273438 1092 753.254882812 1092 c 0,27,28
 1023.25488281 1092 1023.25488281 1092 1062.98144531 1031 c 9,13,-1
EndSplineSet
EndChar
StartChar: b
Encoding: 98 98 98
Width: 1288
Flags: W
AnchorPoint: "above" 414.321 1465 basechar 0
AnchorPoint: "below" 472.132 0 basechar 0
LayerCount: 2
Back
Fore
SplineSet
296.748046875 1436 m 1,0,-1
 159.948242188 1436 l 1,1,-1
 180.9453125 1556 l 1,2,-1
 636.344726562 1556 l 1,3,-1
 526.482421875 928 l 1,4,5
 581.499023438 1011 581.499023438 1011 656.982421875 1051.5 c 128,-1,6
 732.46484375 1092 732.46484375 1092 833.264648438 1092 c 0,7,8
 1037.56542969 1092 1037.56542969 1092 1128.86132812 942.5 c 0,9,10
 1189.71875 842.83984375 1189.71875 842.83984375 1189.71875 693.629882812 c 0,11,12
 1189.71875 619.009765625 1189.71875 619.009765625 1174.5 532 c 0,13,14
 1128.84277344 271 1128.84277344 271 985.149414062 121 c 0,15,16
 841.455078125 -29 841.455078125 -29 637.155273438 -29 c 0,17,18
 536.35546875 -29 536.35546875 -29 475.046875 11.5 c 0,19,20
 413.73046875 52 413.73046875 52 387.747070312 135 c 1,21,-1
 364.130859375 0 l 1,22,-1
 45.53125 0 l 1,23,-1
 296.748046875 1436 l 1,0,-1
447.9296875 479 m 2,24,25
 430.505859375 379.400390625 430.505859375 379.400390625 430.505859375 309.33984375 c 0,26,27
 430.505859375 248.559570312 430.505859375 248.559570312 443.619140625 210 c 0,28,29
 471.8515625 127 471.8515625 127 567.251953125 127 c 0,30,31
 665.3515625 127 665.3515625 127 720.791992188 215 c 0,32,33
 776.241210938 303 776.241210938 303 816.299804688 532 c 0,34,35
 841.068359375 673.5703125 841.068359375 673.5703125 841.068359375 761.059570312 c 0,36,37
 841.068359375 815.08984375 841.068359375 815.08984375 831.618164062 848.5 c 0,38,39
 806.876953125 936 806.876953125 936 708.77734375 936 c 0,40,41
 613.376953125 936 613.376953125 936 556.110351562 853 c 0,42,43
 498.833984375 770 498.833984375 770 466.298828125 584 c 2,44,-1
 447.9296875 479 l 2,24,25
EndSplineSet
EndChar
StartChar: c
Encoding: 99 99 99
Width: 1122
Flags: W
AnchorPoint: "below" 504.618 0 basechar 0
AnchorPoint: "above" 694.8 1092 basechar 0
LayerCount: 2
Back
Fore
SplineSet
1004.59765625 332 m 1,0,1
 938.555664062 150 938.555664062 150 817.155273438 60.5 c 128,-1,2
 695.745117188 -29 695.745117188 -29 513.9453125 -29 c 0,3,4
 258.344726562 -29 258.344726562 -29 143.658203125 118 c 0,5,6
 62.171875 222.459960938 62.171875 222.459960938 62.171875 387.5 c 0,7,8
 62.171875 454.73046875 62.171875 454.73046875 75.6904296875 532 c 0,9,10
 121.869140625 796 121.869140625 796 286.362304688 944 c 128,-1,11
 450.85546875 1092 450.85546875 1092 697.455078125 1092 c 0,12,13
 797.35546875 1092 797.35546875 1092 895.3828125 1071 c 128,-1,14
 993.411132812 1050 993.411132812 1050 1091.35839844 1008 c 1,15,-1
 1039.75195312 713 l 1,16,-1
 938.952148438 713 l 1,17,18
 940.508789062 735.849609375 940.508789062 735.849609375 940.508789062 756.700195312 c 0,19,20
 940.508789062 859.080078125 940.508789062 859.080078125 902.924804688 913.5 c 0,21,22
 857.681640625 979 857.681640625 979 755.08203125 979 c 0,23,24
 621.881835938 979 621.881835938 979 548.14453125 879 c 128,-1,25
 474.399414062 779 474.399414062 779 431.190429688 532 c 0,26,27
 408.671875 403.309570312 408.671875 403.309570312 408.671875 313.8203125 c 0,28,29
 408.671875 235.73046875 408.671875 235.73046875 425.817382812 187.5 c 0,30,31
 462.618164062 84 462.618164062 84 586.818359375 84 c 0,32,33
 683.118164062 84 683.118164062 84 752.364257812 148 c 128,-1,34
 821.610351562 212 821.610351562 212 855.198242188 332 c 1,35,-1
 1004.59765625 332 l 1,0,1
EndSplineSet
EndChar
StartChar: d
Encoding: 100 100 100
Width: 1288
Flags: W
AnchorPoint: "above" 1003.82 1465 basechar 0
AnchorPoint: "below" 479.332 0 basechar 0
LayerCount: 2
Back
Fore
SplineSet
741.330078125 479 m 2,0,-1
 759.69921875 584 l 2,1,2
 776.997070312 682.860351562 776.997070312 682.860351562 776.997070312 752.629882812 c 0,3,4
 776.997070312 814.120117188 776.997070312 814.120117188 763.559570312 853 c 0,5,6
 734.876953125 936 734.876953125 936 640.376953125 936 c 0,7,8
 541.376953125 936 541.376953125 936 486.017578125 848.5 c 128,-1,9
 430.659179688 761 430.659179688 761 390.599609375 532 c 0,10,11
 365.975585938 391.219726562 365.975585938 391.219726562 365.975585938 303.73046875 c 0,12,13
 365.975585938 248.900390625 365.975585938 248.900390625 375.641601562 215 c 0,14,15
 400.751953125 127 400.751953125 127 498.8515625 127 c 0,16,17
 593.3515625 127 593.3515625 127 651.069335938 210 c 0,18,19
 708.786132812 293 708.786132812 293 741.330078125 479 c 2,0,-1
1248.34472656 1556 m 1,20,-1
 976.130859375 0 l 1,21,-1
 657.53125 0 l 1,22,-1
 681.147460938 135 l 1,23,24
 626.129882812 52 626.129882812 52 550.197265625 11.5 c 0,25,26
 474.254882812 -29 474.254882812 -29 373.455078125 -29 c 0,27,28
 170.0546875 -29 170.0546875 -29 79.7490234375 121 c 0,29,30
 19.763671875 220.629882812 19.763671875 220.629882812 19.763671875 369.219726562 c 0,31,32
 19.763671875 444.349609375 19.763671875 444.349609375 35.099609375 532 c 0,33,34
 80.9365234375 794 80.9365234375 794 223.55078125 943 c 0,35,36
 366.165039062 1092 366.165039062 1092 569.565429688 1092 c 0,37,38
 670.365234375 1092 670.365234375 1092 732.131835938 1051.5 c 128,-1,39
 793.899414062 1011 793.899414062 1011 819.881835938 928 c 1,40,-1
 908.748046875 1436 l 1,41,-1
 771.948242188 1436 l 1,42,-1
 792.9453125 1556 l 1,43,-1
 1248.34472656 1556 l 1,20,-1
EndSplineSet
EndChar
StartChar: e
Encoding: 101 101 101
Width: 1172
Flags: W
AnchorPoint: "below" 492.918 0 basechar 0
AnchorPoint: "above" 683.1 1092 basechar 0
LayerCount: 2
Back
Fore
SplineSet
774 832 m 0,0,1
 774 979 774 979 662.400390625 979 c 0,2,3
 576.900390625 979 576.900390625 979 526.5 889.5 c 128,-1,4
 476.099609375 800 476.099609375 800 430.200195312 519 c 1,5,6
 450 519 l 0,7,8
 725.400390625 519 725.400390625 519 767.700195312 762 c 0,9,10
 774 800 774 800 774 832 c 0,0,1
408.599609375 400 m 1,11,12
 403.200195312 366 403.200195312 366 403.200195312 295 c 0,13,14
 404.099609375 84 404.099609375 84 588.599609375 84 c 0,15,16
 692.099609375 84 692.099609375 84 766.799804688 145 c 128,-1,17
 841.5 206 841.5 206 879.299804688 322 c 1,18,-1
 1028.70019531 322 l 1,19,20
 958.5 141 958.5 141 828.450195312 56 c 128,-1,21
 698.400390625 -29 698.400390625 -29 491.400390625 -29 c 0,22,23
 243 -29 243 -29 135.900390625 116 c 0,24,25
 61.2001953125 218 61.2001953125 218 61.2001953125 379 c 0,26,27
 61.2001953125 448 61.2001953125 448 75.599609375 529 c 0,28,29
 121.5 796 121.5 796 283.5 944 c 128,-1,30
 445.5 1092 445.5 1092 683.099609375 1092 c 0,31,32
 855 1092 855 1092 974.25 1017.5 c 128,-1,33
 1093.5 943 1093.5 943 1093.5 808 c 0,34,35
 1093.5 781 1093.5 781 1088.09960938 752 c 0,36,37
 1031.40039062 428 1031.40039062 428 408.599609375 400 c 1,11,12
EndSplineSet
EndChar
StartChar: f
Encoding: 102 102 102
Width: 792
Flags: W
AnchorPoint: "below" 19.7959 -430 basechar 0
AnchorPoint: "above" 675.312 1465 basechar 0
LayerCount: 2
Back
Fore
SplineSet
-88.4384765625 -277 m 17,0,1
 -16.4384765625 -277 -16.4384765625 -277 26.0224609375 -219.5 c 128,-1,2
 68.48046875 -162 68.48046875 -162 91.048828125 -33 c 2,3,-1
 261.618164062 942 l 1,4,-1
 119.41796875 942 l 1,5,-1
 140.584960938 1063 l 1,6,-1
 282.784179688 1063 l 1,7,-1
 306.051757812 1196 l 2,8,9
 337.016601562 1373 337.016601562 1373 454.724609375 1464.5 c 128,-1,10
 572.431640625 1556 572.431640625 1556 769.53125 1556 c 0,11,12
 846.03125 1556 846.03125 1556 917.271484375 1546.5 c 128,-1,13
 988.505859375 1537 988.505859375 1537 1055.38476562 1518 c 1,14,-1
 1015.49707031 1290 l 1,15,-1
 914.697265625 1290 l 1,16,17
 915.939453125 1304.99023438 915.939453125 1304.99023438 915.939453125 1318.49023438 c 0,18,19
 915.939453125 1375.29980469 915.939453125 1375.29980469 894.041015625 1406 c 0,20,21
 866.938476562 1444 866.938476562 1444 804.838867188 1444 c 0,22,23
 732.838867188 1444 732.838867188 1444 690.37890625 1386.5 c 128,-1,24
 647.91796875 1329 647.91796875 1329 625.353515625 1200 c 2,25,-1
 601.384765625 1063 l 1,26,-1
 841.684570312 1063 l 1,27,-1
 820.518554688 942 l 1,28,-1
 580.21875 942 l 1,29,-1
 410.34765625 -29 l 2,30,31
 373.723632812 -238.350585938 373.723632812 -238.350585938 261.67578125 -297.5 c 0,32,33
 88.345703125 -389 88.345703125 -389 -108.75390625 -389 c 1,34,35
 -98.5966796875 -333 -98.5966796875 -333 -88.4384765625 -277 c 17,0,1
EndSplineSet
EndChar
StartChar: g
Encoding: 103 103 103
Width: 1288
Flags: W
AnchorPoint: "below" 479.256 -430 basechar 0
AnchorPoint: "above" 707.4 1092 basechar 0
LayerCount: 2
Back
Fore
SplineSet
888.62890625 876 m 17,0,1
 883.864257812 936 883.864257812 936 825.893554688 936 c 0,2,3
 662.01171875 936 662.01171875 936 559.920898438 776 c 0,4,5
 495.475585938 675 495.475585938 675 456.997070312 455.049804688 c 0,6,7
 424.547851562 269.561523438 424.547851562 269.561523438 452.349609375 198.280273438 c 128,-1,8
 480.149414062 127 480.149414062 127 577.703125 127 c 0,9,10
 671.68359375 127 671.68359375 127 729.159179688 210 c 128,-1,11
 786.637695312 293.005859375 786.637695312 293.005859375 819.176757812 479 c 2,12,-1
 888.62890625 876 l 17,0,1
1228.22070312 996 m 1,13,-1
 1056.42871094 14 l 2,14,15
 1013.48144531 -231.5 1013.48144531 -231.5 852.26171875 -332.5 c 0,16,17
 656.225585938 -455 656.225585938 -455 425.383789062 -455 c 0,18,19
 329.984375 -455 329.984375 -455 234.764648438 -438.5 c 128,-1,20
 139.5546875 -422 139.5546875 -422 41.83203125 -389 c 1,21,-1
 86.265625 -135 l 1,22,-1
 187.965820312 -135 l 1,23,24
 187.559570312 -143.740234375 187.559570312 -143.740234375 187.559570312 -152.110351562 c 0,25,26
 187.559570312 -244.25 187.559570312 -244.25 236.71875 -291 c 0,27,28
 290.34765625 -342 290.34765625 -342 406.448242188 -342 c 0,29,30
 554.047851562 -342 554.047851562 -342 628.533203125 -263.5 c 128,-1,31
 703.015625 -185.001953125 703.015625 -185.001953125 737.830078125 14 c 2,32,-1
 758.997070312 135 l 1,33,34
 648.954101562 -29 648.954101562 -29 446.725585938 -29 c 0,35,36
 246.020507812 -29 246.020507812 -29 153.314453125 98.5 c 128,-1,37
 60.61328125 226 60.61328125 226 99.423828125 447.849609375 c 0,38,39
 146.958007812 719.565429688 146.958007812 719.565429688 374.528320312 916 c 0,40,41
 578.423828125 1092 578.423828125 1092 878.59375 1092 c 0,42,43
 1120.21191406 1092 1120.21191406 1092 1228.22070312 996 c 1,13,-1
EndSplineSet
AlternateSubs2: "'aalt' Access All Alternates" g.alt
Substitution2: "'salt' Stylistic Alternatives" g.alt
EndChar
StartChar: h
Encoding: 104 104 104
Width: 1340
Flags: W
AnchorPoint: "below" 543.395 0 basechar 0
AnchorPoint: "above" 435.153 1465 basechar 0
LayerCount: 2
Back
Fore
SplineSet
62.79296875 0 m 1,0,-1
 314.009765625 1436 l 1,1,-1
 171.809570312 1436 l 1,2,-1
 192.806640625 1556 l 1,3,-1
 653.607421875 1556 l 1,4,-1
 541.116210938 913 l 1,5,6
 615.338867188 1008 615.338867188 1008 696.483398438 1050 c 0,7,8
 777.626953125 1092 777.626953125 1092 890.126953125 1092 c 0,9,10
 1051.23632812 1092 1051.23632812 1092 1115.12695312 986.5 c 0,11,12
 1156.04980469 918.9296875 1156.04980469 918.9296875 1156.04980469 810.540039062 c 0,13,14
 1156.04980469 749.700195312 1156.04980469 749.700195312 1143.15332031 676 c 2,15,-1
 1046.06054688 121 l 1,16,-1
 1182.86132812 121 l 1,17,-1
 1161.69335938 0 l 1,18,-1
 706.29296875 0 l 1,19,-1
 826.307617188 686 l 2,20,21
 838.56640625 756.099609375 838.56640625 756.099609375 838.56640625 803.950195312 c 0,22,23
 838.56640625 848.259765625 838.56640625 848.259765625 828.053710938 873.5 c 0,24,25
 806.193359375 926 806.193359375 926 729.693359375 926 c 0,26,27
 633.392578125 926 633.392578125 926 574.659179688 847.5 c 128,-1,28
 515.924804688 769 515.924804688 769 486.008789062 598 c 2,29,-1
 381.392578125 0 l 1,30,-1
 62.79296875 0 l 1,0,-1
EndSplineSet
EndChar
StartChar: i
Encoding: 105 105 105
Width: 700
Flags: W
AnchorPoint: "below" 206.795 0 basechar 0
AnchorPoint: "above" 533.371 1584 basechar 0
LayerCount: 2
Back
Fore
SplineSet
271.71875 1364 m 0,0,1
 285.884765625 1445 285.884765625 1445 345.99609375 1500.5 c 128,-1,2
 406.107421875 1556 406.107421875 1556 479.006835938 1556 c 0,3,4
 550.107421875 1556 550.107421875 1556 590.345703125 1500.5 c 0,5,6
 620.109375 1459.45019531 620.109375 1459.45019531 620.109375 1404.45996094 c 0,7,8
 620.109375 1385.08984375 620.109375 1385.08984375 616.418945312 1364 c 0,9,10
 602.594726562 1285 602.594726562 1285 542.93359375 1229.5 c 0,11,12
 483.2734375 1174 483.2734375 1174 412.181640625 1174 c 0,13,14
 339.282226562 1174 339.282226562 1174 298.502929688 1229 c 0,15,16
 268.13671875 1269.95019531 268.13671875 1269.95019531 268.13671875 1324.75 c 0,17,18
 268.13671875 1343.55957031 268.13671875 1343.55957031 271.71875 1364 c 0,0,1
402.560546875 121 m 1,19,-1
 539.361328125 121 l 1,20,-1
 518.193359375 0 l 1,21,-1
 62.79296875 0 l 1,22,-1
 227.591796875 942 l 1,23,-1
 91.6923828125 942 l 1,24,-1
 112.860351562 1063 l 1,25,-1
 567.360351562 1063 l 1,26,-1
 402.560546875 121 l 1,19,-1
EndSplineSet
Substitution2: "Single Substitution - Dotless Form" dotlessi
EndChar
StartChar: j
Encoding: 106 106 106
Width: 666
Flags: W
AnchorPoint: "below" 25.5693 -430 basechar 0
AnchorPoint: "above" 549.571 1584 basechar 0
LayerCount: 2
Back
Fore
SplineSet
302.516601562 1364 m 0,0,1
 316.682617188 1445 316.682617188 1445 376.34375 1500.5 c 128,-1,2
 436.004882812 1556 436.004882812 1556 509.8046875 1556 c 0,3,4
 580.004882812 1556 580.004882812 1556 620.603515625 1500 c 0,5,6
 650.798828125 1458.34960938 650.798828125 1458.34960938 650.798828125 1403.44042969 c 0,7,8
 650.798828125 1384.50976562 650.798828125 1384.50976562 647.216796875 1364 c 0,9,10
 633.392578125 1285 633.392578125 1285 573.732421875 1229.5 c 0,11,12
 514.080078125 1174 514.080078125 1174 442.98046875 1174 c 0,13,14
 370.080078125 1174 370.080078125 1174 329.30078125 1229 c 0,15,16
 298.934570312 1269.95019531 298.934570312 1269.95019531 298.934570312 1324.75 c 0,17,18
 298.934570312 1343.55957031 298.934570312 1343.55957031 302.516601562 1364 c 0,0,1
265.58984375 942 m 1,19,-1
 129.690429688 942 l 1,20,-1
 150.858398438 1063 l 1,21,-1
 605.358398438 1063 l 1,22,-1
 397.530273438 -125 l 2,23,24
 369.008789062 -288 369.008789062 -288 250.452148438 -371.5 c 0,25,26
 131.89453125 -455 131.89453125 -455 -70.60546875 -455 c 0,27,28
 -124.60546875 -455 -124.60546875 -455 -184.05859375 -445 c 0,29,30
 -243.50390625 -435 -243.50390625 -435 -305.8828125 -416 c 1,31,-1
 -266.345703125 -190 l 1,32,-1
 -164.817382812 -191 l 1,33,34
 -169.388671875 -220.990234375 -169.388671875 -220.990234375 -169.388671875 -244.719726562 c 0,35,36
 -169.388671875 -284.309570312 -169.388671875 -284.309570312 -156.671875 -306.5 c 0,37,38
 -136.33203125 -342 -136.33203125 -342 -76.931640625 -342 c 0,39,40
 -11.232421875 -342 -11.232421875 -342 23.0849609375 -295 c 0,41,42
 57.4111328125 -248 57.4111328125 -248 78.9296875 -125 c 2,43,-1
 265.58984375 942 l 1,19,-1
EndSplineSet
Substitution2: "Single Substitution - Dotless Form" dotlessj
EndChar
StartChar: k
Encoding: 107 107 107
Width: 1277
Flags: W
AnchorPoint: "above" 411.785 1465 basechar 0
AnchorPoint: "below" 543.395 0 basechar 0
LayerCount: 2
Back
Fore
SplineSet
381.392578125 0 m 1,0,-1
 62.79296875 0 l 1,1,-1
 314.009765625 1436 l 1,2,-1
 178.110351562 1436 l 1,3,-1
 199.107421875 1556 l 1,4,-1
 653.607421875 1556 l 1,5,-1
 478.8359375 557 l 1,6,-1
 932.291992188 942 l 1,7,-1
 817.9921875 942 l 1,8,-1
 839.16015625 1063 l 1,9,-1
 1098.36035156 1063 l 1,10,-1
 1077.19238281 942 l 1,11,-1
 787.553710938 696 l 1,12,-1
 1090.16113281 121 l 1,13,-1
 1193.66113281 121 l 1,14,-1
 1172.49316406 0 l 1,15,-1
 820.592773438 0 l 1,16,-1
 557.963867188 500 l 1,17,-1
 453.473632812 412 l 1,18,-1
 381.392578125 0 l 1,0,-1
EndSplineSet
EndChar
StartChar: l
Encoding: 108 108 108
Width: 700
Flags: W
AnchorPoint: "above" 411.785 1465 basechar 0
AnchorPoint: "below" 206.795 0 basechar 0
LayerCount: 2
Back
Fore
SplineSet
402.560546875 121 m 1,0,-1
 539.361328125 121 l 1,1,-1
 518.193359375 0 l 1,2,-1
 62.79296875 0 l 1,3,-1
 314.009765625 1436 l 1,4,-1
 178.110351562 1436 l 1,5,-1
 199.107421875 1556 l 1,6,-1
 653.607421875 1556 l 1,7,-1
 402.560546875 121 l 1,0,-1
EndSplineSet
EndChar
StartChar: m
Encoding: 109 109 109
Width: 1950
Flags: W
AnchorPoint: "below" 889.981 0 basechar 0
AnchorPoint: "above" 1081.02 1092 basechar 0
LayerCount: 2
Back
Fore
SplineSet
1178.703125 889 m 1,0,1
 1263.8515625 995 1263.8515625 995 1349.73046875 1043.5 c 0,2,3
 1435.6171875 1092 1435.6171875 1092 1539.1171875 1092 c 0,4,5
 1703.81738281 1092 1703.81738281 1092 1767.15917969 988.5 c 0,6,7
 1807.31738281 922.879882812 1807.31738281 922.879882812 1807.31738281 814.83984375 c 0,8,9
 1807.31738281 752.48046875 1807.31738281 752.48046875 1793.94335938 676 c 2,10,-1
 1696.85058594 121 l 1,11,-1
 1833.65136719 121 l 1,12,-1
 1812.48339844 0 l 1,13,-1
 1357.08300781 0 l 1,14,-1
 1466.07324219 623 l 2,15,16
 1488.87011719 753.309570312 1488.87011719 753.309570312 1488.87011719 820.58984375 c 0,17,18
 1488.87011719 856.049804688 1488.87011719 856.049804688 1482.53417969 874 c 0,19,20
 1464.17382812 926 1464.17382812 926 1389.47363281 926 c 0,21,22
 1304.87402344 926 1304.87402344 926 1245.39257812 853.5 c 128,-1,23
 1185.91210938 781 1185.91210938 781 1162.46679688 647 c 2,24,-1
 1049.28320312 0 l 1,25,-1
 730.682617188 0 l 1,26,-1
 839.672851562 623 l 2,27,28
 862.272460938 752.209960938 862.272460938 752.209960938 862.272460938 819.450195312 c 0,29,30
 862.272460938 855.759765625 862.272460938 855.759765625 855.68359375 874 c 0,31,32
 836.874023438 926 836.874023438 926 763.07421875 926 c 0,33,34
 677.57421875 926 677.57421875 926 618.092773438 853.5 c 0,35,36
 558.612304688 781 558.612304688 781 535.166992188 647 c 2,37,-1
 421.983398438 0 l 1,38,-1
 103.3828125 0 l 1,39,-1
 268.181640625 942 l 1,40,-1
 132.282226562 942 l 1,41,-1
 153.44140625 1063 l 1,42,-1
 607.94140625 1063 l 1,43,-1
 581.706054688 913 l 1,44,45
 653.768554688 1006 653.768554688 1006 733.29296875 1049 c 0,46,47
 812.817382812 1092 812.817382812 1092 911.817382812 1092 c 0,48,49
 1028.81738281 1092 1028.81738281 1092 1093.05859375 1042.5 c 128,-1,50
 1157.30078125 993 1157.30078125 993 1178.703125 889 c 1,0,1
EndSplineSet
EndChar
StartChar: n
Encoding: 110 110 110
Width: 1340
Flags: W
AnchorPoint: "below" 583.981 0 basechar 0
AnchorPoint: "above" 696.6 1092 basechar 0
LayerCount: 2
Back
Fore
SplineSet
103.3828125 0 m 1,0,-1
 268.181640625 942 l 1,1,-1
 132.282226562 942 l 1,2,-1
 153.44140625 1063 l 1,3,-1
 607.94140625 1063 l 1,4,-1
 581.706054688 913 l 1,5,6
 655.919921875 1008 655.919921875 1008 737.073242188 1050 c 0,7,8
 818.216796875 1092 818.216796875 1092 930.716796875 1092 c 0,9,10
 1091.81738281 1092 1091.81738281 1092 1155.70800781 986.5 c 0,11,12
 1196.63964844 918.9296875 1196.63964844 918.9296875 1196.63964844 810.530273438 c 0,13,14
 1196.63964844 749.700195312 1196.63964844 749.700195312 1183.74316406 676 c 2,15,-1
 1086.65136719 121 l 1,16,-1
 1223.45117188 121 l 1,17,-1
 1202.28320312 0 l 1,18,-1
 746.8828125 0 l 1,19,-1
 866.888671875 686 l 2,20,21
 879.15625 756.099609375 879.15625 756.099609375 879.15625 803.950195312 c 0,22,23
 879.15625 848.259765625 879.15625 848.259765625 868.643554688 873.5 c 0,24,25
 846.774414062 926 846.774414062 926 770.274414062 926 c 0,26,27
 673.973632812 926 673.973632812 926 615.240234375 847.5 c 0,28,29
 556.514648438 769 556.514648438 769 526.598632812 598 c 2,30,-1
 421.983398438 0 l 1,31,-1
 103.3828125 0 l 1,0,-1
EndSplineSet
EndChar
StartChar: o
Encoding: 111 111 111
Width: 1229
Flags: W
AnchorPoint: "below" 522.618 0 basechar 0
AnchorPoint: "above" 712.8 1092 basechar 0
LayerCount: 2
Back
Fore
SplineSet
537.318359375 84 m 0,0,1
 638.118164062 84 638.118164062 84 695.862304688 180 c 128,-1,2
 753.606445312 276 753.606445312 276 798.389648438 532 c 0,3,4
 827.630859375 699.1796875 827.630859375 699.1796875 827.630859375 797.91015625 c 0,5,6
 827.630859375 850.370117188 827.630859375 850.370117188 819.377929688 883.5 c 0,7,8
 795.58203125 979 795.58203125 979 693.881835938 979 c 128,-1,9
 592.181640625 979 592.181640625 979 533.907226562 882.5 c 128,-1,10
 475.623046875 786 475.623046875 786 431.190429688 532 c 0,11,12
 402.515625 368.110351562 402.515625 368.110351562 402.515625 269.580078125 c 0,13,14
 402.515625 215.41015625 402.515625 215.41015625 411.182617188 181 c 0,15,16
 435.618164062 84 435.618164062 84 537.318359375 84 c 0,0,1
517.544921875 -29 m 128,-1,18
 264.64453125 -29 264.64453125 -29 147.249023438 120.5 c 0,19,20
 62.8203125 228.01953125 62.8203125 228.01953125 62.8203125 393.73046875 c 0,21,22
 62.8203125 458.4296875 62.8203125 458.4296875 75.6904296875 532 c 0,23,24
 121.698242188 795 121.698242188 795 291.221679688 943.5 c 128,-1,25
 460.754882812 1092 460.754882812 1092 713.655273438 1092 c 0,26,27
 967.455078125 1092 967.455078125 1092 1084.57226562 943.5 c 0,28,29
 1168.66796875 836.879882812 1168.66796875 836.879882812 1168.66796875 671.240234375 c 0,30,31
 1168.66796875 606.169921875 1168.66796875 606.169921875 1155.69042969 532 c 0,32,33
 1109.85253906 270 1109.85253906 270 940.149414062 120.5 c 128,-1,17
 770.4453125 -29 770.4453125 -29 517.544921875 -29 c 128,-1,18
EndSplineSet
EndChar
StartChar: p
Encoding: 112 112 112
Width: 1288
Flags: W
AnchorPoint: "below" 209.419 -430 basechar 0
AnchorPoint: "above" 811.382 1092 basechar 0
LayerCount: 2
Back
Fore
SplineSet
541.611328125 584 m 2,0,-1
 523.2421875 479 l 2,1,2
 505.818359375 379.400390625 505.818359375 379.400390625 505.818359375 309.33984375 c 0,3,4
 505.818359375 248.559570312 505.818359375 248.559570312 518.930664062 210 c 0,5,6
 547.1640625 127 547.1640625 127 642.564453125 127 c 0,7,8
 740.6640625 127 740.6640625 127 796.103515625 215 c 0,9,10
 851.552734375 303 851.552734375 303 891.612304688 532 c 0,11,12
 916.379882812 673.559570312 916.379882812 673.559570312 916.379882812 761.049804688 c 0,13,14
 916.379882812 815.08984375 916.379882812 815.08984375 906.9296875 848.5 c 0,15,16
 882.189453125 936 882.189453125 936 784.088867188 936 c 0,17,18
 688.689453125 936 688.689453125 936 631.421875 853 c 0,19,20
 574.146484375 770 574.146484375 770 541.611328125 584 c 2,0,-1
285.641601562 942 m 1,21,-1
 148.841796875 942 l 1,22,-1
 170.009765625 1063 l 1,23,-1
 625.41015625 1063 l 1,24,-1
 601.793945312 928 l 1,25,26
 656.810546875 1011 656.810546875 1011 732.293945312 1051.5 c 0,27,28
 807.77734375 1092 807.77734375 1092 908.577148438 1092 c 0,29,30
 1112.87695312 1092 1112.87695312 1092 1204.17285156 942.5 c 0,31,32
 1265.04003906 842.83984375 1265.04003906 842.83984375 1265.04003906 693.639648438 c 0,33,34
 1265.04003906 619.01953125 1265.04003906 619.01953125 1249.81152344 532 c 0,35,36
 1204.15527344 271 1204.15527344 271 1060.4609375 121 c 0,37,38
 916.766601562 -29 916.766601562 -29 712.475585938 -29 c 0,39,40
 611.67578125 -29 611.67578125 -29 550.359375 11.5 c 128,-1,41
 489.041992188 52 489.041992188 52 463.05859375 135 c 1,42,-1
 364.922851562 -426 l 1,43,-1
 46.3232421875 -426 l 1,44,-1
 285.641601562 942 l 1,21,-1
EndSplineSet
EndChar
StartChar: q
Encoding: 113 113 113
Width: 1288
Flags: W
AnchorPoint: "below" 816.919 -430 basechar 0
AnchorPoint: "above" 738.481 1092 basechar 0
LayerCount: 2
Back
Fore
SplineSet
1225.69238281 996 m 1,0,-1
 998.97265625 -300 l 1,1,-1
 1143.63867188 -301.752929688 l 1,2,-1
 1122.24609375 -424 l 1,3,-1
 658.32421875 -426 l 1,4,-1
 756.4609375 135 l 1,5,6
 646.419921875 -29 646.419921875 -29 444.189453125 -29 c 0,7,8
 243.484375 -29 243.484375 -29 150.77734375 98.5 c 128,-1,9
 58.076171875 226 58.076171875 226 96.88671875 447.849609375 c 0,10,11
 144.421875 719.565429688 144.421875 719.565429688 371.990234375 916 c 0,12,13
 575.887695312 1092 575.887695312 1092 876.056640625 1092 c 0,14,15
 1117.67382812 1092 1117.67382812 1092 1225.69238281 996 c 1,0,-1
886.092773438 876 m 17,16,17
 881.327148438 936 881.327148438 936 823.356445312 936 c 0,18,19
 659.475585938 936 659.475585938 936 557.383789062 776 c 0,20,21
 492.939453125 675 492.939453125 675 454.459960938 455.049804688 c 0,22,23
 422.010742188 269.561523438 422.010742188 269.561523438 449.813476562 198.280273438 c 128,-1,24
 477.61328125 127 477.61328125 127 575.166015625 127 c 0,25,26
 669.147460938 127 669.147460938 127 726.62109375 210 c 128,-1,27
 784.1015625 293.005859375 784.1015625 293.005859375 816.640625 479 c 2,28,-1
 886.092773438 876 l 17,16,17
EndSplineSet
EndChar
StartChar: r
Encoding: 114 114 114
Width: 971
Flags: W
AnchorPoint: "below" 247.381 0 basechar 0
AnchorPoint: "above" 694.8 1092 basechar 0
LayerCount: 2
Back
Fore
SplineSet
1082.546875 1075 m 1,0,-1
 1027.08886719 758 l 1,1,-1
 925.388671875 758 l 1,2,3
 927.73828125 779.0703125 927.73828125 779.0703125 927.73828125 797.459960938 c 0,4,5
 927.73828125 853.280273438 927.73828125 853.280273438 906.120117188 884.5 c 0,6,7
 877.374023438 926 877.374023438 926 808.973632812 926 c 0,8,9
 704.57421875 926 704.57421875 926 626.435546875 824 c 0,10,11
 548.2890625 722 548.2890625 722 516.626953125 541 c 2,12,-1
 421.983398438 0 l 1,13,-1
 103.3828125 0 l 1,14,-1
 268.181640625 942 l 1,15,-1
 122.381835938 942 l 1,16,-1
 143.541015625 1063 l 1,17,-1
 607.94140625 1063 l 1,18,-1
 574.883789062 874 l 1,19,20
 641.096679688 985 641.096679688 985 727.407226562 1038.5 c 0,21,22
 813.716796875 1092 813.716796875 1092 925.317382812 1092 c 0,23,24
 953.216796875 1092 953.216796875 1092 992.484375 1087.5 c 0,25,26
 1031.7421875 1083 1031.7421875 1083 1082.546875 1075 c 1,0,-1
EndSplineSet
EndChar
StartChar: s
Encoding: 115 115 115
Width: 1037
Flags: W
AnchorPoint: "below" 427.219 0 basechar 0
AnchorPoint: "above" 617.4 1092 basechar 0
LayerCount: 2
Back
Fore
SplineSet
50.400390625 328 m 1,0,-1
 152.099609375 328 l 1,1,2
 151.200195312 313 151.200195312 313 151.200195312 299 c 0,3,4
 151.200195312 201 151.200195312 201 204.299804688 142.5 c 128,-1,5
 257.400390625 84 257.400390625 84 364.5 84 c 0,6,7
 574.200195312 84 574.200195312 84 599.400390625 229 c 0,8,9
 603 248 603 248 603 276 c 0,10,11
 603 303 603 303 580.049804688 333 c 128,-1,12
 557.099609375 363 557.099609375 363 467.099609375 389 c 2,13,-1
 342 426 l 2,14,15
 200.700195312 467 200.700195312 467 155.700195312 532 c 128,-1,16
 110.700195312 597 110.700195312 597 110.700195312 677 c 0,17,18
 110.700195312 711 110.700195312 711 117 750 c 0,19,20
 147.599609375 923 147.599609375 923 270.450195312 1007.5 c 128,-1,21
 393.299804688 1092 393.299804688 1092 589.5 1092 c 128,-1,22
 785.700195312 1092 785.700195312 1092 999.900390625 1028 c 1,23,-1
 952.200195312 760 l 1,24,-1
 850.5 760 l 1,25,26
 853.200195312 779 853.200195312 779 853.200195312 796 c 0,27,28
 853.200195312 979 853.200195312 979 649.799804688 979 c 0,29,30
 445.5 979 445.5 979 422.099609375 844 c 0,31,32
 419.400390625 828 419.400390625 828 419.400390625 805 c 0,33,34
 419.400390625 740 419.400390625 740 530.099609375 707 c 2,35,-1
 654.299804688 670 l 2,36,37
 833.400390625 617 833.400390625 617 882.900390625 550.5 c 128,-1,38
 932.400390625 484 932.400390625 484 932.400390625 398 c 0,39,40
 932.400390625 363 932.400390625 363 925.200195312 322 c 0,41,42
 893.700195312 142 893.700195312 142 763.200195312 56.5 c 128,-1,43
 632.700195312 -29 632.700195312 -29 388.799804688 -29 c 0,44,45
 211.5 -29 211.5 -29 -0.900390625 31 c 1,46,-1
 50.400390625 328 l 1,0,-1
EndSplineSet
EndChar
StartChar: t
Encoding: 116 116 116
Width: 851
Flags: W
AnchorPoint: "above" 478.98 1465 basechar 0
AnchorPoint: "below" 381.989 0 basechar 0
LayerCount: 2
Back
Fore
SplineSet
228.185546875 942 m 1,0,-1
 89.5859375 942 l 1,1,-1
 110.75390625 1063 l 1,2,-1
 249.353515625 1063 l 1,3,-1
 307.080078125 1393 l 1,4,-1
 625.6796875 1393 l 1,5,-1
 567.954101562 1063 l 1,6,-1
 833.454101562 1063 l 1,7,-1
 812.286132812 942 l 1,8,-1
 546.786132812 942 l 1,9,-1
 432.900390625 291 l 2,10,11
 417.40234375 202.440429688 417.40234375 202.440429688 417.40234375 156.509765625 c 0,12,13
 417.40234375 130.33984375 417.40234375 130.33984375 422.432617188 118 c 0,14,15
 436.284179688 84 436.284179688 84 488.484375 84 c 0,16,17
 546.083984375 84 546.083984375 84 581.5078125 127 c 128,-1,18
 616.931640625 170 616.931640625 170 634.47265625 260 c 1,19,-1
 768.573242188 260 l 1,20,21
 732.483398438 100 732.483398438 100 650.546875 35.5 c 0,22,23
 568.620117188 -29 568.620117188 -29 395.8203125 -29 c 0,24,25
 198.719726562 -29 198.719726562 -29 140.499023438 39.5 c 0,26,27
 102.942382812 83.7001953125 102.942382812 83.7001953125 102.942382812 175.549804688 c 0,28,29
 102.942382812 226.0703125 102.942382812 226.0703125 114.299804688 291 c 2,30,-1
 228.185546875 942 l 1,0,-1
EndSplineSet
EndChar
StartChar: u
Encoding: 117 117 117
Width: 1340
Flags: W
AnchorPoint: "below" 545.855 0 basechar 0
AnchorPoint: "above" 733.5 1092 basechar 0
LayerCount: 2
Back
Fore
SplineSet
1236.71679688 1063 m 1,0,-1
 1071.92675781 121 l 1,1,-1
 1207.82714844 121 l 1,2,-1
 1186.65917969 0 l 1,3,-1
 731.258789062 0 l 1,4,-1
 757.494140625 150 l 1,5,6
 684.1796875 55 684.1796875 55 603.02734375 13 c 0,7,8
 521.8828125 -29 521.8828125 -29 409.3828125 -29 c 0,9,10
 248.283203125 -29 248.283203125 -29 184.391601562 76.5 c 0,11,12
 143.459960938 144.0703125 143.459960938 144.0703125 143.459960938 252.459960938 c 0,13,14
 143.459960938 313.299804688 143.459960938 313.299804688 156.357421875 387 c 2,15,-1
 253.44921875 942 l 1,16,-1
 116.649414062 942 l 1,17,-1
 137.817382812 1063 l 1,18,-1
 593.216796875 1063 l 1,19,-1
 484.578125 442 l 2,20,21
 462.752929688 317.25 462.752929688 317.25 462.752929688 249.860351562 c 0,22,23
 462.752929688 210.290039062 462.752929688 210.290039062 470.27734375 190.5 c 0,24,25
 490.625976562 137 490.625976562 137 569.826171875 137 c 0,26,27
 666.125976562 137 666.125976562 137 724.491210938 216 c 0,28,29
 782.865234375 295 782.865234375 295 812.952148438 467 c 2,30,-1
 917.216796875 1063 l 1,31,-1
 1236.71679688 1063 l 1,0,-1
EndSplineSet
EndChar
StartChar: v
Encoding: 118 118 118
Width: 1071
Flags: W
AnchorPoint: "above" 643.455 1092 basechar 0
AnchorPoint: "below" 451.544 -5 basechar 0
LayerCount: 2
Back
Fore
SplineSet
573.919921875 0 m 1,0,-1
 318.3203125 0 l 1,1,-1
 143.810546875 942 l 1,2,-1
 38.5107421875 942 l 1,3,-1
 59.6787109375 1063 l 1,4,-1
 449.37890625 1063 l 1,5,-1
 595.952148438 270 l 1,6,7
 619.358398438 270.428710938 619.358398438 270.428710938 763.818359375 484 c 0,8,9
 896.46484375 688.306640625 896.46484375 688.306640625 954.7109375 942 c 1,10,-1
 849.411132812 942 l 1,11,-1
 870.977539062 1065.26953125 l 1,12,-1
 1084.77929688 1063 l 1,13,14
 1087.03808594 814.2734375 1087.03808594 814.2734375 905.759765625 480 c 0,15,16
 734.400390625 164 734.400390625 164 573.919921875 0 c 1,0,-1
EndSplineSet
EndChar
StartChar: w
Encoding: 119 119 119
Width: 1586
Flags: W
AnchorPoint: "below" 710.719 0 basechar 0
AnchorPoint: "above" 892.503 1092 basechar 0
LayerCount: 2
Back
Fore
SplineSet
1185.02148438 300 m 1,0,1
 1193.12109375 308 1193.12109375 308 1320.02148438 482 c 0,2,3
 1448.07324219 664.889648438 1448.07324219 664.889648438 1499.2109375 942 c 1,4,-1
 1373.71484375 939.736328125 l 1,5,-1
 1395.27929688 1063 l 1,6,-1
 1640.07910156 1063 l 1,7,8
 1588.6796875 680.727539062 1588.6796875 680.727539062 1475.71191406 485 c 0,9,10
 1301.40039062 180 1301.40039062 180 1129.22070312 0 c 1,11,-1
 909.62109375 0 l 1,12,-1
 823.631835938 666 l 1,13,-1
 502.8203125 0 l 1,14,-1
 285.020507812 0 l 1,15,-1
 160.010742188 942 l 1,16,-1
 55.6103515625 942 l 1,17,-1
 76.7783203125 1063 l 1,18,-1
 469.178710938 1063 l 1,19,-1
 560.717773438 367 l 1,20,-1
 896.676757812 1063 l 1,21,-1
 1086.57910156 1063 l 1,22,-1
 1185.02148438 300 l 1,0,1
EndSplineSet
EndChar
StartChar: x
Encoding: 120 120 120
Width: 1098
Flags: W
AnchorPoint: "above" 643.455 1092 basechar 0
AnchorPoint: "below" 450.669 -10 basechar 0
LayerCount: 2
Back
Fore
SplineSet
672.732421875 678 m 1,0,-1
 986.678710938 1063 l 1,1,-1
 1115.37890625 1063 l 1,2,-1
 705.708007812 563 l 1,3,-1
 912.7890625 121 l 1,4,-1
 1039.68945312 121 l 1,5,-1
 1018.52148438 0 l 1,6,-1
 610.821289062 0 l 1,7,-1
 423.567382812 401 l 1,8,-1
 94.220703125 0 l 1,9,-1
 -33.5791015625 0 l 1,10,-1
 388.2421875 518 l 1,11,-1
 187.911132812 942 l 1,12,-1
 80.810546875 942 l 1,13,-1
 101.978515625 1063 l 1,14,-1
 491.678710938 1063 l 1,15,-1
 672.732421875 678 l 1,0,-1
EndSplineSet
EndChar
StartChar: y
Encoding: 121 121 121
Width: 1071
Flags: W
AnchorPoint: "below" 416.992 -430 basechar 0
AnchorPoint: "above" 634.203 1092 basechar 0
LayerCount: 2
Back
Fore
SplineSet
446.665039062 -272.994140625 m 1,0,-1
 190.80859375 942 l 1,1,-1
 87.30859375 942 l 1,2,-1
 108.4765625 1063 l 1,3,-1
 499.077148438 1063 l 1,4,-1
 713.71875 34.970703125 l 1,5,6
 817.249023438 201.142578125 817.249023438 201.142578125 886.524414062 388.572265625 c 128,-1,7
 955.799804688 576 955.799804688 576 1024.20019531 940 c 1,8,-1
 896.150390625 941 l 1,9,-1
 917.31640625 1062 l 1,10,-1
 1174.9765625 1063 l 1,11,12
 1152.80957031 934.889648438 1152.80957031 934.889648438 1120.29296875 769.76171875 c 0,13,14
 1040.40039062 364 1040.40039062 364 940.418945312 176 c 0,15,16
 676.877929688 -313.836914062 676.877929688 -313.836914062 465.217773438 -404 c 0,17,18
 345.495117188 -455 345.495117188 -455 173.224609375 -455 c 0,19,20
 88.0625 -455 88.0625 -455 -35.26171875 -412 c 1,21,-1
 3.58203125 -190 l 1,22,-1
 105.1015625 -191 l 1,23,24
 101.737304688 -215.07421875 101.737304688 -215.07421875 101.737304688 -235.240234375 c 0,25,26
 101.737304688 -304.348632812 101.737304688 -304.348632812 143.549804688 -325.887695312 c 0,27,28
 162.893554688 -335.8515625 162.893554688 -335.8515625 201.98828125 -342 c 0,29,30
 223.416015625 -345.370117188 223.416015625 -345.370117188 244.9453125 -345.370117188 c 0,31,32
 344.719726562 -345.370117188 344.719726562 -345.370117188 446.665039062 -272.994140625 c 1,0,-1
EndSplineSet
EndChar
StartChar: z
Encoding: 122 122 122
Width: 1046
Flags: W
AnchorPoint: "below" 430.818 0 basechar 0
AnchorPoint: "above" 621 1092 basechar 0
LayerCount: 2
Back
Fore
SplineSet
1056.76171875 944 m 1,0,-1
 426.3359375 194.81640625 l 1,1,2
 456.70703125 183.248046875 456.70703125 183.248046875 482.36328125 166 c 0,3,4
 596.293945312 98 596.293945312 98 667.567382812 98 c 0,5,6
 775.567382812 98 775.567382812 98 937.737304688 243 c 1,7,-1
 910.088867188 85 l 1,8,9
 750.203125 -83 750.203125 -83 606.203125 -83 c 0,10,11
 531.77734375 -79.2333984375 531.77734375 -79.2333984375 416.9140625 -14.583984375 c 0,12,13
 287.952148438 58 287.952148438 58 237.561523438 58 c 0,14,15
 187.168945312 58 187.168945312 58 134.995117188 35 c 128,-1,16
 82.822265625 12 82.822265625 12 61.47265625 -2 c 1,17,-1
 -28.1796875 0 l 1,18,-1
 -7.0107421875 121 l 1,19,-1
 621.4296875 868.793945312 l 1,20,21
 592.01953125 880.263671875 592.01953125 880.263671875 567.0390625 897 c 0,22,23
 453.134765625 965 453.134765625 965 381.834960938 965 c 0,24,25
 273.834960938 965 273.834960938 965 111.66796875 820 c 1,26,-1
 139.309570312 978 l 1,27,28
 299.198242188 1146 299.198242188 1146 443.198242188 1146 c 0,29,30
 517.619140625 1142.23046875 517.619140625 1142.23046875 632.485351562 1077.58007812 c 0,31,32
 761.44140625 1005 761.44140625 1005 811.836914062 1005 c 0,33,34
 862.232421875 1005 862.232421875 1005 914.409179688 1028 c 128,-1,35
 966.58203125 1051 966.58203125 1051 987.9296875 1065 c 1,36,-1
 1077.57910156 1063 l 1,37,-1
 1056.76171875 944 l 1,0,-1
EndSplineSet
EndChar
StartChar: braceleft
Encoding: 123 123 123
Width: 1185
Flags: W
LayerCount: 2
Back
Fore
SplineSet
875.547851562 -213 m 1,0,-1
 854.379882812 -334 l 1,1,-1
 721.1796875 -334 l 2,2,3
 508.780273438 -334 508.780273438 -334 439.265625 -309.5 c 128,-1,4
 369.751953125 -285 369.751953125 -285 335.598632812 -223 c 0,5,6
 315.796875 -187 315.796875 -187 314.16796875 -132 c 128,-1,7
 312.540039062 -77 312.540039062 -77 332.1328125 35 c 2,8,-1
 375.869140625 285 l 2,9,10
 402.28515625 436 402.28515625 436 364.194335938 493.5 c 128,-1,11
 326.103515625 551 326.103515625 551 199.203125 551 c 2,12,-1
 144.303710938 551 l 1,13,-1
 165.471679688 672 l 1,14,-1
 220.37109375 672 l 2,15,16
 347.271484375 672 347.271484375 672 405.48046875 729.5 c 128,-1,17
 463.689453125 787 463.689453125 787 490.10546875 938 c 2,18,-1
 533.840820312 1188 l 2,19,20
 553.435546875 1300 553.435546875 1300 574.21875 1354.5 c 128,-1,21
 595.00390625 1409 595.00390625 1409 627.577148438 1446 c 0,22,23
 683.248046875 1507 683.248046875 1507 761.333984375 1531.5 c 128,-1,24
 839.419921875 1556 839.419921875 1556 1051.82128906 1556 c 2,25,-1
 1185.02148438 1556 l 1,26,-1
 1164.02441406 1436 l 1,27,-1
 1071.32421875 1436 l 2,28,29
 970.524414062 1436 970.524414062 1436 925.407226562 1389 c 128,-1,30
 880.283203125 1342 880.283203125 1342 856.490234375 1206 c 2,31,-1
 809.256835938 936 l 2,32,33
 781.44140625 777 781.44140625 777 725.081054688 709.5 c 128,-1,34
 668.72265625 642 668.72265625 642 547.375 612 c 1,35,36
 659.326171875 578 659.326171875 578 691.430664062 512 c 128,-1,37
 723.53515625 446 723.53515625 446 695.71875 287 c 2,38,-1
 648.309570312 16 l 2,39,40
 624.692382812 -119 624.692382812 -119 653.370117188 -166 c 128,-1,41
 682.047851562 -213 682.047851562 -213 782.84765625 -213 c 2,42,-1
 875.547851562 -213 l 1,0,-1
EndSplineSet
EndChar
StartChar: bar
Encoding: 124 124 124
Width: 670
Flags: W
LayerCount: 2
Back
Fore
SplineSet
431.099609375 1565 m 1,0,-1
 431.099609375 -483 l 1,1,-1
 237.599609375 -483 l 1,2,-1
 237.599609375 1565 l 1,3,-1
 431.099609375 1565 l 1,0,-1
EndSplineSet
EndChar
StartChar: braceright
Encoding: 125 125 125
Width: 1185
Flags: W
LayerCount: 2
Back
Fore
SplineSet
23.248046875 -213 m 1,0,-1
 114.147460938 -213 l 2,1,2
 214.047851562 -213 214.047851562 -213 259.620117188 -166 c 128,-1,3
 305.192382812 -119 305.192382812 -119 328.809570312 16 c 2,4,-1
 376.21875 287 l 2,5,6
 403.684570312 444 403.684570312 444 459.505859375 511 c 128,-1,7
 515.326171875 578 515.326171875 578 640.07421875 612 c 1,8,9
 528.322265625 642 528.322265625 642 495.21875 710 c 128,-1,10
 462.116210938 778 462.116210938 778 489.756835938 936 c 2,11,-1
 536.990234375 1206 l 2,12,13
 560.783203125 1342 560.783203125 1342 531.655273438 1389 c 128,-1,14
 502.526367188 1436 502.526367188 1436 402.626953125 1436 c 2,15,-1
 311.7265625 1436 l 1,16,-1
 332.719726562 1556 l 1,17,-1
 464.120117188 1556 l 2,18,19
 676.520507812 1556 676.520507812 1556 746.034179688 1531.5 c 128,-1,20
 815.548828125 1507 815.548828125 1507 849.876953125 1446 c 0,21,22
 869.50390625 1409 869.50390625 1409 871.21875 1354.5 c 128,-1,23
 872.935546875 1300 872.935546875 1300 853.340820312 1188 c 2,24,-1
 809.60546875 938 l 2,25,26
 783.189453125 787 783.189453125 787 821.280273438 729.5 c 128,-1,27
 859.37109375 672 859.37109375 672 985.374023438 672 c 2,28,-1
 1041.17382812 672 l 1,29,-1
 1020.00585938 551 l 1,30,-1
 964.206054688 551 l 2,31,32
 838.203125 551 838.203125 551 779.994140625 493.5 c 128,-1,33
 721.78515625 436 721.78515625 436 695.369140625 285 c 2,34,-1
 651.6328125 35 l 2,35,36
 632.040039062 -77 632.040039062 -77 611.16796875 -132 c 128,-1,37
 590.296875 -187 590.296875 -187 557.8984375 -223 c 0,38,39
 502.051757812 -285 502.051757812 -285 423.965820312 -309.5 c 128,-1,40
 345.879882812 -334 345.879882812 -334 133.479492188 -334 c 2,41,-1
 2.0791015625 -334 l 1,42,-1
 23.248046875 -213 l 1,0,-1
EndSplineSet
EndChar
StartChar: asciitilde
Encoding: 126 126 126
Width: 1544
Flags: W
LayerCount: 2
Back
Fore
SplineSet
1349.09960938 831 m 1,0,-1
 1349.09960938 625 l 1,1,2
 1265.40039062 539 1265.40039062 539 1181.25 498 c 128,-1,3
 1097.09960938 457 1097.09960938 457 1006.20019531 457 c 0,4,5
 920.700195312 457 920.700195312 457 783.900390625 515 c 0,6,7
 768.599609375 521 768.599609375 521 761.400390625 524 c 0,8,9
 755.099609375 527 755.099609375 527 743.400390625 532 c 0,10,11
 588.599609375 598 588.599609375 598 501.299804688 598 c 0,12,13
 432 598 432 598 356.849609375 562 c 128,-1,14
 281.700195312 526 281.700195312 526 195.299804688 453 c 1,15,-1
 195.299804688 659 l 1,16,17
 281.700195312 746 281.700195312 746 364.950195312 786.5 c 128,-1,18
 448.200195312 827 448.200195312 827 538.200195312 827 c 0,19,20
 623.700195312 827 623.700195312 827 759.599609375 770 c 0,21,22
 775.799804688 763 775.799804688 763 783 760 c 2,23,-1
 796.5 754 l 2,24,25
 952.200195312 686 952.200195312 686 1043.09960938 686 c 0,26,27
 1112.40039062 686 1112.40039062 686 1187.54980469 722 c 128,-1,28
 1262.70019531 758 1262.70019531 758 1349.09960938 831 c 1,0,-1
EndSplineSet
EndChar
StartChar: exclamdown
Encoding: 161 161 161
Width: 809
Flags: W
LayerCount: 2
Back
Fore
SplineSet
675 956 m 0,0,1
 661.5 878 661.5 878 601.200195312 823 c 128,-1,2
 540.900390625 768 540.900390625 768 470.700195312 768 c 0,3,4
 399.599609375 768 399.599609375 768 359.549804688 823 c 128,-1,5
 319.5 878 319.5 878 333.900390625 956 c 0,6,7
 347.400390625 1035 347.400390625 1035 407.25 1091 c 128,-1,8
 467.099609375 1147 467.099609375 1147 537.299804688 1147 c 0,9,10
 607.5 1147 607.5 1147 648 1090.5 c 128,-1,11
 688.5 1034 688.5 1034 675 956 c 0,0,1
440.099609375 -373 m 1,12,-1
 102.599609375 -373 l 1,13,-1
 355.5 469 l 1,14,-1
 388.799804688 659 l 1,15,-1
 513.900390625 659 l 1,16,-1
 480.599609375 469 l 1,17,-1
 440.099609375 -373 l 1,12,-1
EndSplineSet
Substitution2: "'case' Case-Sensitive Forms" exclamdown.case
EndChar
StartChar: cent
Encoding: 162 162 162
Width: 1282
Flags: W
LayerCount: 2
Back
Fore
SplineSet
589.087890625 94 m 1,0,-1
 742.162109375 969 l 1,1,2
 648.688476562 944 648.688476562 944 591.956054688 843.5 c 128,-1,3
 535.224609375 743 535.224609375 743 498.3125 532 c 0,4,5
 461.399414062 321 461.399414062 321 482.606445312 221 c 128,-1,6
 503.810546875 121 503.810546875 121 589.087890625 94 c 1,0,-1
1075.3203125 332 m 1,7,8
 1019.06054688 175 1019.06054688 175 918.350585938 85.5 c 128,-1,9
 817.642578125 -4 817.642578125 -4 677.51953125 -23 c 1,10,-1
 629.235351562 -299 l 1,11,-1
 520.334960938 -299 l 1,12,-1
 567.569335938 -29 l 1,13,14
 319.319335938 -23 319.319335938 -23 209.048828125 123.5 c 128,-1,15
 98.77734375 270 98.77734375 270 144.61328125 532 c 0,16,17
 190.447265625 794 190.447265625 794 351.801757812 939.5 c 128,-1,18
 513.155273438 1085 513.155273438 1085 763.6796875 1092 c 1,19,-1
 809.865234375 1356 l 1,20,-1
 918.764648438 1356 l 1,21,-1
 871.706054688 1087 l 1,22,23
 924.1015625 1083 924.1015625 1083 993.231445312 1064 c 128,-1,24
 1062.36035156 1045 1062.36035156 1045 1162.08886719 1008 c 1,25,-1
 1110.47363281 713 l 1,26,-1
 1008.77441406 713 l 1,27,28
 1017.32421875 839 1017.32421875 839 979.100585938 903.5 c 128,-1,29
 940.88671875 968 940.88671875 968 852.811523438 979 c 1,30,-1
 696.9375 88 l 1,31,32
 781.63671875 104 781.63671875 104 839.108398438 165 c 128,-1,33
 896.580078125 226 896.580078125 226 925.919921875 332 c 1,34,-1
 1075.3203125 332 l 1,7,8
EndSplineSet
EndChar
StartChar: sterling
Encoding: 163 163 163
Width: 1282
Flags: W
LayerCount: 2
Back
Fore
SplineSet
1199.62792969 1202 m 1,0,-1
 1091.62792969 1202 l 1,1,2
 1103.19335938 1299 1103.19335938 1299 1068.09277344 1353 c 128,-1,3
 1032.984375 1407 1032.984375 1407 957.383789062 1407 c 0,4,5
 852.087890625 1407 852.087890625 1407 793.154296875 1332.5 c 128,-1,6
 734.221679688 1258 734.221679688 1258 703.606445312 1083 c 2,7,-1
 656.721679688 815 l 1,8,-1
 973.521484375 815 l 1,9,-1
 952.352539062 694 l 1,10,-1
 635.553710938 694 l 1,11,-1
 538.111328125 137 l 1,12,-1
 916.110351562 137 l 1,13,-1
 955.998046875 365 l 1,14,-1
 1079.29785156 365 l 1,15,-1
 1015.44335938 0 l 1,16,-1
 -0.65625 0 l 1,17,-1
 20.51171875 121 l 1,18,-1
 194.211914062 121 l 1,19,-1
 294.454101562 694 l 1,20,-1
 120.75390625 694 l 1,21,-1
 141.921875 815 l 1,22,-1
 315.622070312 815 l 1,23,-1
 364.081054688 1092 l 2,24,25
 401.869140625 1308 401.869140625 1308 540.5625 1414 c 128,-1,26
 679.255859375 1520 679.255859375 1520 925.857421875 1520 c 0,27,28
 984.357421875 1520 984.357421875 1520 1064.23242188 1511 c 128,-1,29
 1144.10742188 1502 1144.10742188 1502 1249.13671875 1485 c 1,30,-1
 1199.62792969 1202 l 1,0,-1
EndSplineSet
EndChar
StartChar: currency
Encoding: 164 164 164
Width: 1172
Flags: W
LayerCount: 2
Back
Fore
SplineSet
587.700195312 422 m 0,0,1
 669.599609375 422 669.599609375 422 727.200195312 485.5 c 128,-1,2
 784.799804688 549 784.799804688 549 784.799804688 641 c 0,3,4
 784.799804688 733 784.799804688 733 727.650390625 796.5 c 128,-1,5
 670.5 860 670.5 860 587.700195312 860 c 0,6,7
 505.799804688 860 505.799804688 860 448.200195312 796.5 c 128,-1,8
 390.599609375 733 390.599609375 733 390.599609375 641 c 0,9,10
 390.599609375 548 390.599609375 548 447.299804688 485 c 128,-1,11
 504 422 504 422 587.700195312 422 c 0,0,1
392.400390625 268 m 1,12,-1
 204.299804688 61 l 1,13,-1
 68.400390625 215 l 1,14,-1
 256.5 424 l 1,15,16
 228.599609375 470 228.599609375 470 215.549804688 523.5 c 128,-1,17
 202.5 577 202.5 577 202.5 641 c 0,18,19
 202.5 704 202.5 704 216 758 c 128,-1,20
 229.5 812 229.5 812 256.5 858 c 1,21,-1
 68.400390625 1063 l 1,22,-1
 206.099609375 1221 l 1,23,-1
 392.400390625 1010 l 1,24,25
 435.599609375 1040 435.599609375 1040 484.200195312 1054.5 c 128,-1,26
 532.799804688 1069 532.799804688 1069 587.700195312 1069 c 0,27,28
 637.200195312 1069 637.200195312 1069 686.25 1054.5 c 128,-1,29
 735.299804688 1040 735.299804688 1040 786.599609375 1010 c 1,30,-1
 971.099609375 1221 l 1,31,-1
 1107.90039062 1067 l 1,32,-1
 919.799804688 862 l 1,33,34
 946.799804688 806 946.799804688 806 959.849609375 750.5 c 128,-1,35
 972.900390625 695 972.900390625 695 972.900390625 641 c 0,36,37
 972.900390625 578 972.900390625 578 959.849609375 525.5 c 128,-1,38
 946.799804688 473 946.799804688 473 919.799804688 426 c 1,39,-1
 1107.90039062 215 l 1,40,-1
 967.5 61 l 1,41,-1
 781.200195312 272 l 1,42,43
 739.799804688 242 739.799804688 242 692.099609375 227.5 c 128,-1,44
 644.400390625 213 644.400390625 213 587.700195312 213 c 0,45,46
 535.5 213 535.5 213 486.900390625 227 c 128,-1,47
 438.299804688 241 438.299804688 241 392.400390625 268 c 1,12,-1
EndSplineSet
EndChar
StartChar: yen
Encoding: 165 165 165
Width: 1282
Flags: W
LayerCount: 2
Back
Fore
SplineSet
162.806640625 0 m 1,0,-1
 183.973632812 121 l 1,1,-1
 354.973632812 121 l 1,2,-1
 415.50390625 467 l 1,3,-1
 52.8037109375 467 l 1,4,-1
 73.271484375 584 l 1,5,-1
 435.971679688 584 l 1,6,-1
 446.293945312 643 l 1,7,-1
 415.010742188 778 l 1,8,-1
 107.2109375 778 l 1,9,-1
 127.678710938 895 l 1,10,-1
 385.078125 895 l 1,11,-1
 267.826171875 1372 l 1,12,-1
 144.526367188 1372 l 1,13,-1
 165.693359375 1493 l 1,14,-1
 790.293945312 1493 l 1,15,-1
 769.126953125 1372 l 1,16,-1
 616.126953125 1372 l 1,17,-1
 751.932617188 821 l 1,18,-1
 1078.72167969 1372 l 1,19,-1
 942.822265625 1372 l 1,20,-1
 963.990234375 1493 l 1,21,-1
 1356.38964844 1493 l 1,22,-1
 1335.22167969 1372 l 1,23,-1
 1213.72167969 1372 l 1,24,-1
 931.3828125 895 l 1,25,-1
 1194.18261719 895 l 1,26,-1
 1173.70800781 778 l 1,27,-1
 858.7109375 778 l 1,28,-1
 790.717773438 662 l 1,29,-1
 777.071289062 584 l 1,30,-1
 1139.76855469 584 l 1,31,-1
 1119.30273438 467 l 1,32,-1
 756.603515625 467 l 1,33,-1
 696.073242188 121 l 1,34,-1
 867.073242188 121 l 1,35,-1
 845.90625 0 l 1,36,-1
 162.806640625 0 l 1,0,-1
EndSplineSet
EndChar
StartChar: brokenbar
Encoding: 166 166 166
Width: 670
Flags: W
LayerCount: 2
Back
Fore
SplineSet
431.099609375 1432 m 1,0,-1
 431.099609375 674 l 1,1,-1
 237.599609375 674 l 1,2,-1
 237.599609375 1432 l 1,3,-1
 431.099609375 1432 l 1,0,-1
431.099609375 408 m 1,4,-1
 431.099609375 -350 l 1,5,-1
 237.599609375 -350 l 1,6,-1
 237.599609375 408 l 1,7,-1
 431.099609375 408 l 1,4,-1
EndSplineSet
EndChar
StartChar: section
Encoding: 167 167 167
Width: 963
Flags: W
LayerCount: 2
Back
Fore
SplineSet
949.436523438 1475 m 1,0,-1
 907.452148438 1235 l 1,1,-1
 800.354492188 1235 l 1,2,3
 809.999023438 1321 809.999023438 1321 770.721679688 1364 c 128,-1,4
 731.444335938 1407 731.444335938 1407 644.14453125 1407 c 0,5,6
 571.244140625 1407 571.244140625 1407 523.821289062 1370 c 128,-1,7
 476.3984375 1333 476.3984375 1333 464.677734375 1266 c 0,8,9
 456.456054688 1219 456.456054688 1219 474.982421875 1186 c 128,-1,10
 493.509765625 1153 493.509765625 1153 566.287109375 1106 c 2,11,-1
 675.190429688 1034 l 1,12,13
 828.146484375 936 828.146484375 936 876.901367188 852 c 128,-1,14
 925.659179688 768 925.659179688 768 905.53515625 653 c 0,15,16
 887.34375 549 887.34375 549 823.098632812 475 c 128,-1,17
 758.852539062 401 758.852539062 401 648.73046875 358 c 1,18,19
 715.208007812 311 715.208007812 311 738.749023438 247.5 c 128,-1,20
 762.290039062 184 762.290039062 184 746.545898438 94 c 0,21,22
 722.577148438 -43 722.577148438 -43 611.182617188 -119 c 128,-1,23
 499.787109375 -195 499.787109375 -195 319.787109375 -195 c 0,24,25
 245.086914062 -195 245.086914062 -195 165.649414062 -183.5 c 128,-1,26
 86.2109375 -172 86.2109375 -172 -1.740234375 -150 c 1,27,-1
 40.2451171875 90 l 1,28,-1
 146.4453125 90 l 1,29,30
 137.900390625 0 137.900390625 0 177.528320312 -41 c 128,-1,31
 217.155273438 -82 217.155273438 -82 312.555664062 -82 c 0,32,33
 390.85546875 -82 390.85546875 -82 439.178710938 -45 c 128,-1,34
 487.500976562 -8 487.500976562 -8 499.572265625 61 c 0,35,36
 507.793945312 108 507.793945312 108 489.717773438 141 c 128,-1,37
 471.640625 174 471.640625 174 397.962890625 221 c 2,38,-1
 289.059570312 293 l 2,39,40
 137.177734375 392 137.177734375 392 87.9736328125 476 c 128,-1,41
 38.7685546875 560 38.7685546875 560 58.7119140625 674 c 0,42,43
 76.7314453125 777 76.7314453125 777 141.250976562 850 c 128,-1,44
 205.772460938 923 205.772460938 923 316.96875 967 c 1,45,46
 250.317382812 1013 250.317382812 1013 226.05078125 1077.5 c 128,-1,47
 201.784179688 1142 201.784179688 1142 217.354492188 1231 c 0,48,49
 241.146484375 1367 241.146484375 1367 352.629882812 1443.5 c 128,-1,50
 464.11328125 1520 464.11328125 1520 640.512695312 1520 c 0,51,52
 707.11328125 1520 707.11328125 1520 783.400390625 1508.5 c 128,-1,53
 859.689453125 1497 859.689453125 1497 949.436523438 1475 c 1,0,-1
397.22265625 901 m 1,54,55
 351.850585938 868 351.850585938 868 324.327148438 829 c 128,-1,56
 296.8046875 790 296.8046875 790 288.932617188 745 c 0,57,58
 278.260742188 684 278.260742188 684 310.2890625 633 c 128,-1,59
 342.317382812 582 342.317382812 582 431.169921875 524 c 2,60,-1
 566.975585938 436 l 1,61,62
 613.598632812 471 613.598632812 471 641.658203125 510.5 c 128,-1,63
 669.71875 550 669.71875 550 677.06640625 592 c 0,64,65
 687.563476562 652 687.563476562 652 654.634765625 703 c 128,-1,66
 621.70703125 754 621.70703125 754 531.228515625 813 c 2,67,-1
 397.22265625 901 l 1,54,55
EndSplineSet
EndChar
StartChar: dieresis
Encoding: 168 168 168
Width: 921
Flags: W
LayerCount: 2
Back
Fore
SplineSet
301.5 1468 m 0,0,1
 312.299804688 1528 312.299804688 1528 359.099609375 1571 c 128,-1,2
 405.900390625 1614 405.900390625 1614 459.900390625 1614 c 128,-1,3
 513.900390625 1614 513.900390625 1614 545.400390625 1571 c 0,4,5
 576 1528 576 1528 565.200195312 1468 c 128,-1,6
 554.400390625 1408 554.400390625 1408 508.5 1364 c 0,7,8
 462.599609375 1321 462.599609375 1321 409.5 1321 c 0,9,10
 355.5 1321 355.5 1321 323.099609375 1365 c 0,11,12
 291.599609375 1409 291.599609375 1409 301.5 1468 c 0,0,1
703.799804688 1468 m 0,13,14
 714.599609375 1528 714.599609375 1528 761.400390625 1571 c 0,15,16
 807.299804688 1614 807.299804688 1614 861.299804688 1614 c 128,-1,17
 915.299804688 1614 915.299804688 1614 947.700195312 1571 c 128,-1,18
 980.099609375 1528 980.099609375 1528 969.299804688 1468 c 0,19,20
 959.400390625 1409 959.400390625 1409 911.700195312 1365 c 0,21,22
 864.900390625 1321 864.900390625 1321 810.900390625 1321 c 128,-1,23
 756.900390625 1321 756.900390625 1321 725.400390625 1365 c 128,-1,24
 693.900390625 1409 693.900390625 1409 703.799804688 1468 c 0,13,14
EndSplineSet
LCarets2: 1 0
EndChar
StartChar: copyright
Encoding: 169 169 169
Width: 1843
Flags: W
LayerCount: 2
Back
Fore
SplineSet
921.599609375 1485 m 0,0,1
 1058.40039062 1485 1058.40039062 1485 1176.75 1430 c 128,-1,2
 1295.09960938 1375 1295.09960938 1375 1393.20019531 1266 c 0,3,4
 1491.29980469 1157 1491.29980469 1157 1539.90039062 1026 c 128,-1,5
 1588.5 895 1588.5 895 1588.5 741 c 0,6,7
 1588.5 589 1588.5 589 1539.90039062 458.5 c 128,-1,8
 1491.29980469 328 1491.29980469 328 1393.20019531 219 c 0,9,10
 1295.09960938 110 1295.09960938 110 1176.75 55 c 128,-1,11
 1058.40039062 0 1058.40039062 0 921.599609375 0 c 0,12,13
 784.799804688 0 784.799804688 0 666.450195312 55 c 128,-1,14
 548.099609375 110 548.099609375 110 450 219 c 0,15,16
 351.900390625 328 351.900390625 328 303.299804688 458.5 c 128,-1,17
 254.700195312 589 254.700195312 589 254.700195312 741 c 0,18,19
 254.700195312 895 254.700195312 895 303.299804688 1026 c 128,-1,20
 351.900390625 1157 351.900390625 1157 450 1266 c 0,21,22
 548.099609375 1375 548.099609375 1375 666.450195312 1430 c 128,-1,23
 784.799804688 1485 784.799804688 1485 921.599609375 1485 c 0,0,1
921.599609375 1331 m 0,24,25
 812.700195312 1331 812.700195312 1331 719.099609375 1287.5 c 128,-1,26
 625.5 1244 625.5 1244 547.200195312 1157 c 0,27,28
 469.799804688 1071 469.799804688 1071 431.099609375 967.5 c 128,-1,29
 392.400390625 864 392.400390625 864 392.400390625 741 c 0,30,31
 392.400390625 619 392.400390625 619 431.099609375 515.5 c 128,-1,32
 469.799804688 412 469.799804688 412 547.200195312 326 c 0,33,34
 624.599609375 240 624.599609375 240 718.650390625 197 c 128,-1,35
 812.700195312 154 812.700195312 154 921.599609375 154 c 0,36,37
 1032.29980469 154 1032.29980469 154 1125 196.5 c 128,-1,38
 1217.70019531 239 1217.70019531 239 1296 326 c 0,39,40
 1373.40039062 412 1373.40039062 412 1412.09960938 515.5 c 128,-1,41
 1450.79980469 619 1450.79980469 619 1450.79980469 741 c 0,42,43
 1450.79980469 864 1450.79980469 864 1412.09960938 967.5 c 128,-1,44
 1373.40039062 1071 1373.40039062 1071 1296 1157 c 0,45,46
 1216.79980469 1245 1216.79980469 1245 1123.65039062 1288 c 128,-1,47
 1030.5 1331 1030.5 1331 921.599609375 1331 c 0,24,25
1251.90039062 580 m 1,48,49
 1227.59960938 441 1227.59960938 441 1145.25 371 c 128,-1,50
 1062.90039062 301 1062.90039062 301 923.400390625 301 c 0,51,52
 754.200195312 301 754.200195312 301 649.799804688 422 c 128,-1,53
 545.400390625 543 545.400390625 543 545.400390625 741 c 0,54,55
 545.400390625 943 545.400390625 943 650.700195312 1063.5 c 128,-1,56
 756 1184 756 1184 932.400390625 1184 c 0,57,58
 1003.5 1184 1003.5 1184 1075.5 1165.5 c 128,-1,59
 1147.5 1147 1147.5 1147 1225.79980469 1108 c 1,60,-1
 1225.79980469 885 l 1,61,-1
 1131.29980469 885 l 1,62,63
 1120.5 979 1120.5 979 1073.25 1032 c 128,-1,64
 1026 1085 1026 1085 953.099609375 1085 c 0,65,66
 859.5 1085 859.5 1085 805.950195312 993.5 c 128,-1,67
 752.400390625 902 752.400390625 902 752.400390625 741 c 0,68,69
 752.400390625 580 752.400390625 580 805.5 489.5 c 128,-1,70
 858.599609375 399 858.599609375 399 953.099609375 399 c 0,71,72
 1018.79980469 399 1018.79980469 399 1062.90039062 445 c 128,-1,73
 1107 491 1107 491 1127.70019531 580 c 1,74,-1
 1251.90039062 580 l 1,48,49
EndSplineSet
EndChar
StartChar: ordfeminine
Encoding: 170 170 170
Width: 897
Flags: W
LayerCount: 2
Back
Fore
SplineSet
595.485351562 1136 m 2,0,-1
 607.032226562 1202 l 2,1,2
 614.63671875 1245.5 614.63671875 1245.5 614.63671875 1280.98046875 c 0,3,4
 614.63671875 1336.84960938 614.63671875 1336.84960938 595.7734375 1372.8203125 c 0,5,6
 571.068359375 1420.30957031 571.068359375 1420.30957031 521.37890625 1420.30957031 c 0,7,8
 509.228515625 1420.30957031 509.228515625 1420.30957031 495.584960938 1417.46972656 c 0,9,10
 427.508789062 1403.29980469 427.508789062 1403.29980469 372.64453125 1318.87988281 c 0,11,12
 317.790039062 1234.45019531 317.790039062 1234.45019531 295.37109375 1106.29980469 c 0,13,14
 285.453125 1049.62011719 285.453125 1049.62011719 285.453125 1004.79003906 c 0,15,16
 285.453125 948.26953125 285.453125 948.26953125 301.220703125 910.599609375 c 0,17,18
 324.59375 854.76953125 324.59375 854.76953125 375.165039062 854.76953125 c 0,19,20
 385.766601562 854.76953125 385.766601562 854.76953125 397.575195312 857.23046875 c 0,21,22
 467.018554688 871.6796875 467.018554688 871.6796875 521.397460938 947.66015625 c 0,23,24
 575.891601562 1024 575.891601562 1024 595.485351562 1136 c 2,0,-1
533.034179688 779 m 17,25,-1
 555.596679688 908 l 1,26,27
 514.727539062 839 514.727539062 839 459.38671875 795.830078125 c 0,28,29
 404.459960938 752.700195312 404.459960938 752.700195312 342.576171875 739.8203125 c 0,30,31
 311.53515625 733.349609375 311.53515625 733.349609375 284.65234375 733.349609375 c 0,32,33
 197.8203125 733.349609375 197.8203125 733.349609375 154.466796875 800.790039062 c 0,34,35
 118.142578125 857.290039062 118.142578125 857.290039062 118.142578125 952.4296875 c 0,36,37
 118.142578125 1006 118.142578125 1006 129.654296875 1071.80957031 c 0,38,39
 161.61328125 1254.51953125 161.61328125 1254.51953125 254.672851562 1373.58984375 c 0,40,41
 347.723632812 1492.66992188 347.723632812 1492.66992188 479.060546875 1520 c 0,42,43
 501.489257812 1524.66992188 501.489257812 1524.66992188 521.477539062 1524.66992188 c 0,44,45
 556.676757812 1524.66992188 556.676757812 1524.66992188 584.361328125 1510.20996094 c 0,46,47
 628.262695312 1488 628.262695312 1488 647.271484375 1432 c 1,48,-1
 662.840820312 1521 l 1,49,-1
 807.741210938 1521 l 1,50,-1
 704.168945312 929 l 1,51,-1
 807.668945312 929 l 25,52,-1
 781.43359375 779 l 25,53,-1
 533.034179688 779 l 17,25,-1
36.0361328125 639 m 1,54,-1
 754.236328125 639 l 1,55,-1
 730.620117188 504 l 1,56,-1
 12.419921875 504 l 1,57,-1
 36.0361328125 639 l 1,54,-1
EndSplineSet
EndChar
StartChar: guillemotleft
Encoding: 171 171 171
Width: 1152
Flags: W
LayerCount: 2
Back
Fore
SplineSet
1060.34375 1069 m 1,0,-1
 1034.63085938 922 l 1,1,-1
 763.200195312 600 l 1,2,-1
 922.139648438 279 l 1,3,-1
 896.251953125 131 l 1,4,-1
 541.504882812 516 l 1,5,-1
 570.895507812 684 l 1,6,-1
 1060.34375 1069 l 1,0,-1
646.34765625 1069 m 1,7,-1
 620.631835938 922 l 1,8,-1
 348.299804688 600 l 1,9,-1
 508.143554688 279 l 1,10,-1
 482.251953125 131 l 1,11,-1
 127.504882812 516 l 1,12,-1
 156.895507812 684 l 1,13,-1
 646.34765625 1069 l 1,7,-1
EndSplineSet
EndChar
StartChar: logicalnot
Encoding: 172 172 172
Width: 1544
Flags: W
LayerCount: 2
Back
Fore
SplineSet
195.299804688 903 m 1,0,-1
 1349.09960938 903 l 1,1,-1
 1349.09960938 287 l 1,2,-1
 1143 287 l 1,3,-1
 1143 676 l 1,4,-1
 195.299804688 676 l 1,5,-1
 195.299804688 903 l 1,0,-1
EndSplineSet
EndChar
StartChar: sfthyphen
Encoding: 173 173 173
Width: 765
Flags: W
LayerCount: 2
Back
Fore
SplineSet
123.516601562 684 m 1,0,-1
 688.716796875 684 l 1,1,-1
 641.483398438 414 l 1,2,-1
 76.283203125 414 l 1,3,-1
 123.516601562 684 l 1,0,-1
EndSplineSet
EndChar
StartChar: registered
Encoding: 174 174 174
Width: 1843
Flags: W
LayerCount: 2
Back
Fore
SplineSet
1049.40039062 754 m 1,0,1
 1084.5 743 1084.5 743 1111.5 716.5 c 128,-1,2
 1138.5 690 1138.5 690 1155.59960938 649 c 2,3,-1
 1245.59960938 434 l 1,4,-1
 1299.59960938 434 l 1,5,-1
 1299.59960938 352 l 1,6,-1
 1098.90039062 352 l 1,7,-1
 993.599609375 606 l 1,8,9
 964.799804688 674 964.799804688 674 938.25 695.5 c 128,-1,10
 911.700195312 717 911.700195312 717 862.200195312 717 c 2,11,-1
 838.799804688 717 l 1,12,-1
 838.799804688 434 l 1,13,-1
 916.200195312 434 l 1,14,-1
 916.200195312 352 l 1,15,-1
 584.099609375 352 l 1,16,-1
 584.099609375 434 l 1,17,-1
 661.5 434 l 1,18,-1
 661.5 1077 l 1,19,-1
 584.099609375 1077 l 1,20,-1
 584.099609375 1159 l 1,21,-1
 991.799804688 1159 l 2,22,23
 1099.79980469 1159 1099.79980469 1159 1161.90039062 1104 c 128,-1,24
 1224 1049 1224 1049 1224 954 c 0,25,26
 1224 865 1224 865 1179.45019531 814 c 128,-1,27
 1134.90039062 763 1134.90039062 763 1049.40039062 754 c 1,0,1
838.799804688 799 m 1,28,-1
 899.099609375 799 l 2,29,30
 970.200195312 799 970.200195312 799 1008.45019531 835 c 128,-1,31
 1046.70019531 871 1046.70019531 871 1046.70019531 938 c 0,32,33
 1046.70019531 1005 1046.70019531 1005 1008.45019531 1041 c 128,-1,34
 970.200195312 1077 970.200195312 1077 899.099609375 1077 c 2,35,-1
 838.799804688 1077 l 1,36,-1
 838.799804688 799 l 1,28,-1
921.599609375 1485 m 0,37,38
 1058.40039062 1485 1058.40039062 1485 1176.75 1430 c 128,-1,39
 1295.09960938 1375 1295.09960938 1375 1393.20019531 1266 c 0,40,41
 1491.29980469 1157 1491.29980469 1157 1539.90039062 1026 c 128,-1,42
 1588.5 895 1588.5 895 1588.5 741 c 0,43,44
 1588.5 589 1588.5 589 1539.90039062 458.5 c 128,-1,45
 1491.29980469 328 1491.29980469 328 1393.20019531 219 c 0,46,47
 1295.09960938 110 1295.09960938 110 1176.75 55 c 128,-1,48
 1058.40039062 0 1058.40039062 0 921.599609375 0 c 0,49,50
 784.799804688 0 784.799804688 0 666.450195312 55 c 128,-1,51
 548.099609375 110 548.099609375 110 450 219 c 0,52,53
 351.900390625 328 351.900390625 328 303.299804688 458.5 c 128,-1,54
 254.700195312 589 254.700195312 589 254.700195312 741 c 0,55,56
 254.700195312 895 254.700195312 895 303.299804688 1026 c 128,-1,57
 351.900390625 1157 351.900390625 1157 450 1266 c 0,58,59
 548.099609375 1375 548.099609375 1375 666.450195312 1430 c 128,-1,60
 784.799804688 1485 784.799804688 1485 921.599609375 1485 c 0,37,38
921.599609375 1331 m 0,61,62
 812.700195312 1331 812.700195312 1331 719.099609375 1287.5 c 128,-1,63
 625.5 1244 625.5 1244 547.200195312 1157 c 0,64,65
 469.799804688 1071 469.799804688 1071 431.099609375 967.5 c 128,-1,66
 392.400390625 864 392.400390625 864 392.400390625 741 c 0,67,68
 392.400390625 619 392.400390625 619 431.099609375 515.5 c 128,-1,69
 469.799804688 412 469.799804688 412 547.200195312 326 c 0,70,71
 624.599609375 240 624.599609375 240 718.650390625 197 c 128,-1,72
 812.700195312 154 812.700195312 154 921.599609375 154 c 0,73,74
 1032.29980469 154 1032.29980469 154 1125 196.5 c 128,-1,75
 1217.70019531 239 1217.70019531 239 1296 326 c 0,76,77
 1373.40039062 412 1373.40039062 412 1412.09960938 515.5 c 128,-1,78
 1450.79980469 619 1450.79980469 619 1450.79980469 741 c 0,79,80
 1450.79980469 864 1450.79980469 864 1412.09960938 967.5 c 128,-1,81
 1373.40039062 1071 1373.40039062 1071 1296 1157 c 0,82,83
 1216.79980469 1245 1216.79980469 1245 1123.65039062 1288 c 128,-1,84
 1030.5 1331 1030.5 1331 921.599609375 1331 c 0,61,62
EndSplineSet
EndChar
StartChar: macron
Encoding: 175 175 175
Width: 921
Flags: W
LayerCount: 2
Back
Fore
SplineSet
319.5 1548 m 1,0,-1
 886.5 1548 l 1,1,-1
 854.099609375 1360 l 1,2,-1
 287.099609375 1360 l 1,3,-1
 319.5 1548 l 1,0,-1
EndSplineSet
LCarets2: 1 0
EndChar
StartChar: degree
Encoding: 176 176 176
Width: 921
Flags: W
LayerCount: 2
Back
Fore
SplineSet
460.799804688 1534 m 0,0,1
 520.200195312 1534 520.200195312 1534 575.099609375 1508.5 c 128,-1,2
 630 1483 630 1483 673.200195312 1436 c 1,3,4
 715.5 1388 715.5 1388 737.549804688 1328 c 128,-1,5
 759.599609375 1268 759.599609375 1268 759.599609375 1200 c 0,6,7
 759.599609375 1133 759.599609375 1133 737.549804688 1072.5 c 128,-1,8
 715.5 1012 715.5 1012 675 967 c 0,9,10
 631.799804688 919 631.799804688 919 576 893.5 c 128,-1,11
 520.200195312 868 520.200195312 868 459 868 c 0,12,13
 332.099609375 868 332.099609375 868 246.150390625 963.5 c 128,-1,14
 160.200195312 1059 160.200195312 1059 160.200195312 1200 c 0,15,16
 160.200195312 1341 160.200195312 1341 247.049804688 1437.5 c 128,-1,17
 333.900390625 1534 333.900390625 1534 460.799804688 1534 c 0,0,1
460.799804688 1372 m 0,18,19
 396 1372 396 1372 351 1322 c 128,-1,20
 306 1272 306 1272 306 1200 c 0,21,22
 306 1128 306 1128 350.549804688 1079 c 128,-1,23
 395.099609375 1030 395.099609375 1030 460.799804688 1030 c 0,24,25
 525.599609375 1030 525.599609375 1030 570.599609375 1079.5 c 128,-1,26
 615.599609375 1129 615.599609375 1129 615.599609375 1200 c 0,27,28
 615.599609375 1272 615.599609375 1272 570.150390625 1322 c 128,-1,29
 524.700195312 1372 524.700195312 1372 460.799804688 1372 c 0,18,19
EndSplineSet
EndChar
StartChar: plusminus
Encoding: 177 177 177
Width: 1544
Flags: W
LayerCount: 2
Back
Fore
SplineSet
195.299804688 227 m 1,0,-1
 1349.09960938 227 l 1,1,-1
 1349.09960938 0 l 1,2,-1
 195.299804688 0 l 1,3,-1
 195.299804688 227 l 1,0,-1
875.700195312 1284 m 1,4,-1
 875.700195312 926 l 1,5,-1
 1349.09960938 926 l 1,6,-1
 1349.09960938 698 l 1,7,-1
 875.700195312 698 l 1,8,-1
 875.700195312 340 l 1,9,-1
 668.700195312 340 l 1,10,-1
 668.700195312 698 l 1,11,-1
 195.299804688 698 l 1,12,-1
 195.299804688 926 l 1,13,-1
 668.700195312 926 l 1,14,-1
 668.700195312 1284 l 1,15,-1
 875.700195312 1284 l 1,4,-1
EndSplineSet
EndChar
StartChar: twosuperior
Encoding: 178 178 178
Width: 807
Flags: W
LayerCount: 2
Back
Fore
SplineSet
201.0390625 1284 m 1,0,-1
 116.439453125 1284 l 1,1,-1
 150.552734375 1479 l 1,2,3
 218.852539062 1499 218.852539062 1499 288.638671875 1509.5 c 128,-1,4
 358.42578125 1520 358.42578125 1520 430.42578125 1520 c 0,5,6
 593.326171875 1520 593.326171875 1520 672.129882812 1456 c 128,-1,7
 750.932617188 1392 750.932617188 1392 730.990234375 1278 c 0,8,9
 716.643554688 1196 716.643554688 1196 656.310546875 1131.5 c 128,-1,10
 595.9765625 1067 595.9765625 1067 438.931640625 977 c 2,11,-1
 195.015625 838 l 1,12,-1
 567.615234375 838 l 1,13,-1
 584.409179688 934 l 1,14,-1
 674.409179688 934 l 1,15,-1
 630.673828125 684 l 1,16,-1
 4.2744140625 684 l 1,17,-1
 27.541015625 817 l 1,18,-1
 158.336914062 901 l 2,19,20
 348.154296875 1024 348.154296875 1024 405.400390625 1094 c 128,-1,21
 462.646484375 1164 462.646484375 1164 478.916015625 1257 c 0,22,23
 493.611328125 1341 493.611328125 1341 464.571289062 1388.5 c 128,-1,24
 435.530273438 1436 435.530273438 1436 369.831054688 1436 c 0,25,26
 313.130859375 1436 313.130859375 1436 266.720703125 1394.5 c 128,-1,27
 220.310546875 1353 220.310546875 1353 201.0390625 1284 c 1,0,-1
EndSplineSet
EndChar
StartChar: threesuperior
Encoding: 179 179 179
Width: 807
Flags: W
LayerCount: 2
Back
Fore
SplineSet
167.603515625 1481 m 1,0,1
 250.125976562 1500 250.125976562 1500 318.92578125 1510 c 128,-1,2
 387.725585938 1520 387.725585938 1520 445.325195312 1520 c 0,3,4
 607.325195312 1520 607.325195312 1520 681.840820312 1467.5 c 128,-1,5
 756.356445312 1415 756.356445312 1415 738.862304688 1315 c 0,6,7
 726.266601562 1243 726.266601562 1243 670.793945312 1196 c 128,-1,8
 615.322265625 1149 615.322265625 1149 520.72265625 1133 c 1,9,10
 625.923828125 1117 625.923828125 1117 672.014648438 1061.5 c 128,-1,11
 718.10546875 1006 718.10546875 1006 701.834960938 913 c 0,12,13
 680.493164062 791 680.493164062 791 577.93359375 729.5 c 128,-1,14
 475.375 668 475.375 668 294.474609375 668 c 0,15,16
 222.474609375 668 222.474609375 668 152.311523438 678.5 c 128,-1,17
 82.1484375 689 82.1484375 689 13.9970703125 711 c 1,18,-1
 48.9853515625 911 l 1,19,-1
 135.385742188 911 l 1,20,21
 127.690429688 831 127.690429688 831 159.48046875 791.5 c 128,-1,22
 191.268554688 752 191.268554688 752 262.369140625 752 c 0,23,24
 341.569335938 752 341.569335938 752 390.942382812 795 c 128,-1,25
 440.314453125 838 440.314453125 838 454.66015625 920 c 0,26,27
 468.65625 1000 468.65625 1000 432.166015625 1043.5 c 128,-1,28
 395.67578125 1087 395.67578125 1087 313.776367188 1087 c 2,29,-1
 276.875976562 1087 l 1,30,-1
 291.5703125 1171 l 1,31,-1
 319.470703125 1171 l 2,32,33
 392.370117188 1171 392.370117188 1171 437.46875 1205 c 128,-1,34
 482.567382812 1239 482.567382812 1239 493.762695312 1303 c 0,35,36
 504.784179688 1366 504.784179688 1366 475.807617188 1401 c 128,-1,37
 446.831054688 1436 446.831054688 1436 382.03125 1436 c 0,38,39
 322.630859375 1436 322.630859375 1436 280.245117188 1399.5 c 128,-1,40
 237.859375 1363 237.859375 1363 222.163085938 1299 c 1,41,-1
 135.587890625 1298 l 1,42,-1
 167.603515625 1481 l 1,0,1
EndSplineSet
EndChar
StartChar: acute
Encoding: 180 180 180
Width: 921
Flags: W
LayerCount: 2
Back
Fore
SplineSet
717.299804688 1638 m 1,0,-1
 968.400390625 1638 l 1,1,-1
 566.099609375 1262 l 1,2,-1
 418.5 1262 l 1,3,-1
 717.299804688 1638 l 1,0,-1
EndSplineSet
LCarets2: 1 0
EndChar
StartChar: mu
Encoding: 181 181 181
Width: 1349
Flags: W
LayerCount: 2
Back
Fore
SplineSet
1280.44824219 1063 m 1,0,-1
 1115.64941406 121 l 1,1,-1
 1252.44921875 121 l 1,2,-1
 1231.28125 0 l 1,3,-1
 775.880859375 0 l 1,4,-1
 797.750976562 125 l 1,5,6
 733.724609375 42 733.724609375 42 678.46484375 6.5 c 0,7,8
 623.205078125 -29 623.205078125 -29 556.60546875 -29 c 0,9,10
 528.705078125 -29 528.705078125 -29 503.91015625 -19 c 0,11,12
 479.106445312 -9 479.106445312 -9 453.078125 12 c 1,13,-1
 376.452148438 -426 l 1,14,-1
 57.8515625 -426 l 1,15,-1
 297.1796875 942 l 1,16,-1
 160.379882812 942 l 1,17,-1
 181.547851562 1063 l 1,18,-1
 636.948242188 1063 l 1,19,-1
 532.682617188 467 l 2,20,21
 507.771484375 324.610351562 507.771484375 324.610351562 507.771484375 251.33984375 c 0,22,23
 507.771484375 211.400390625 507.771484375 211.400390625 515.168945312 192 c 0,24,25
 536.1484375 137 536.1484375 137 615.34765625 137 c 0,26,27
 710.748046875 137 710.748046875 137 769.203125 216.5 c 0,28,29
 827.666992188 296 827.666992188 296 857.583007812 467 c 2,30,-1
 961.84765625 1063 l 1,31,-1
 1280.44824219 1063 l 1,0,-1
EndSplineSet
EndChar
StartChar: paragraph
Encoding: 182 182 182
Width: 1172
Flags: W
LayerCount: 2
Back
Fore
SplineSet
708.526367188 1493 m 2,0,-1
 1208.02539062 1493 l 1,1,-1
 1186.15527344 1368 l 1,2,-1
 1084.45507812 1368 l 1,3,-1
 810.673828125 -197 l 1,4,-1
 673.874023438 -197 l 1,5,-1
 947.655273438 1368 l 1,6,-1
 800.958984375 1368 l 1,7,-1
 527.173828125 -197 l 1,8,-1
 390.374023438 -197 l 1,9,-1
 538.375 649 l 1,10,11
 347.848632812 666 347.848632812 666 260.98046875 776.5 c 128,-1,12
 174.111328125 887 174.111328125 887 206.30078125 1071 c 0,13,14
 239.5390625 1261 239.5390625 1261 376.833007812 1377 c 128,-1,15
 514.125976562 1493 514.125976562 1493 708.526367188 1493 c 2,0,-1
EndSplineSet
EndChar
StartChar: periodcentered
Encoding: 183 183 183
Width: 641
Flags: W
LayerCount: 2
Back
Fore
SplineSet
149.311523438 711 m 0,0,1
 162.958007812 789 162.958007812 789 223.155273438 845 c 128,-1,2
 283.3515625 901 283.3515625 901 353.551757812 901 c 0,3,4
 424.651367188 901 424.651367188 901 465.254882812 845 c 128,-1,5
 505.857421875 789 505.857421875 789 492.211914062 711 c 0,6,7
 478.567382812 633 478.567382812 633 418.458007812 577.5 c 128,-1,8
 358.348632812 522 358.348632812 522 287.248046875 522 c 0,9,10
 217.048828125 522 217.048828125 522 176.357421875 577.5 c 128,-1,11
 135.666992188 633 135.666992188 633 149.311523438 711 c 0,0,1
EndSplineSet
EndChar
StartChar: cedilla
Encoding: 184 184 184
Width: 921
Flags: W
LayerCount: 2
Back
Fore
SplineSet
569.676757812 0 m 1,0,1
 614.279296875 -64 614.279296875 -64 631.294921875 -118.5 c 128,-1,2
 648.311523438 -173 648.311523438 -173 639.212890625 -225 c 0,3,4
 624.168945312 -311 624.168945312 -311 558.24609375 -356 c 128,-1,5
 492.323242188 -401 492.323242188 -401 383.423828125 -401 c 0,6,7
 340.223632812 -401 340.223632812 -401 295.4609375 -394.5 c 128,-1,8
 250.698242188 -388 250.698242188 -388 206.172851562 -375 c 1,9,-1
 232.563476562 -219 l 1,10,11
 270.08984375 -236 270.08984375 -236 306.764648438 -245 c 128,-1,12
 343.440429688 -254 343.440429688 -254 375.840820312 -254 c 0,13,14
 429.840820312 -254 429.840820312 -254 462.301757812 -230.5 c 128,-1,15
 494.762695312 -207 494.762695312 -207 502.634765625 -162 c 0,16,17
 507.533203125 -134 507.533203125 -134 498.45703125 -101 c 128,-1,18
 489.380859375 -68 489.380859375 -68 455.376953125 0 c 1,19,-1
 569.676757812 0 l 1,0,1
EndSplineSet
LCarets2: 1 0
EndChar
StartChar: onesuperior
Encoding: 185 185 185
Width: 807
Flags: W
LayerCount: 2
Back
Fore
SplineSet
72.673828125 684 m 1,0,-1
 89.1181640625 778 l 1,1,-1
 236.71875 778 l 1,2,-1
 343.958007812 1391 l 1,3,-1
 161.58984375 1290 l 1,4,-1
 179.958007812 1395 l 1,5,-1
 401.625976562 1520 l 1,6,-1
 605.92578125 1520 l 1,7,-1
 476.119140625 778 l 1,8,-1
 623.71875 778 l 1,9,-1
 607.274414062 684 l 1,10,-1
 72.673828125 684 l 1,0,-1
EndSplineSet
EndChar
StartChar: ordmasculine
Encoding: 186 186 186
Width: 921
Flags: W
LayerCount: 2
Back
Fore
SplineSet
36.4462890625 639 m 1,0,-1
 754.646484375 639 l 1,1,-1
 731.029296875 504 l 1,2,-1
 12.8291015625 504 l 1,3,-1
 36.4462890625 639 l 1,0,-1
427.735351562 823 m 0,4,5
 496.135742188 823 496.135742188 823 538.70703125 894 c 128,-1,6
 581.27734375 965 581.27734375 965 609.79296875 1128 c 0,7,8
 638.484375 1292 638.484375 1292 620.754882812 1363 c 128,-1,9
 603.025390625 1434 603.025390625 1434 534.625 1434 c 0,10,11
 465.325195312 1434 465.325195312 1434 423.379882812 1364 c 128,-1,12
 381.43359375 1294 381.43359375 1294 352.393554688 1128 c 0,13,14
 323.528320312 963 323.528320312 963 340.982421875 893 c 128,-1,15
 358.435546875 823 358.435546875 823 427.735351562 823 c 0,4,5
412.69140625 737 m 0,16,17
 221.890625 737 221.890625 737 132.53515625 841 c 128,-1,18
 43.1787109375 945 43.1787109375 945 75.193359375 1128 c 0,19,20
 107.208007812 1311 107.208007812 1311 233.040039062 1415.5 c 128,-1,21
 358.870117188 1520 358.870117188 1520 549.670898438 1520 c 0,22,23
 740.470703125 1520 740.470703125 1520 829.739257812 1415.5 c 128,-1,24
 919.0078125 1311 919.0078125 1311 886.993164062 1128 c 0,25,26
 854.979492188 945 854.979492188 945 729.235351562 841 c 128,-1,27
 603.490234375 737 603.490234375 737 412.69140625 737 c 0,16,17
EndSplineSet
EndChar
StartChar: guillemotright
Encoding: 187 187 187
Width: 1152
Flags: W
LayerCount: 2
Back
Fore
SplineSet
255.748046875 1069 m 1,0,-1
 610.495117188 684 l 1,1,-1
 581.104492188 516 l 1,2,-1
 91.65234375 131 l 1,3,-1
 117.543945312 279 l 1,4,-1
 388.799804688 600 l 1,5,-1
 230.032226562 922 l 1,6,-1
 255.748046875 1069 l 1,0,-1
669.748046875 1069 m 1,7,-1
 1024.49707031 684 l 1,8,-1
 995.102539062 516 l 1,9,-1
 505.65234375 131 l 1,10,-1
 531.543945312 279 l 1,11,-1
 803.700195312 600 l 1,12,-1
 644.032226562 922 l 1,13,-1
 669.748046875 1069 l 1,7,-1
EndSplineSet
EndChar
StartChar: questiondown
Encoding: 191 191 191
Width: 1080
Flags: W
LayerCount: 2
Back
Fore
SplineSet
873.900390625 956 m 0,0,1
 860.400390625 878 860.400390625 878 800.549804688 823 c 128,-1,2
 740.700195312 768 740.700195312 768 670.5 768 c 0,3,4
 599.400390625 768 599.400390625 768 559.349609375 823 c 128,-1,5
 519.299804688 878 519.299804688 878 532.799804688 956 c 0,6,7
 546.299804688 1035 546.299804688 1035 606.599609375 1091 c 128,-1,8
 666.900390625 1147 666.900390625 1147 737.099609375 1147 c 0,9,10
 807.299804688 1147 807.299804688 1147 847.349609375 1090.5 c 128,-1,11
 887.400390625 1034 887.400390625 1034 873.900390625 956 c 0,0,1
837 -334 m 1,12,13
 719.099609375 -368 719.099609375 -368 615.150390625 -385 c 128,-1,14
 511.200195312 -402 511.200195312 -402 416.700195312 -402 c 0,15,16
 189.900390625 -402 189.900390625 -402 87.75 -291.5 c 128,-1,17
 -14.400390625 -181 -14.400390625 -181 21.599609375 24 c 0,18,19
 56.7001953125 226 56.7001953125 226 194.849609375 342.5 c 128,-1,20
 333 459 333 459 556.200195312 477 c 1,21,-1
 592.200195312 682 l 1,22,-1
 717.299804688 682 l 1,23,-1
 665.099609375 383 l 1,24,25
 532.799804688 340 532.799804688 340 457.650390625 247.5 c 128,-1,26
 382.5 155 382.5 155 355.5 2 c 0,27,28
 330.299804688 -143 330.299804688 -143 372.150390625 -216 c 128,-1,29
 414 -289 414 -289 522 -289 c 0,30,31
 620.099609375 -289 620.099609375 -289 685.349609375 -223 c 128,-1,32
 750.599609375 -157 750.599609375 -157 782.099609375 -27 c 1,33,-1
 890.099609375 -27 l 1,34,-1
 837 -334 l 1,12,13
EndSplineSet
Substitution2: "'case' Case-Sensitive Forms" questiondown.case
EndChar
StartChar: Aring
Encoding: 197 197 197
Width: 1430
Flags: W
LayerCount: 2
Back
Fore
SplineSet
707.723632812 1616 m 0,0,1
 698.276367188 1562 698.276367188 1562 726.641601562 1523.5 c 128,-1,2
 755.006835938 1485 755.006835938 1485 802.706054688 1485 c 0,3,4
 852.206054688 1485 852.206054688 1485 893.591796875 1523.5 c 128,-1,5
 934.973632812 1562 934.973632812 1562 944.423828125 1616 c 0,6,7
 953.874023438 1670 953.874023438 1670 925.505859375 1708.5 c 128,-1,8
 897.141601562 1747 897.141601562 1747 848.541992188 1747 c 0,9,10
 800.841796875 1747 800.841796875 1747 759.005859375 1708.5 c 128,-1,11
 717.169921875 1670 717.169921875 1670 707.723632812 1616 c 0,0,1
-180.682617188 0 m 1,12,-1
 -159.514648438 121 l 1,13,-1
 -49.71484375 121 l 1,14,-1
 638.337890625 1384 l 1,15,16
 592.610351562 1421 592.610351562 1421 574.844726562 1481.5 c 128,-1,17
 557.078125 1542 557.078125 1542 570.024414062 1616 c 0,18,19
 590.493164062 1733 590.493164062 1733 680.337890625 1817 c 128,-1,20
 770.182617188 1901 770.182617188 1901 875.483398438 1901 c 0,21,22
 981.68359375 1901 981.68359375 1901 1042.13671875 1817 c 128,-1,23
 1102.58984375 1733 1102.58984375 1733 1082.12402344 1616 c 0,24,25
 1069.18164062 1542 1069.18164062 1542 1031.40917969 1483 c 128,-1,26
 993.635742188 1424 993.635742188 1424 932.633789062 1384 c 1,27,-1
 1177.88378906 121 l 1,28,-1
 1305.68359375 121 l 1,29,-1
 1284.515625 0 l 1,30,-1
 655.416992188 0 l 1,31,-1
 676.5859375 121 l 1,32,-1
 807.985351562 121 l 1,33,-1
 750.643554688 426 l 1,34,-1
 245.743164062 426 l 1,35,-1
 79.8857421875 121 l 1,36,-1
 240.0859375 121 l 1,37,-1
 218.916992188 0 l 1,38,-1
 -180.682617188 0 l 1,12,-1
311.010742188 547 m 1,39,-1
 727.709960938 547 l 1,40,-1
 622.403320312 1118 l 1,41,-1
 311.010742188 547 l 1,39,-1
EndSplineSet
EndChar
StartChar: AE
Encoding: 198 198 198
Width: 1906
Flags: W
AnchorPoint: "above" 1220.09 1465 basechar 0
AnchorPoint: "below" 963.81 0 basechar 0
LayerCount: 2
Back
Fore
SplineSet
325.6484375 545 m 1,0,-1
 744.1484375 545 l 1,1,-1
 888.826171875 1372 l 1,2,-1
 821.326171875 1372 l 1,3,-1
 325.6484375 545 l 1,0,-1
477.806640625 0 m 1,4,-1
 498.973632812 121 l 1,5,-1
 669.973632812 121 l 1,6,-1
 722.98046875 424 l 1,7,-1
 253.180664062 424 l 1,8,-1
 71.4736328125 121 l 1,9,-1
 219.073242188 121 l 1,10,-1
 197.90625 0 l 1,11,-1
 -187.293945312 0 l 1,12,-1
 -166.126953125 121 l 1,13,-1
 -63.5263671875 121 l 1,14,-1
 688.126953125 1372 l 1,15,-1
 507.2265625 1372 l 1,16,-1
 528.393554688 1493 l 1,17,-1
 1924.29003906 1493 l 1,18,-1
 1862.71191406 1141 l 1,19,-1
 1738.51171875 1141 l 1,20,-1
 1776.12304688 1356 l 1,21,-1
 1234.32324219 1356 l 1,22,-1
 1150.53320312 877 l 1,23,-1
 1480.83300781 877 l 1,24,-1
 1514.0703125 1067 l 1,25,-1
 1635.5703125 1067 l 1,26,-1
 1545.29980469 551 l 1,27,-1
 1423.79980469 551 l 1,28,-1
 1457.03710938 741 l 1,29,-1
 1126.73730469 741 l 1,30,-1
 1021.07714844 137 l 1,31,-1
 1581.77734375 137 l 1,32,-1
 1619.38769531 352 l 1,33,-1
 1740.88769531 352 l 1,34,-1
 1679.30957031 0 l 1,35,-1
 477.806640625 0 l 1,4,-1
EndSplineSet
EndChar
StartChar: Eth
Encoding: 208 208 208
Width: 1611
Flags: W
LayerCount: 2
Back
Fore
SplineSet
507.973632812 121 m 1,0,-1
 633.073242188 121 l 2,1,2
 843.673828125 121 843.673828125 121 966.573242188 270.5 c 128,-1,3
 1089.48632812 420 1089.48632812 420 1146.86132812 748 c 0,4,5
 1203.89355469 1074 1203.89355469 1074 1133.20800781 1223 c 128,-1,6
 1062.52246094 1372 1062.52246094 1372 851.926757812 1372 c 2,7,-1
 726.826171875 1372 l 1,8,-1
 635.505859375 850 l 1,9,-1
 934.307617188 850 l 1,10,-1
 910.340820312 713 l 1,11,-1
 611.5390625 713 l 1,12,-1
 507.973632812 121 l 1,0,-1
-32.494140625 0 m 1,13,-1
 -11.326171875 121 l 1,14,-1
 161.473632812 121 l 1,15,-1
 265.0390625 713 l 1,16,-1
 73.33984375 713 l 1,17,-1
 97.306640625 850 l 1,18,-1
 289.005859375 850 l 1,19,-1
 380.326171875 1372 l 1,20,-1
 207.526367188 1372 l 1,21,-1
 228.693359375 1493 l 1,22,-1
 919.889648438 1493 l 2,23,24
 1279.88964844 1493 1279.88964844 1493 1437.64160156 1301.5 c 128,-1,25
 1595.39355469 1110 1595.39355469 1110 1532.06054688 748 c 0,26,27
 1468.55664062 385 1468.55664062 385 1243.62890625 192.5 c 128,-1,28
 1018.70996094 0 1018.70996094 0 658.706054688 0 c 2,29,-1
 -32.494140625 0 l 1,13,-1
EndSplineSet
EndChar
StartChar: multiply
Encoding: 215 215 215
Width: 1544
Flags: W
LayerCount: 2
Back
Fore
SplineSet
1306.79980469 1081 m 1,0,-1
 910.799804688 641 l 1,1,-1
 1306.79980469 201 l 1,2,-1
 1168.20019531 47 l 1,3,-1
 772.200195312 487 l 1,4,-1
 376.200195312 47 l 1,5,-1
 237.599609375 201 l 1,6,-1
 634.5 641 l 1,7,-1
 237.599609375 1081 l 1,8,-1
 376.200195312 1237 l 1,9,-1
 772.200195312 797 l 1,10,-1
 1168.20019531 1237 l 1,11,-1
 1306.79980469 1081 l 1,0,-1
EndSplineSet
EndChar
StartChar: Oslash
Encoding: 216 216 216
Width: 1605
Flags: W
AnchorPoint: "below" 673.281 0 basechar 0
AnchorPoint: "above" 929.574 1465 basechar 0
LayerCount: 2
Back
Fore
SplineSet
434.876953125 479 m 1,0,-1
 1162.79101562 1157 l 1,1,2
 1145.80761719 1276 1145.80761719 1276 1083.21289062 1337.5 c 128,-1,3
 1020.62695312 1399 1020.62695312 1399 916.2265625 1399 c 0,4,5
 745.224609375 1399 745.224609375 1399 632.646484375 1236.5 c 128,-1,6
 520.068359375 1074 520.068359375 1074 462.51171875 745 c 0,7,8
 449.216796875 669 449.216796875 669 442.170898438 603 c 128,-1,9
 435.125 537 435.125 537 434.876953125 479 c 1,0,-1
441.912109375 334 m 1,10,11
 461.068359375 212 461.068359375 212 522.122070312 152 c 128,-1,12
 583.17578125 92 583.17578125 92 687.576171875 92 c 0,13,14
 863.076171875 92 863.076171875 92 975.086914062 259 c 128,-1,15
 1087.11035156 426 1087.11035156 426 1149.73242188 784 c 0,16,17
 1161.10839844 849 1161.10839844 849 1164.53710938 899.5 c 128,-1,18
 1167.97460938 950 1167.97460938 950 1163.79882812 993 c 1,19,-1
 441.912109375 334 l 1,10,11
1457.91015625 1280 m 1,20,21
 1520.71191406 1176 1520.71191406 1176 1537.85742188 1042.5 c 128,-1,22
 1555.00195312 909 1555.00195312 909 1526.30957031 745 c 0,23,24
 1462.98632812 383 1462.98632812 383 1233.90039062 177 c 128,-1,25
 1004.8046875 -29 1004.8046875 -29 666.407226562 -29 c 0,26,27
 524.20703125 -29 524.20703125 -29 411.779296875 10 c 128,-1,28
 299.352539062 49 299.352539062 49 217.59765625 127 c 1,29,-1
 -1.865234375 -78 l 1,30,-1
 -67.1201171875 12 l 1,31,-1
 148.04296875 213 l 1,32,33
 83.9873046875 315 83.9873046875 315 66.392578125 448.5 c 128,-1,34
 48.796875 582 48.796875 582 77.3125 745 c 0,35,36
 140.642578125 1107 140.642578125 1107 369.817382812 1313.5 c 128,-1,37
 598.993164062 1520 598.993164062 1520 937.39453125 1520 c 0,38,39
 1081.39453125 1520 1081.39453125 1520 1194.35351562 1481.5 c 128,-1,40
 1307.32226562 1443 1307.32226562 1443 1387.44921875 1366 c 1,41,-1
 1605.66308594 1569 l 1,42,-1
 1670.921875 1479 l 1,43,-1
 1457.91015625 1280 l 1,20,21
EndSplineSet
EndChar
StartChar: Thorn
Encoding: 222 222 222
Width: 1395
Flags: W
LayerCount: 2
Back
Fore
SplineSet
-44.1943359375 0 m 1,0,-1
 -23.0263671875 121 l 1,1,-1
 148.873046875 121 l 1,2,-1
 367.7265625 1372 l 1,3,-1
 195.826171875 1372 l 1,4,-1
 216.993164062 1493 l 1,5,-1
 950.490234375 1493 l 1,6,-1
 929.322265625 1372 l 1,7,-1
 714.2265625 1372 l 1,8,-1
 684.486328125 1202 l 1,9,-1
 931.0859375 1202 l 2,10,11
 1155.18554688 1202 1155.18554688 1202 1266.75878906 1083.5 c 128,-1,12
 1378.32324219 965 1378.32324219 965 1343.51074219 766 c 0,13,14
 1308.69921875 567 1308.69921875 567 1155.04199219 447.5 c 128,-1,15
 1001.38476562 328 1001.38476562 328 778.185546875 328 c 2,16,-1
 531.5859375 328 l 1,17,-1
 495.373046875 121 l 1,18,-1
 712.2734375 121 l 1,19,-1
 691.106445312 0 l 1,20,-1
 -44.1943359375 0 l 1,0,-1
552.754882812 449 m 1,21,-1
 653.5546875 449 l 2,22,23
 770.5546875 449 770.5546875 449 855.350585938 535 c 128,-1,24
 940.149414062 621 940.149414062 621 965.510742188 766 c 0,25,26
 990.702148438 910 990.702148438 910 936.360351562 995.5 c 128,-1,27
 882.018554688 1081 882.018554688 1081 764.119140625 1081 c 2,28,-1
 663.319335938 1081 l 1,29,-1
 552.754882812 449 l 1,21,-1
EndSplineSet
EndChar
StartChar: germandbls
Encoding: 223 223 223
Width: 1400
Flags: W
LayerCount: 2
Back
Fore
SplineSet
962.099609375 1320 m 0,0,1
 962.099609375 1372 962.099609375 1372 922.950195312 1408 c 128,-1,2
 883.799804688 1444 883.799804688 1444 822.599609375 1444 c 0,3,4
 724.5 1444 724.5 1444 670.049804688 1384.5 c 128,-1,5
 615.599609375 1325 615.599609375 1325 592.200195312 1190 c 2,6,-1
 378.900390625 -29 l 2,7,8
 342 -239 342 -239 199.349609375 -314 c 128,-1,9
 56.7001953125 -389 56.7001953125 -389 -140.400390625 -389 c 1,10,11
 -130.5 -333 -130.5 -333 -119.700195312 -277 c 17,12,13
 -47.7001953125 -277 -47.7001953125 -277 -5.400390625 -219.5 c 128,-1,14
 36.900390625 -162 36.900390625 -162 59.400390625 -33 c 2,15,-1
 266.400390625 1147 l 2,16,17
 301.5 1348 301.5 1348 445.5 1452 c 128,-1,18
 589.5 1556 589.5 1556 831.599609375 1556 c 0,19,20
 1068.29980469 1556 1068.29980469 1556 1152 1479 c 128,-1,21
 1235.70019531 1402 1235.70019531 1402 1235.70019531 1317 c 0,22,23
 1235.70019531 1213 1235.70019531 1213 1087.65039062 1119 c 128,-1,24
 939.599609375 1025 939.599609375 1025 924.299804688 936 c 0,25,26
 917.099609375 896 917.099609375 896 932.400390625 861 c 128,-1,27
 947.700195312 826 947.700195312 826 1010.70019531 768 c 2,28,-1
 1079.09960938 705 l 2,29,30
 1215 579 1215 579 1245.59960938 499 c 128,-1,31
 1276.20019531 419 1276.20019531 419 1257.29980469 311 c 0,32,33
 1229.40039062 151 1229.40039062 151 1101.59960938 61 c 128,-1,34
 973.799804688 -29 973.799804688 -29 772.200195312 -29 c 0,35,36
 700.200195312 -29 700.200195312 -29 624.150390625 -14 c 128,-1,37
 548.099609375 1 548.099609375 1 463.5 31 c 1,38,-1
 508.5 289 l 1,39,-1
 617.400390625 289 l 1,40,41
 610.200195312 182 610.200195312 182 645.75 133 c 128,-1,42
 681.299804688 84 681.299804688 84 765.900390625 84 c 0,43,44
 834.299804688 84 834.299804688 84 884.25 128 c 128,-1,45
 934.200195312 172 934.200195312 172 946.799804688 244 c 0,46,47
 964.799804688 349 964.799804688 349 900.450195312 408.5 c 128,-1,48
 836.099609375 468 836.099609375 468 813.599609375 489 c 2,49,-1
 744.299804688 553 l 2,50,51
 666 626 666 626 639 705 c 128,-1,52
 612 784 612 784 630 889 c 0,53,54
 658.799804688 1056 658.799804688 1056 810.450195312 1148 c 128,-1,55
 962.099609375 1240 962.099609375 1240 962.099609375 1320 c 0,0,1
EndSplineSet
EndChar
StartChar: ae
Encoding: 230 230 230
Width: 1717
Flags: W
AnchorPoint: "below" 773.703 4.5 basechar 0
AnchorPoint: "above" 963.882 1096.5 basechar 0
LayerCount: 2
Back
Fore
SplineSet
1318.5 831 m 0,0,1
 1318.5 979 1318.5 979 1206.90039062 979 c 0,2,3
 1121.40039062 979 1121.40039062 979 1074.15039062 894.5 c 128,-1,4
 1026.90039062 810 1026.90039062 810 984.599609375 581 c 2,5,-1
 974.700195312 519 l 1,6,7
 1274.40039062 519 1274.40039062 519 1312.20019531 762 c 0,8,9
 1318.5 799 1318.5 799 1318.5 831 c 0,0,1
756.900390625 876 m 1,10,11
 754.200195312 936 754.200195312 936 702.900390625 936 c 0,12,13
 582.299804688 936 582.299804688 936 464.400390625 776 c 0,14,15
 409.5 702 409.5 702 378.900390625 527 c 128,-1,16
 348.299804688 352 348.299804688 352 348.299804688 288.5 c 128,-1,17
 348.299804688 225 348.299804688 225 357.299804688 198 c 0,18,19
 380.700195312 127 380.700195312 127 465.299804688 127 c 128,-1,20
 549.900390625 127 549.900390625 127 602.549804688 210 c 128,-1,21
 655.200195312 293 655.200195312 293 687.599609375 479 c 2,22,-1
 756.900390625 876 l 1,10,11
1023.29980469 1060 m 1,23,24
 1116.90039062 1092 1116.90039062 1092 1227.59960938 1092 c 0,25,26
 1399.5 1092 1399.5 1092 1518.75 1017.5 c 128,-1,27
 1638 943 1638 943 1638 808 c 0,28,29
 1638 781 1638 781 1632.59960938 752 c 0,30,31
 1575.90039062 428 1575.90039062 428 954 400 c 1,32,33
 947.700195312 366 947.700195312 366 947.700195312 334 c 0,34,35
 947.700195312 84 947.700195312 84 1133.09960938 84 c 0,36,37
 1236.59960938 84 1236.59960938 84 1311.29980469 145 c 128,-1,38
 1386 206 1386 206 1423.79980469 322 c 1,39,-1
 1573.20019531 322 l 1,40,41
 1503 141 1503 141 1372.95019531 56 c 128,-1,42
 1242.90039062 -29 1242.90039062 -29 1030.95019531 -29 c 128,-1,43
 819 -29 819 -29 709.200195312 82 c 1,44,45
 576.900390625 -29 576.900390625 -29 352.799804688 -29 c 0,46,47
 179.099609375 -29 179.099609375 -29 101.700195312 98 c 0,48,49
 50.400390625 183 50.400390625 183 50.400390625 310 c 0,50,51
 50.400390625 613 50.400390625 613 265.049804688 852.5 c 128,-1,52
 479.700195312 1092 479.700195312 1092 753.299804688 1092 c 0,53,54
 948.599609375 1092 948.599609375 1092 1023.29980469 1060 c 1,23,24
EndSplineSet
AlternateSubs2: "'aalt' Access All Alternates" ae.alt
Substitution2: "'salt' Stylistic Alternatives" ae.alt
EndChar
StartChar: eth
Encoding: 240 240 240
Width: 1229
Flags: W
LayerCount: 2
Back
Fore
SplineSet
905.040039062 1337 m 1,0,1
 1048.17578125 1188 1048.17578125 1188 1103.37304688 986.5 c 128,-1,2
 1158.5703125 785 1158.5703125 785 1118.69140625 557 c 0,3,4
 1070.57714844 282 1070.57714844 282 900.26953125 126.5 c 128,-1,5
 729.970703125 -29 729.970703125 -29 476.170898438 -29 c 0,6,7
 228.670898438 -29 228.670898438 -29 108.05078125 117.5 c 128,-1,8
 -12.5712890625 264 -12.5712890625 264 30.115234375 508 c 0,9,10
 70.3515625 738 70.3515625 738 240.318359375 889 c 128,-1,11
 410.284179688 1040 410.284179688 1040 629.883789062 1040 c 0,12,13
 667.68359375 1040 667.68359375 1040 705.334960938 1034 c 128,-1,14
 742.985351562 1028 742.985351562 1028 780.485351562 1016 c 1,15,16
 772.606445312 1079 772.606445312 1079 752.979492188 1134 c 128,-1,17
 733.350585938 1189 733.350585938 1189 700.146484375 1241 c 1,18,-1
 386.981445312 1092 l 1,19,-1
 359.475585938 1192 l 1,20,-1
 633.493164062 1323 l 1,21,22
 593.340820312 1361 593.340820312 1361 529.9140625 1392 c 128,-1,23
 466.487304688 1423 466.487304688 1423 380.510742188 1446 c 1,24,-1
 424.955078125 1556 l 1,25,26
 547.98046875 1539 547.98046875 1539 646.89453125 1502.5 c 128,-1,27
 745.810546875 1466 745.810546875 1466 818.086914062 1411 c 1,28,-1
 1142.02832031 1565 l 1,29,-1
 1166.30957031 1462 l 1,30,-1
 905.040039062 1337 l 1,0,1
775.717773438 891 m 1,31,32
 736.7421875 910 736.7421875 910 704.56640625 919 c 128,-1,33
 672.390625 928 672.390625 928 643.590820312 928 c 0,34,35
 543.690429688 928 543.690429688 928 484.68359375 832.5 c 128,-1,36
 425.677734375 737 425.677734375 737 385.615234375 508 c 0,37,38
 344.6796875 274 344.6796875 274 370.359375 179 c 128,-1,39
 396.040039062 84 396.040039062 84 495.939453125 84 c 0,40,41
 595.83984375 84 595.83984375 84 653.68359375 178 c 128,-1,42
 711.528320312 272 711.528320312 272 752.814453125 508 c 0,43,44
 771.534179688 615 771.534179688 615 776.990234375 710.5 c 128,-1,45
 782.448242188 806 782.448242188 806 775.717773438 891 c 1,31,32
EndSplineSet
EndChar
StartChar: divide
Encoding: 247 247 247
Width: 1544
Flags: W
CounterMasks: 1 00
LayerCount: 2
Back
Fore
SplineSet
638.099609375 1012 m 0,0,1
 638.099609375 1073 638.099609375 1073 677.700195312 1117 c 128,-1,2
 717.299804688 1161 717.299804688 1161 772.200195312 1161 c 0,3,4
 828 1161 828 1161 867.599609375 1117 c 128,-1,5
 907.200195312 1073 907.200195312 1073 907.200195312 1012 c 0,6,7
 907.200195312 950 907.200195312 950 867.599609375 906 c 128,-1,8
 828 862 828 862 772.200195312 862 c 0,9,10
 717.299804688 862 717.299804688 862 677.700195312 906 c 128,-1,11
 638.099609375 950 638.099609375 950 638.099609375 1012 c 0,0,1
638.099609375 272 m 0,12,13
 638.099609375 334 638.099609375 334 677.700195312 378 c 128,-1,14
 717.299804688 422 717.299804688 422 772.200195312 422 c 0,15,16
 828 422 828 422 867.599609375 378 c 128,-1,17
 907.200195312 334 907.200195312 334 907.200195312 272 c 0,18,19
 907.200195312 211 907.200195312 211 867.599609375 167 c 128,-1,20
 828 123 828 123 772.200195312 123 c 0,21,22
 717.299804688 123 717.299804688 123 677.700195312 167 c 128,-1,23
 638.099609375 211 638.099609375 211 638.099609375 272 c 0,12,13
195.299804688 756 m 1,24,-1
 1349.09960938 756 l 1,25,-1
 1349.09960938 528 l 1,26,-1
 195.299804688 528 l 1,27,-1
 195.299804688 756 l 1,24,-1
EndSplineSet
EndChar
StartChar: oslash
Encoding: 248 248 248
Width: 1229
Flags: W
AnchorPoint: "below" 522.968 0 basechar 0
AnchorPoint: "above" 714.005 1092 basechar 0
LayerCount: 2
Back
Fore
SplineSet
413.043945312 416 m 1,0,-1
 828.696289062 801 l 1,1,2
 829.142578125 891 829.142578125 891 796.338867188 935 c 128,-1,3
 763.536132812 979 763.536132812 979 694.236328125 979 c 0,4,5
 595.236328125 979 595.236328125 979 536.6796875 883.5 c 128,-1,6
 478.122070312 788 478.122070312 788 437.010742188 553 c 2,7,-1
 413.043945312 416 l 1,0,-1
403.203125 262 m 1,8,9
 401.1328125 173 401.1328125 173 434.749023438 128.5 c 128,-1,10
 468.362304688 84 468.362304688 84 537.663085938 84 c 0,11,12
 635.762695312 84 635.762695312 84 693.608398438 178 c 128,-1,13
 751.452148438 272 751.452148438 272 792.739257812 508 c 2,14,-1
 817.40625 649 l 1,15,-1
 403.203125 262 l 1,8,9
1102.98632812 913 m 1,16,17
 1149.79492188 841 1149.79492188 841 1163.24121094 745.5 c 128,-1,18
 1176.67773438 650 1176.67773438 650 1156.04101562 532 c 0,19,20
 1110.20410156 270 1110.20410156 270 940.5 120.5 c 128,-1,21
 770.793945312 -29 770.793945312 -29 517.89453125 -29 c 0,22,23
 417.994140625 -29 417.994140625 -29 338.581054688 -4.5 c 128,-1,24
 259.166992188 20 259.166992188 20 195.915039062 70 c 1,25,-1
 11.0244140625 -102 l 1,26,-1
 -49.53125 -16 l 1,27,-1
 126.583984375 147 l 1,28,29
 81.2060546875 222 81.2060546875 222 68.38671875 318.5 c 128,-1,30
 55.5693359375 415 55.5693359375 415 76.0380859375 532 c 0,31,32
 122.046875 795 122.046875 795 291.576171875 943.5 c 128,-1,33
 461.10546875 1092 461.10546875 1092 714.004882812 1092 c 0,34,35
 818.405273438 1092 818.405273438 1092 899.081054688 1067 c 128,-1,36
 979.7578125 1042 979.7578125 1042 1035.99023438 993 c 1,37,-1
 1216.57519531 1161 l 1,38,-1
 1278.92675781 1075 l 1,39,-1
 1102.98632812 913 l 1,16,17
EndSplineSet
EndChar
StartChar: thorn
Encoding: 254 254 254
Width: 1288
Flags: W
LayerCount: 2
Back
Fore
SplineSet
501.021484375 584 m 2,0,-1
 482.65234375 479 l 2,1,2
 465.227539062 379.400390625 465.227539062 379.400390625 465.227539062 309.33984375 c 0,3,4
 465.227539062 248.559570312 465.227539062 248.559570312 478.340820312 210 c 0,5,6
 506.57421875 127 506.57421875 127 601.973632812 127 c 0,7,8
 700.07421875 127 700.07421875 127 755.5234375 215 c 0,9,10
 810.962890625 303 810.962890625 303 851.03125 532 c 0,11,12
 875.790039062 673.559570312 875.790039062 673.559570312 875.790039062 761.049804688 c 0,13,14
 875.790039062 815.08984375 875.790039062 815.08984375 866.348632812 848.5 c 0,15,16
 841.598632812 936 841.598632812 936 743.499023438 936 c 0,17,18
 648.098632812 936 648.098632812 936 590.83203125 853 c 128,-1,19
 533.565429688 770 533.565429688 770 501.021484375 584 c 2,0,-1
331.478515625 1436 m 1,20,-1
 194.678710938 1436 l 1,21,-1
 215.666992188 1556 l 1,22,-1
 671.067382812 1556 l 1,23,-1
 561.204101562 928 l 1,24,25
 616.220703125 1011 616.220703125 1011 691.712890625 1051.5 c 0,26,27
 767.196289062 1092 767.196289062 1092 867.99609375 1092 c 0,28,29
 1072.29589844 1092 1072.29589844 1092 1163.59179688 942.5 c 0,30,31
 1224.45019531 842.83984375 1224.45019531 842.83984375 1224.45019531 693.629882812 c 0,32,33
 1224.45019531 619.009765625 1224.45019531 619.009765625 1209.23144531 532 c 0,34,35
 1163.56542969 271 1163.56542969 271 1019.87988281 121 c 0,36,37
 876.185546875 -29 876.185546875 -29 671.885742188 -29 c 0,38,39
 571.0859375 -29 571.0859375 -29 509.768554688 11.5 c 0,40,41
 448.452148438 52 448.452148438 52 422.477539062 135 c 1,42,-1
 324.333007812 -426 l 1,43,-1
 5.7333984375 -426 l 1,44,-1
 331.478515625 1436 l 1,20,-1
EndSplineSet
EndChar
StartChar: dcroat
Encoding: 273 273 273
Width: 1288
Flags: W
LayerCount: 2
Back
Fore
SplineSet
741.330078125 479 m 2,0,-1
 759.69921875 584 l 2,1,2
 776.997070312 682.860351562 776.997070312 682.860351562 776.997070312 752.629882812 c 0,3,4
 776.997070312 814.120117188 776.997070312 814.120117188 763.559570312 853 c 0,5,6
 734.876953125 936 734.876953125 936 640.376953125 936 c 0,7,8
 541.376953125 936 541.376953125 936 486.017578125 848.5 c 128,-1,9
 430.659179688 761 430.659179688 761 390.599609375 532 c 0,10,11
 365.975585938 391.219726562 365.975585938 391.219726562 365.975585938 303.73046875 c 0,12,13
 365.975585938 248.900390625 365.975585938 248.900390625 375.641601562 215 c 0,14,15
 400.751953125 127 400.751953125 127 498.8515625 127 c 0,16,17
 593.3515625 127 593.3515625 127 651.069335938 210 c 0,18,19
 708.786132812 293 708.786132812 293 741.330078125 479 c 2,0,-1
1190.08789062 1223 m 1,20,-1
 976.130859375 0 l 1,21,-1
 657.53125 0 l 1,22,-1
 681.147460938 135 l 1,23,24
 626.129882812 52 626.129882812 52 550.197265625 11.5 c 0,25,26
 474.254882812 -29 474.254882812 -29 373.455078125 -29 c 0,27,28
 170.0546875 -29 170.0546875 -29 79.7490234375 121 c 0,29,30
 19.763671875 220.629882812 19.763671875 220.629882812 19.763671875 369.219726562 c 0,31,32
 19.763671875 444.349609375 19.763671875 444.349609375 35.099609375 532 c 0,33,34
 80.9365234375 794 80.9365234375 794 223.55078125 943 c 0,35,36
 366.165039062 1092 366.165039062 1092 569.565429688 1092 c 0,37,38
 670.365234375 1092 670.365234375 1092 732.131835938 1051.5 c 128,-1,39
 793.899414062 1011 793.899414062 1011 819.881835938 928 c 1,40,-1
 871.48828125 1223 l 1,41,-1
 579.887695312 1223 l 1,42,-1
 600.875976562 1343 l 1,43,-1
 892.475585938 1343 l 1,44,-1
 908.748046875 1436 l 1,45,-1
 771.948242188 1436 l 1,46,-1
 792.9453125 1556 l 1,47,-1
 1248.34472656 1556 l 1,48,-1
 1211.07617188 1343 l 1,49,-1
 1365.87597656 1343 l 1,50,-1
 1344.88769531 1223 l 1,51,-1
 1190.08789062 1223 l 1,20,-1
EndSplineSet
AlternateSubs2: "'aalt' Access All Alternates" dcroat.alt
Substitution2: "'salt' Stylistic Alternatives" dcroat.alt
EndChar
StartChar: Hbar
Encoding: 294 294 294
Width: 1741
Flags: W
AnchorPoint: "above" 1016.55 1465 basechar 0
AnchorPoint: "below" 742.5 0 basechar 0
LayerCount: 2
Back
Fore
SplineSet
-44.099609375 0 m 1,0,-1
 -23.400390625 121 l 1,1,-1
 148.5 121 l 1,2,-1
 312.299804688 1053 l 1,3,-1
 140.400390625 1053 l 1,4,-1
 163.799804688 1190 l 1,5,-1
 335.700195312 1190 l 1,6,-1
 368.099609375 1372 l 1,7,-1
 196.200195312 1372 l 1,8,-1
 216.900390625 1493 l 1,9,-1
 908.099609375 1493 l 1,10,-1
 887.400390625 1372 l 1,11,-1
 714.599609375 1372 l 1,12,-1
 682.200195312 1190 l 1,13,-1
 1216.79980469 1190 l 1,14,-1
 1249.20019531 1372 l 1,15,-1
 1077.29980469 1372 l 1,16,-1
 1098 1493 l 1,17,-1
 1789.20019531 1493 l 1,18,-1
 1768.5 1372 l 1,19,-1
 1595.70019531 1372 l 1,20,-1
 1563.29980469 1190 l 1,21,-1
 1736.09960938 1190 l 1,22,-1
 1712.70019531 1053 l 1,23,-1
 1539.90039062 1053 l 1,24,-1
 1376.09960938 121 l 1,25,-1
 1548.90039062 121 l 1,26,-1
 1528.20019531 0 l 1,27,-1
 837 0 l 1,28,-1
 857.700195312 121 l 1,29,-1
 1029.59960938 121 l 1,30,-1
 1136.70019531 733 l 1,31,-1
 602.099609375 733 l 1,32,-1
 495 121 l 1,33,-1
 667.799804688 121 l 1,34,-1
 647.099609375 0 l 1,35,-1
 -44.099609375 0 l 1,0,-1
626.400390625 870 m 1,36,-1
 1161 870 l 1,37,-1
 1193.40039062 1053 l 1,38,-1
 658.799804688 1053 l 1,39,-1
 626.400390625 870 l 1,36,-1
EndSplineSet
EndChar
StartChar: hbar
Encoding: 295 295 295
Width: 1340
Flags: W
AnchorPoint: "below" 543.395 0 basechar 0
AnchorPoint: "above" 435.153 1465 basechar 0
LayerCount: 2
Back
Fore
SplineSet
62.79296875 0 m 1,0,-1
 272.025390625 1196 l 1,1,-1
 129.825195312 1196 l 1,2,-1
 153.791992188 1333 l 1,3,-1
 295.9921875 1333 l 1,4,-1
 314.009765625 1436 l 1,5,-1
 171.809570312 1436 l 1,6,-1
 192.806640625 1556 l 1,7,-1
 653.607421875 1556 l 1,8,-1
 614.591796875 1333 l 1,9,-1
 937.692382812 1333 l 1,10,-1
 913.724609375 1196 l 1,11,-1
 590.625 1196 l 1,12,-1
 541.116210938 913 l 1,13,14
 615.338867188 1008 615.338867188 1008 696.483398438 1050 c 0,15,16
 777.626953125 1092 777.626953125 1092 890.126953125 1092 c 0,17,18
 1051.23632812 1092 1051.23632812 1092 1115.12695312 986.5 c 0,19,20
 1156.04980469 918.9296875 1156.04980469 918.9296875 1156.04980469 810.540039062 c 0,21,22
 1156.04980469 749.700195312 1156.04980469 749.700195312 1143.15332031 676 c 2,23,-1
 1046.06054688 121 l 1,24,-1
 1182.86132812 121 l 1,25,-1
 1161.69335938 0 l 1,26,-1
 706.29296875 0 l 1,27,-1
 826.307617188 686 l 2,28,29
 838.56640625 756.099609375 838.56640625 756.099609375 838.56640625 803.950195312 c 0,30,31
 838.56640625 848.259765625 838.56640625 848.259765625 828.053710938 873.5 c 0,32,33
 806.193359375 926 806.193359375 926 729.693359375 926 c 0,34,35
 633.392578125 926 633.392578125 926 574.659179688 847.5 c 128,-1,36
 515.924804688 769 515.924804688 769 486.008789062 598 c 2,37,-1
 381.392578125 0 l 1,38,-1
 62.79296875 0 l 1,0,-1
EndSplineSet
EndChar
StartChar: dotlessi
Encoding: 305 305 305
Width: 700
Flags: W
AnchorPoint: "above" 447.3 1092 basechar 0
LayerCount: 2
Back
Fore
SplineSet
445.689453125 121 m 1,0,-1
 582.489257812 121 l 1,1,-1
 561.321289062 0 l 1,2,-1
 105.920898438 0 l 1,3,-1
 270.7109375 942 l 1,4,-1
 134.810546875 942 l 1,5,-1
 155.978515625 1063 l 1,6,-1
 610.478515625 1063 l 1,7,-1
 445.689453125 121 l 1,0,-1
EndSplineSet
EndChar
StartChar: kgreenlandic
Encoding: 312 312 312
Width: 1277
Flags: W
LayerCount: 2
Back
Fore
SplineSet
424.782226562 0 m 1,0,-1
 106.181640625 0 l 1,1,-1
 270.450195312 939 l 1,2,-1
 134.549804688 939 l 1,3,-1
 155.717773438 1060 l 1,4,-1
 610.217773438 1060 l 1,5,-1
 522.044921875 556 l 1,6,-1
 975.150390625 939 l 1,7,-1
 860.849609375 939 l 1,8,-1
 882.017578125 1060 l 1,9,-1
 1141.21777344 1060 l 1,10,-1
 1120.04980469 939 l 1,11,-1
 830.762695312 695 l 1,12,-1
 1133.54980469 121 l 1,13,-1
 1237.04980469 121 l 1,14,-1
 1215.88183594 0 l 1,15,-1
 863.982421875 0 l 1,16,-1
 601.172851562 499 l 1,17,-1
 496.682617188 411 l 1,18,-1
 424.782226562 0 l 1,0,-1
EndSplineSet
EndChar
StartChar: Lslash
Encoding: 321 321 321
Width: 1308
Flags: W
LayerCount: 2
Back
Fore
SplineSet
-32.494140625 0 m 1,0,-1
 -11.326171875 121 l 1,1,-1
 161.473632812 121 l 1,2,-1
 236.348632812 549 l 1,3,-1
 20.6318359375 422 l 1,4,-1
 -21.900390625 539 l 1,5,-1
 263.990234375 707 l 1,6,-1
 380.326171875 1372 l 1,7,-1
 207.526367188 1372 l 1,8,-1
 228.693359375 1493 l 1,9,-1
 919.889648438 1493 l 1,10,-1
 898.7265625 1372 l 1,11,-1
 726.826171875 1372 l 1,12,-1
 650.901367188 938 l 1,13,-1
 992.060546875 1139 l 1,14,-1
 1034.59472656 1022 l 1,15,-1
 622.911132812 778 l 1,16,-1
 510.772460938 137 l 1,17,-1
 1039.9765625 137 l 1,18,-1
 1081.25976562 373 l 1,19,-1
 1202.75976562 373 l 1,20,-1
 1137.50976562 0 l 1,21,-1
 -32.494140625 0 l 1,0,-1
EndSplineSet
EndChar
StartChar: lslash
Encoding: 322 322 322
Width: 709
Flags: W
LayerCount: 2
Back
Fore
SplineSet
407.060546875 121 m 1,0,-1
 542.9609375 121 l 1,1,-1
 521.79296875 0 l 1,2,-1
 66.392578125 0 l 1,3,-1
 180.629882812 653 l 1,4,-1
 24.3359375 557 l 1,5,-1
 -13.0947265625 662 l 1,6,-1
 205.469726562 795 l 1,7,-1
 317.610351562 1436 l 1,8,-1
 181.709960938 1436 l 1,9,-1
 202.70703125 1556 l 1,10,-1
 658.107421875 1556 l 1,11,-1
 560.6640625 999 l 1,12,-1
 717.12890625 1096 l 1,13,-1
 756.360351562 991 l 1,14,-1
 535.995117188 858 l 1,15,-1
 407.060546875 121 l 1,0,-1
EndSplineSet
EndChar
StartChar: Eng
Encoding: 330 330 330
Width: 1607
Flags: W
LayerCount: 2
Back
Fore
SplineSet
724.5 -173 m 0,0,1
 724.5 -305 724.5 -305 838.799804688 -305 c 0,2,3
 926.099609375 -305 926.099609375 -305 973.799804688 -230.5 c 128,-1,4
 1021.5 -156 1021.5 -156 1057.5 49 c 2,5,-1
 1210.5 927 l 2,6,7
 1237.5 1080 1237.5 1080 1237.5 1158 c 128,-1,8
 1237.5 1236 1237.5 1236 1226.70019531 1273 c 0,9,10
 1198.79980469 1370 1198.79980469 1370 1089 1370 c 0,11,12
 953.099609375 1370 953.099609375 1370 865.799804688 1245.5 c 128,-1,13
 778.5 1121 778.5 1121 729 841 c 2,14,-1
 603.900390625 121 l 1,15,-1
 775.799804688 121 l 1,16,-1
 754.200195312 0 l 1,17,-1
 63 0 l 1,18,-1
 84.599609375 121 l 1,19,-1
 255.599609375 121 l 1,20,-1
 474.299804688 1372 l 1,21,-1
 338.400390625 1372 l 1,22,-1
 359.099609375 1493 l 1,23,-1
 843.299804688 1493 l 1,24,-1
 816.299804688 1339 l 1,25,26
 905.400390625 1436 905.400390625 1436 1005.29980469 1478.5 c 128,-1,27
 1105.20019531 1521 1105.20019531 1521 1249.20019531 1521 c 0,28,29
 1452.59960938 1521 1452.59960938 1521 1531.79980469 1380 c 0,30,31
 1581.29980469 1292 1581.29980469 1292 1581.29980469 1180 c 128,-1,32
 1581.29980469 1068 1581.29980469 1068 1563.29980469 965 c 2,33,-1
 1401.29980469 41 l 2,34,35
 1359 -202 1359 -202 1228.95019531 -314 c 128,-1,36
 1098.90039062 -426 1098.90039062 -426 858.599609375 -426 c 0,37,38
 711 -426 711 -426 566.099609375 -358 c 1,39,-1
 607.5 -123 l 1,40,-1
 727.200195312 -123 l 1,41,42
 724.5 -150 724.5 -150 724.5 -173 c 0,0,1
EndSplineSet
AlternateSubs2: "'aalt' Access All Alternates" Eng.alt Eng.alt2
Substitution2: "'locl' Localized Forms in Latin - Sami" Eng.alt
EndChar
StartChar: eng
Encoding: 331 331 331
Width: 1340
Flags: W
LayerCount: 2
Back
Fore
SplineSet
764.810546875 -125 m 2,0,-1
 906.686523438 686 l 2,1,2
 918.954101562 756.099609375 918.954101562 756.099609375 918.954101562 803.959960938 c 0,3,4
 918.954101562 848.259765625 918.954101562 848.259765625 908.442382812 873.5 c 0,5,6
 886.581054688 926 886.581054688 926 810.081054688 926 c 0,7,8
 713.78125 926 713.78125 926 655.046875 847.5 c 128,-1,9
 596.313476562 769 596.313476562 769 566.397460938 598 c 2,10,-1
 461.78125 0 l 1,11,-1
 143.180664062 0 l 1,12,-1
 307.98046875 942 l 1,13,-1
 172.080078125 942 l 1,14,-1
 193.248046875 1063 l 1,15,-1
 647.748046875 1063 l 1,16,-1
 621.50390625 913 l 1,17,18
 695.7265625 1008 695.7265625 1008 776.87109375 1050 c 128,-1,19
 858.014648438 1092 858.014648438 1092 970.514648438 1092 c 0,20,21
 1131.61523438 1092 1131.61523438 1092 1195.51464844 986.5 c 0,22,23
 1236.43847656 918.9296875 1236.43847656 918.9296875 1236.43847656 810.540039062 c 0,24,25
 1236.43847656 749.700195312 1236.43847656 749.700195312 1223.54101562 676 c 2,26,-1
 1083.41113281 -125 l 2,27,28
 1054.89941406 -288 1054.89941406 -288 936.341796875 -371.5 c 128,-1,29
 817.78515625 -455 817.78515625 -455 615.28515625 -455 c 0,30,31
 561.28515625 -455 561.28515625 -455 501.831054688 -445 c 0,32,33
 442.376953125 -435 442.376953125 -435 380.006835938 -416 c 1,34,-1
 419.543945312 -190 l 1,35,-1
 521.064453125 -191 l 1,36,37
 516.4921875 -220.990234375 516.4921875 -220.990234375 516.4921875 -244.719726562 c 0,38,39
 516.4921875 -284.309570312 516.4921875 -284.309570312 529.208984375 -306.5 c 0,40,41
 549.548828125 -342 549.548828125 -342 608.94921875 -342 c 0,42,43
 674.649414062 -342 674.649414062 -342 708.974609375 -295 c 0,44,45
 743.291992188 -248 743.291992188 -248 764.810546875 -125 c 2,0,-1
EndSplineSet
EndChar
StartChar: OE
Encoding: 338 338 338
Width: 2175
Flags: W
AnchorPoint: "below" 1088.01 0 basechar 0
AnchorPoint: "above" 1344.29 1465 basechar 0
LayerCount: 2
Back
Fore
SplineSet
939.078125 121 m 1,0,-1
 1157.921875 1372 l 1,1,-1
 1043.62207031 1372 l 2,2,3
 806.026367188 1372 806.026367188 1372 657.959960938 1215 c 128,-1,4
 509.89453125 1058 509.89453125 1058 455.663085938 748 c 0,5,6
 400.73046875 434 400.73046875 434 493.052734375 277.5 c 128,-1,7
 585.373046875 121 585.373046875 121 824.7734375 121 c 2,8,-1
 939.078125 121 l 1,0,-1
1950.20996094 0 m 1,9,-1
 761.306640625 0 l 2,10,11
 575.006835938 0 575.006835938 0 457.604492188 26 c 128,-1,12
 340.203125 52 340.203125 52 259.274414062 109 c 1,13,14
 133.01953125 195 133.01953125 195 86.009765625 361 c 128,-1,15
 39.0009765625 527 39.0009765625 527 77.6630859375 748 c 0,16,17
 116.150390625 968 116.150390625 968 220.977539062 1132.5 c 128,-1,18
 325.805664062 1297 325.805664062 1297 482.325195312 1384 c 1,19,20
 582.471679688 1442 582.471679688 1442 707.533203125 1467.5 c 128,-1,21
 832.59375 1493 832.59375 1493 1022.49023438 1493 c 2,22,-1
 2195.19042969 1493 l 1,23,-1
 2133.61230469 1141 l 1,24,-1
 2010.31152344 1141 l 1,25,-1
 2047.92285156 1356 l 1,26,-1
 1503.42285156 1356 l 1,27,-1
 1419.6328125 877 l 1,28,-1
 1749.93261719 877 l 1,29,-1
 1783.16992188 1067 l 1,30,-1
 1906.46972656 1067 l 1,31,-1
 1816.20019531 551 l 1,32,-1
 1692.90039062 551 l 1,33,-1
 1726.13671875 741 l 1,34,-1
 1395.83691406 741 l 1,35,-1
 1290.17675781 137 l 1,36,-1
 1850.87695312 137 l 1,37,-1
 1888.48828125 352 l 1,38,-1
 2011.78808594 352 l 1,39,-1
 1950.20996094 0 l 1,9,-1
EndSplineSet
EndChar
StartChar: oe
Encoding: 339 339 339
Width: 1894
Flags: W
AnchorPoint: "above" 1074.55 1092 basechar 0
AnchorPoint: "below" 883.519 0 basechar 0
LayerCount: 2
Back
Fore
SplineSet
1132.20019531 400 m 1,0,1
 1126.79980469 366 1126.79980469 366 1126.79980469 295 c 0,2,3
 1127.70019531 84 1127.70019531 84 1312.20019531 84 c 0,4,5
 1415.70019531 84 1415.70019531 84 1490.40039062 145 c 128,-1,6
 1565.09960938 206 1565.09960938 206 1602.90039062 322 c 1,7,-1
 1752.29980469 322 l 1,8,9
 1682.09960938 141 1682.09960938 141 1552.04980469 56 c 128,-1,10
 1422 -29 1422 -29 1210.5 -29 c 128,-1,11
 999 -29 999 -29 890.099609375 81 c 1,12,13
 734.400390625 -29 734.400390625 -29 499.5 -29 c 128,-1,14
 264.599609375 -29 264.599609375 -29 147.599609375 120 c 0,15,16
 63 228 63 228 63 394 c 0,17,18
 63 458 63 458 75.599609375 532 c 0,19,20
 121.5 795 121.5 795 291.150390625 943.5 c 128,-1,21
 460.799804688 1092 460.799804688 1092 697.5 1092 c 0,22,23
 933.299804688 1092 933.299804688 1092 1051.20019531 980 c 1,24,25
 1200.59960938 1092 1200.59960938 1092 1389.59960938 1092 c 128,-1,26
 1578.59960938 1092 1578.59960938 1092 1688.40039062 1024 c 0,27,28
 1842.29980469 927 1842.29980469 927 1811.70019531 752 c 0,29,30
 1755 428 1755 428 1132.20019531 400 c 1,0,1
1491.29980469 762 m 0,31,32
 1504.79980469 837 1504.79980469 837 1490.40039062 894 c 0,33,34
 1470.59960938 979 1470.59960938 979 1385.09960938 979 c 0,35,36
 1300.5 979 1300.5 979 1251.90039062 893 c 0,37,38
 1201.5 799 1201.5 799 1152.90039062 519 c 1,39,40
 1447.20019531 510 1447.20019531 510 1491.29980469 762 c 0,31,32
411.299804688 181 m 0,41,42
 435.599609375 84 435.599609375 84 537.299804688 84 c 0,43,44
 638.099609375 84 638.099609375 84 695.700195312 180 c 128,-1,45
 753.299804688 276 753.299804688 276 790.200195312 488 c 0,46,47
 828 699 828 699 828 774.5 c 128,-1,48
 828 850 828 850 819 884 c 0,49,50
 795.599609375 979 795.599609375 979 693.900390625 979 c 128,-1,51
 592.200195312 979 592.200195312 979 533.700195312 882.5 c 128,-1,52
 475.200195312 786 475.200195312 786 439.200195312 577 c 0,53,54
 402.299804688 368 402.299804688 368 402.299804688 291.5 c 128,-1,55
 402.299804688 215 402.299804688 215 411.299804688 181 c 0,41,42
EndSplineSet
EndChar
StartChar: Tbar
Encoding: 358 358 358
Width: 1371
Flags: W
LayerCount: 2
Back
Fore
SplineSet
207 713 m 1,0,-1
 231.299804688 850 l 1,1,-1
 530.099609375 850 l 1,2,-1
 618.299804688 1356 l 1,3,-1
 250.200195312 1356 l 1,4,-1
 209.700195312 1120 l 1,5,-1
 86.400390625 1120 l 1,6,-1
 151.200195312 1493 l 1,7,-1
 1483.20019531 1493 l 1,8,-1
 1418.40039062 1120 l 1,9,-1
 1296.90039062 1120 l 1,10,-1
 1337.40039062 1356 l 1,11,-1
 966.599609375 1356 l 1,12,-1
 878.400390625 850 l 1,13,-1
 1177.20019531 850 l 1,14,-1
 1152.90039062 713 l 1,15,-1
 854.099609375 713 l 1,16,-1
 750.599609375 121 l 1,17,-1
 929.700195312 121 l 1,18,-1
 909 0 l 1,19,-1
 203.400390625 0 l 1,20,-1
 224.099609375 121 l 1,21,-1
 402.299804688 121 l 1,22,-1
 505.799804688 713 l 1,23,-1
 207 713 l 1,0,-1
EndSplineSet
EndChar
StartChar: tbar
Encoding: 359 359 359
Width: 851
Flags: W
AnchorPoint: "above" 478.8 1465 basechar 0
AnchorPoint: "below" 381.6 0 basechar 0
LayerCount: 2
Back
Fore
SplineSet
228.599609375 942 m 1,0,-1
 90 942 l 1,1,-1
 110.700195312 1063 l 1,2,-1
 249.299804688 1063 l 1,3,-1
 306.900390625 1393 l 1,4,-1
 625.5 1393 l 1,5,-1
 567.900390625 1063 l 1,6,-1
 833.400390625 1063 l 1,7,-1
 812.700195312 942 l 1,8,-1
 547.200195312 942 l 1,9,-1
 498.599609375 665 l 1,10,-1
 764.099609375 665 l 1,11,-1
 742.5 544 l 1,12,-1
 477 544 l 1,13,-1
 432.900390625 291 l 2,14,15
 408.599609375 152 408.599609375 152 422.549804688 118 c 128,-1,16
 436.5 84 436.5 84 488.700195312 84 c 0,17,18
 546.299804688 84 546.299804688 84 581.400390625 127 c 128,-1,19
 616.5 170 616.5 170 634.5 260 c 1,20,-1
 768.599609375 260 l 1,21,22
 732.599609375 100 732.599609375 100 650.700195312 35.5 c 128,-1,23
 568.799804688 -29 568.799804688 -29 396 -29 c 0,24,25
 198.900390625 -29 198.900390625 -29 140.400390625 39.5 c 128,-1,26
 81.900390625 108 81.900390625 108 114.299804688 291 c 2,27,-1
 158.400390625 544 l 1,28,-1
 19.7998046875 544 l 1,29,-1
 41.400390625 665 l 1,30,-1
 180 665 l 1,31,-1
 228.599609375 942 l 1,0,-1
EndSplineSet
EndChar
StartChar: longs
Encoding: 383 383 383
Width: 792
Flags: W
AnchorPoint: "above" 675.312 1465 basechar 0
AnchorPoint: "below" 19.7959 -430 basechar 0
LayerCount: 2
Back
Fore
SplineSet
1015.20019531 1290 m 1,0,-1
 914.400390625 1290 l 1,1,2
 916.200195312 1305 916.200195312 1305 916.200195312 1318 c 0,3,4
 916.200195312 1375 916.200195312 1375 893.700195312 1406 c 0,5,6
 866.700195312 1444 866.700195312 1444 804.599609375 1444 c 0,7,8
 732.599609375 1444 732.599609375 1444 690.299804688 1386.5 c 128,-1,9
 648 1329 648 1329 625.5 1200 c 2,10,-1
 410.400390625 -29 l 2,11,12
 373.5 -238 373.5 -238 261.900390625 -298 c 0,13,14
 88.2001953125 -389 88.2001953125 -389 -108.900390625 -389 c 1,15,16
 -99 -333 -99 -333 -88.2001953125 -277 c 17,17,18
 -16.2001953125 -277 -16.2001953125 -277 26.099609375 -219.5 c 128,-1,19
 68.400390625 -162 68.400390625 -162 90.900390625 -33 c 2,20,-1
 261.900390625 942 l 25,21,-1
 119.700195312 942 l 1,22,-1
 140.400390625 1063 l 1,23,-1
 282.599609375 1063 l 1,24,-1
 306 1196 l 2,25,26
 336.599609375 1373 336.599609375 1373 454.5 1464.5 c 128,-1,27
 572.400390625 1556 572.400390625 1556 769.5 1556 c 0,28,29
 846 1556 846 1556 917.099609375 1546.5 c 128,-1,30
 988.200195312 1537 988.200195312 1537 1055.70019531 1518 c 1,31,-1
 1015.20019531 1290 l 1,0,-1
EndSplineSet
EndChar
StartChar: uni0180
Encoding: 384 384 384
Width: 1288
Flags: W
AnchorPoint: "below" 472.132 0 basechar 0
AnchorPoint: "above" 414.321 1465 basechar 0
LayerCount: 2
Back
Fore
SplineSet
296.748046875 1436 m 1,0,-1
 159.948242188 1436 l 1,1,-1
 180.9453125 1556 l 1,2,-1
 636.344726562 1556 l 1,3,-1
 597.330078125 1333 l 1,4,-1
 920.4296875 1333 l 1,5,-1
 896.462890625 1196 l 1,6,-1
 573.36328125 1196 l 9,7,-1
 526.482421875 928 l 17,8,9
 581.499023438 1011 581.499023438 1011 656.982421875 1051.5 c 128,-1,10
 732.46484375 1092 732.46484375 1092 833.264648438 1092 c 0,11,12
 1037.56542969 1092 1037.56542969 1092 1128.86132812 942.5 c 0,13,14
 1189.71875 842.83984375 1189.71875 842.83984375 1189.71875 693.629882812 c 0,15,16
 1189.71875 619.009765625 1189.71875 619.009765625 1174.5 532 c 0,17,18
 1128.84277344 271 1128.84277344 271 985.149414062 121 c 128,-1,19
 841.455078125 -29 841.455078125 -29 637.155273438 -29 c 0,20,21
 536.35546875 -29 536.35546875 -29 475.046875 11.5 c 128,-1,22
 413.73046875 52 413.73046875 52 387.747070312 135 c 1,23,-1
 364.130859375 0 l 1,24,-1
 45.53125 0 l 1,25,-1
 254.762695312 1196 l 1,26,-1
 112.563476562 1196 l 1,27,-1
 136.530273438 1333 l 1,28,-1
 278.73046875 1333 l 1,29,-1
 296.748046875 1436 l 1,0,-1
447.9296875 479 m 2,30,31
 430.505859375 379.400390625 430.505859375 379.400390625 430.505859375 309.33984375 c 0,32,33
 430.505859375 248.559570312 430.505859375 248.559570312 443.619140625 210 c 0,34,35
 471.8515625 127 471.8515625 127 567.251953125 127 c 0,36,37
 665.3515625 127 665.3515625 127 720.791992188 215 c 128,-1,38
 776.241210938 303 776.241210938 303 816.299804688 532 c 0,39,40
 841.068359375 673.5703125 841.068359375 673.5703125 841.068359375 761.059570312 c 0,41,42
 841.068359375 815.08984375 841.068359375 815.08984375 831.618164062 848.5 c 0,43,44
 806.876953125 936 806.876953125 936 708.77734375 936 c 0,45,46
 613.376953125 936 613.376953125 936 556.110351562 853 c 128,-1,47
 498.833984375 770 498.833984375 770 466.298828125 584 c 2,48,-1
 447.9296875 479 l 2,30,31
EndSplineSet
EndChar
StartChar: uni0181
Encoding: 385 385 385
Width: 1557
Flags: W
LayerCount: 2
Back
Fore
SplineSet
388.893554688 1493 m 9,0,-1
 1013.49023438 1493 l 18,1,2
 1262.79003906 1493 1262.79003906 1493 1366.3984375 1401 c 0,3,4
 1473.08398438 1306 1473.08398438 1306 1441.2421875 1124 c 0,5,6
 1417.9765625 991 1417.9765625 991 1319.72363281 913 c 0,7,8
 1220.58007812 835 1220.58007812 835 1049.68847656 815 c 1,9,10
 1252.18847656 815 1252.18847656 815 1339.19140625 695 c 0,11,12
 1429.875 596 1429.875 596 1401.18261719 432 c 0,13,14
 1362.33886719 210 1362.33886719 210 1192.76953125 105 c 0,15,16
 1024.11035156 0 1024.11035156 0 702.806640625 0 c 2,17,-1
 -44.1943359375 0 l 1,18,-1
 -23.0263671875 121 l 1,19,-1
 148.873046875 121 l 1,20,-1
 367.7265625 1372 l 0,21,22
 191.326171875 1372 191.326171875 1372 113.65625 1283 c 0,23,24
 34.7373046875 1192 34.7373046875 1192 2.197265625 1006 c 1,25,-1
 -176.002929688 1006 l 1,26,-1
 -113.373046875 1364 l 1,27,28
 -26.6015625 1433 -26.6015625 1433 194.220703125 1476 c 0,29,30
 282.693359375 1493 282.693359375 1493 388.893554688 1493 c 9,0,-1
626.405273438 870 m 1,31,-1
 744.305664062 870 l 2,32,33
 899.10546875 870 899.10546875 870 984.654296875 932 c 0,34,35
 1070.37011719 995 1070.37011719 995 1092.94238281 1124 c 0,36,37
 1115.68457031 1254 1115.68457031 1254 1053.10839844 1313 c 0,38,39
 991.421875 1372 991.421875 1372 832.126953125 1372 c 2,40,-1
 714.2265625 1372 l 1,41,-1
 626.405273438 870 l 1,31,-1
495.373046875 121 m 1,42,-1
 624.073242188 121 l 2,43,44
 795.973632812 121 795.973632812 121 892.069335938 197 c 128,-1,45
 988.1640625 273 988.1640625 273 1015.98339844 432 c 0,46,47
 1043.97265625 592 1043.97265625 592 974.087890625 671 c 128,-1,48
 904.211914062 750 904.211914062 750 734.11328125 750 c 2,49,-1
 605.413085938 750 l 1,50,-1
 495.373046875 121 l 1,42,-1
EndSplineSet
EndChar
StartChar: uni0183
Encoding: 387 387 387
Width: 1288
Flags: W
LayerCount: 2
Back
Fore
SplineSet
447.928710938 479 m 2,0,1
 415.389648438 293 415.389648438 293 443.168945312 210 c 0,2,3
 471.849609375 127 471.849609375 127 567.249023438 127 c 0,4,5
 665.349609375 127 665.349609375 127 721.245117188 215 c 0,6,7
 776.239257812 303 776.239257812 303 816.30078125 532 c 128,-1,8
 856.362304688 761 856.362304688 761 831.982421875 848 c 0,9,10
 806.876953125 936 806.876953125 936 708.77734375 936 c 0,11,12
 613.376953125 936 613.376953125 936 555.657226562 853 c 0,13,14
 498.837890625 770 498.837890625 770 466.296875 584 c 2,15,-1
 447.928710938 479 l 2,0,1
1175.4453125 1556 m 1,16,-1
 1125.05371094 1268 l 1,17,-1
 1016.15429688 1268 l 1,18,-1
 1045.54785156 1436 l 1,19,-1
 615.348632812 1436 l 1,20,-1
 526.478515625 928 l 1,21,22
 581.498046875 1011 581.498046875 1011 657.071289062 1052 c 0,23,24
 732.46875 1092 732.46875 1092 833.268554688 1092 c 0,25,26
 1037.56542969 1092 1037.56542969 1092 1129.23046875 942 c 0,27,28
 1220.15722656 793 1220.15722656 793 1174.5 532 c 128,-1,29
 1128.84277344 271 1128.84277344 271 985.598632812 121 c 0,30,31
 841.458007812 -29 841.458007812 -29 637.157226562 -29 c 0,32,33
 536.357421875 -29 536.357421875 -29 475.130859375 12 c 0,34,35
 413.728515625 52 413.728515625 52 387.749023438 135 c 1,36,-1
 364.131835938 0 l 1,37,-1
 -91.2685546875 0 l 1,38,-1
 -70.1005859375 121 l 1,39,-1
 66.69921875 121 l 1,40,-1
 296.749023438 1436 l 1,41,-1
 159.94921875 1436 l 1,42,-1
 180.942382812 1556 l 1,43,-1
 1175.4453125 1556 l 1,16,-1
EndSplineSet
EndChar
StartChar: uni0184
Encoding: 388 388 388
Width: 1575
Flags: W
LayerCount: 2
Back
Fore
SplineSet
626.405273438 870 m 1,0,-1
 745.205078125 870 l 2,1,2
 929.106445312 870 929.106445312 870 1052.43261719 852.375 c 0,3,4
 1064.16015625 850.698242188 1064.16015625 850.698242188 1072.72753906 849 c 0,5,6
 1244.33105469 814.987304688 1244.33105469 814.987304688 1353.64453125 697.868164062 c 0,7,8
 1354.96777344 696.440429688 1354.96777344 696.440429688 1356.29101562 695 c 0,9,10
 1446.97460938 596 1446.97460938 596 1418.28320312 432 c 0,11,12
 1379.43945312 209.997070312 1379.43945312 209.997070312 1210.3203125 105 c 128,-1,13
 1041.19238281 0 1041.19238281 0 703.706054688 0 c 2,14,-1
 -44.1943359375 0 l 1,15,-1
 -23.0263671875 121 l 1,16,-1
 148.873046875 121 l 1,17,-1
 273.607421875 834 l 1,18,-1
 15.306640625 834 l 1,19,-1
 36.4755859375 955 l 1,20,-1
 735.393554688 1493 l 1,21,-1
 626.405273438 870 l 1,0,-1
495.373046875 121 m 1,22,-1
 624.973632812 121 l 2,23,24
 806.53125 121 806.53125 121 903.311523438 192.5234375 c 0,25,26
 906.30859375 194.733398438 906.30859375 194.733398438 909.170898438 197 c 0,27,28
 1005.26367188 273.004882812 1005.26367188 273.004882812 1033.08300781 432 c 0,29,30
 1061.07324219 592 1061.07324219 592 991.188476562 671 c 0,31,32
 924.606445312 746.282226562 924.606445312 746.282226562 749.654296875 749.8515625 c 0,33,34
 742.385742188 750 742.385742188 750 735.012695312 750 c 2,35,-1
 605.413085938 750 l 1,36,-1
 495.373046875 121 l 1,22,-1
EndSplineSet
EndChar
StartChar: uni0185
Encoding: 389 389 389
Width: 1288
Flags: W
LayerCount: 2
Back
Fore
SplineSet
447.841796875 479 m 2,0,1
 415.302734375 293 415.302734375 293 443.53125 210 c 128,-1,2
 471.76171875 127 471.76171875 127 567.162109375 127 c 0,3,4
 665.26171875 127 665.26171875 127 720.706054688 215 c 128,-1,5
 776.15234375 303 776.15234375 303 816.212890625 532 c 128,-1,6
 856.275390625 761 856.275390625 761 831.532226562 848.5 c 128,-1,7
 806.791015625 936 806.791015625 936 708.690429688 936 c 0,8,9
 613.291015625 936 613.291015625 936 556.01953125 853 c 128,-1,10
 498.749023438 770 498.749023438 770 466.2109375 584 c 2,11,-1
 447.841796875 479 l 2,0,1
42.685546875 1008 m 1,12,-1
 63.6796875 1128 l 1,13,-1
 636.4296875 1557 l 1,14,-1
 526.390625 928 l 1,15,16
 581.411132812 1011 581.411132812 1011 656.896484375 1051.5 c 128,-1,17
 732.380859375 1092 732.380859375 1092 833.181640625 1092 c 0,18,19
 1037.484375 1092 1037.484375 1092 1128.78027344 942.5 c 128,-1,20
 1220.07617188 793 1220.07617188 793 1174.41015625 532 c 128,-1,21
 1128.75292969 271 1128.75292969 271 985.05859375 121 c 128,-1,22
 841.370117188 -29 841.370117188 -29 637.0703125 -29 c 0,23,24
 536.270507812 -29 536.270507812 -29 474.956054688 11.5 c 128,-1,25
 413.641601562 52 413.641601562 52 387.66015625 135 c 1,26,-1
 364.043945312 0 l 1,27,-1
 -91.3564453125 0 l 1,28,-1
 -70.1875 121 l 1,29,-1
 66.6123046875 121 l 1,30,-1
 220.885742188 1008 l 1,31,-1
 42.685546875 1008 l 1,12,-1
EndSplineSet
EndChar
StartChar: uni0186
Encoding: 390 390 390
Width: 1467
Flags: W
AnchorPoint: "above" 785.57 1465 basechar 0
LayerCount: 2
Back
Fore
SplineSet
133.293945312 1065 m 1,0,1
 226.806640625 1296 226.806640625 1296 384.099609375 1408 c 128,-1,2
 541.393554688 1520 541.393554688 1520 773.592773438 1520 c 0,3,4
 1113.79492188 1520 1113.79492188 1520 1274.86816406 1311.5 c 128,-1,5
 1435.94140625 1103 1435.94140625 1103 1373.49023438 746 c 0,6,7
 1310.859375 388 1310.859375 388 1076.83203125 179.5 c 128,-1,8
 842.806640625 -29 842.806640625 -29 502.606445312 -29 c 0,9,10
 382.907226562 -29 382.907226562 -29 258.905273438 3 c 128,-1,11
 134.903320312 35 134.903320312 35 1.375 100 c 1,12,-1
 65.5791015625 467 l 1,13,-1
 179.87890625 467 l 1,14,15
 182.088867188 279 182.088867188 279 258.432617188 185.5 c 128,-1,16
 334.775390625 92 334.775390625 92 486.875976562 92 c 0,17,18
 683.076171875 92 683.076171875 92 806.553710938 252.5 c 128,-1,19
 930.033203125 413 930.033203125 413 988.290039062 746 c 128,-1,20
 1046.546875 1079 1046.546875 1079 979.13671875 1239 c 128,-1,21
 911.7265625 1399 911.7265625 1399 713.724609375 1399 c 0,22,23
 579.624023438 1399 579.624023438 1399 480.0546875 1316 c 128,-1,24
 380.485351562 1233 380.485351562 1233 312.393554688 1065 c 1,25,-1
 133.293945312 1065 l 1,0,1
EndSplineSet
EndChar
StartChar: uni0187
Encoding: 391 391 391
Width: 1467
Flags: W
AnchorPoint: "above" 908.388 1465 basechar 0
LayerCount: 2
Back
Fore
SplineSet
1299.92382812 426 m 1,0,1
 1206.4140625 195 1206.4140625 195 1049.12109375 83 c 0,2,3
 891.825195312 -29 891.825195312 -29 659.625 -29 c 0,4,5
 319.42578125 -29 319.42578125 -29 158.888671875 180 c 0,6,7
 -2.7236328125 388 -2.7236328125 388 59.73046875 745 c 0,8,9
 122.360351562 1103 122.360351562 1103 356.922851562 1312 c 0,10,11
 590.412109375 1520 590.412109375 1520 930.609375 1520 c 0,12,13
 1050.30859375 1520 1050.30859375 1520 1174.31054688 1488 c 0,14,15
 1224.24316406 1475 1224.24316406 1475 1275.99316406 1457 c 1,16,17
 1313.33398438 1583 1313.33398438 1583 1401.00292969 1652 c 0,18,19
 1489.57226562 1721 1489.57226562 1721 1581.37207031 1721 c 0,20,21
 1635.37207031 1721 1635.37207031 1721 1694.82617188 1711 c 0,22,23
 1754.28027344 1701 1754.28027344 1701 1816.65039062 1682 c 1,24,-1
 1777.29296875 1457 l 1,25,-1
 1675.59277344 1457 l 1,26,27
 1689.58789062 1537 1689.58789062 1537 1667.80761719 1572 c 0,28,29
 1647.10839844 1608 1647.10839844 1608 1587.70800781 1608 c 0,30,31
 1522.0078125 1608 1522.0078125 1608 1487.68164062 1561 c 0,32,33
 1453.36523438 1514 1453.36523438 1514 1431.84570312 1391 c 2,34,-1
 1367.63964844 1024 l 1,35,-1
 1253.33984375 1024 l 1,36,37
 1251.12597656 1212 1251.12597656 1212 1174.87792969 1306 c 0,38,39
 1098.44140625 1399 1098.44140625 1399 946.340820312 1399 c 0,40,41
 750.142578125 1399 750.142578125 1399 626.577148438 1238 c 0,42,43
 503.1875 1078 503.1875 1078 444.930664062 745 c 0,44,45
 386.674804688 412 386.674804688 412 454.083984375 252 c 0,46,47
 521.494140625 92 521.494140625 92 719.494140625 92 c 0,48,49
 853.59375 92 853.59375 92 953.61328125 175 c 0,50,51
 1052.73046875 258 1052.73046875 258 1120.82421875 426 c 1,52,-1
 1299.92382812 426 l 1,0,1
EndSplineSet
EndChar
StartChar: uni0188
Encoding: 392 392 392
Width: 1122
Flags: W
AnchorPoint: "above" 664.077 1092 basechar 0
LayerCount: 2
Back
Fore
SplineSet
973.026367188 332 m 1,0,1
 906.984375 150 906.984375 150 785.9375 60 c 0,2,3
 664.16796875 -29 664.16796875 -29 482.3671875 -29 c 0,4,5
 226.767578125 -29 226.767578125 -29 112.083984375 118 c 0,6,7
 -2.5986328125 265 -2.5986328125 265 44.1103515625 532 c 0,8,9
 90.294921875 796 90.294921875 796 254.787109375 944 c 0,10,11
 419.27734375 1092 419.27734375 1092 665.877929688 1092 c 0,12,13
 764.877929688 1092 764.877929688 1092 862.00390625 1071 c 1,14,-1
 871.1015625 1123 l 2,15,16
 899.616210938 1286 899.616210938 1286 1018.70996094 1370 c 0,17,18
 1136.73632812 1453 1136.73632812 1453 1229.43554688 1453 c 0,19,20
 1283.43554688 1453 1283.43554688 1453 1342.88085938 1443 c 0,21,22
 1402.33496094 1433 1402.33496094 1433 1464.71386719 1414 c 1,23,-1
 1425.34765625 1189 l 1,24,-1
 1323.6484375 1189 l 1,25,26
 1337.64257812 1269 1337.64257812 1269 1314.96289062 1304 c 0,27,28
 1295.16308594 1340 1295.16308594 1340 1235.76269531 1340 c 0,29,30
 1170.06347656 1340 1170.06347656 1340 1135.73730469 1293 c 0,31,32
 1101.41992188 1246 1101.41992188 1246 1079.90136719 1123 c 2,33,-1
 1059.78613281 1008 l 1,34,-1
 1008.17089844 713 l 1,35,-1
 907.37109375 713 l 1,36,37
 916.595703125 848 916.595703125 848 871.438476562 914 c 0,38,39
 826.109375 979 826.109375 979 723.508789062 979 c 0,40,41
 590.309570312 979 590.309570312 979 517.015625 879 c 0,42,43
 442.8203125 779 442.8203125 779 399.610351562 532 c 0,44,45
 357.44921875 291 357.44921875 291 394.330078125 188 c 0,46,47
 431.036132812 84 431.036132812 84 555.236328125 84 c 0,48,49
 651.536132812 84 651.536132812 84 720.33203125 148 c 0,50,51
 790.029296875 212 790.029296875 212 823.622070312 332 c 1,52,-1
 973.026367188 332 l 1,0,1
EndSplineSet
EndChar
StartChar: uni018A
Encoding: 394 394 394
Width: 1598
Flags: W
AnchorPoint: "above" 904.194 1465 basechar 0
LayerCount: 2
Back
Fore
SplineSet
388.893554688 1493 m 2,0,-1
 906.389648438 1493 l 2,1,2
 1268.19042969 1493 1268.19042969 1493 1426.30175781 1301 c 128,-1,3
 1584.4140625 1109 1584.4140625 1109 1521.26074219 748 c 0,4,5
 1457.75683594 385 1457.75683594 385 1231.3984375 192 c 0,6,7
 1006.11035156 0 1006.11035156 0 645.206054688 0 c 2,8,-1
 -44.1943359375 0 l 1,9,-1
 -23.0263671875 121 l 1,10,-1
 148.873046875 121 l 1,11,-1
 367.7265625 1372 l 17,12,13
 191.326171875 1372 191.326171875 1372 113.65625 1283 c 0,14,15
 34.7373046875 1192 34.7373046875 1192 2.197265625 1006 c 1,16,-1
 -176.002929688 1006 l 1,17,-1
 -113.373046875 1364 l 1,18,19
 -26.6015625 1433 -26.6015625 1433 194.220703125 1476 c 0,20,21
 282.693359375 1493 282.693359375 1493 388.893554688 1493 c 2,0,-1
495.373046875 121 m 1,22,-1
 620.473632812 121 l 2,23,24
 831.073242188 121 831.073242188 121 955.413085938 271 c 0,25,26
 1078.85742188 421 1078.85742188 421 1136.06054688 748 c 0,27,28
 1192.9140625 1073 1192.9140625 1073 1121.78710938 1222 c 0,29,30
 1050.82226562 1372 1050.82226562 1372 839.326171875 1372 c 2,31,-1
 714.2265625 1372 l 1,32,-1
 495.373046875 121 l 1,22,-1
EndSplineSet
EndChar
StartChar: uni018B
Encoding: 395 395 395
Width: 1575
Flags: W
LayerCount: 2
Back
Fore
SplineSet
1061.5234375 1356 m 1,0,-1
 396.427734375 1356 l 1,1,-1
 355.140625 1120 l 1,2,-1
 233.640625 1120 l 1,3,-1
 298.893554688 1493 l 1,4,-1
 1603.88964844 1493 l 1,5,-1
 1582.72167969 1372 l 1,6,-1
 1410.82226562 1372 l 1,7,-1
 1191.97753906 121 l 1,8,-1
 1363.87792969 121 l 1,9,-1
 1342.70996094 0 l 1,10,-1
 594.806640625 0 l 2,11,12
 257.306640625 0 257.306640625 0 125.374023438 105 c 0,13,14
 -7.45703125 210 -7.45703125 210 31.380859375 432 c 0,15,16
 60.0712890625 596 60.0712890625 596 185.389648438 695 c 0,17,18
 187.365234375 696 187.365234375 696 189.514648438 698 c 0,19,20
 339.583984375 815 339.583984375 815 522.83203125 849 c 0,21,22
 532.180664062 851 532.180664062 851 544.056640625 852 c 0,23,24
 674.10546875 870 674.10546875 870 857.705078125 870 c 2,25,-1
 976.508789062 870 l 1,26,-1
 1061.5234375 1356 l 1,0,-1
845.473632812 121 m 1,27,-1
 955.51171875 750 l 1,28,-1
 825.913085938 750 l 2,29,-1
 811.512695312 750 l 0,30,31
 636.012695312 750 636.012695312 750 542.091796875 671 c 0,32,33
 444.571289062 592 444.571289062 592 416.580078125 432 c 0,34,35
 388.764648438 273 388.764648438 273 458.26953125 197 c 0,36,37
 460.619140625 195 460.619140625 195 462.96875 193 c 0,38,39
 534.073242188 121 534.073242188 121 715.873046875 121 c 2,40,-1
 845.473632812 121 l 1,27,-1
EndSplineSet
EndChar
